<?xml version="1.0" encoding="utf-8"?>
<!-- Generator: Adobe Illustrator 27.5.0, SVG Export Plug-In . SVG Version: 6.00 Build 0)  -->
<svg version="1.1" id="Слой" xmlns="http://www.w3.org/2000/svg" xmlns:xlink="http://www.w3.org/1999/xlink" x="0px" y="0px"
	 viewBox="0 0 2000 2000" style="enable-background:new 0 0 2000 2000;" xml:space="preserve">
<rect style="fill:#FFFFFF;" width="2000" height="2000"/>
<g>
	
		<rect x="473.299" y="1063.099" transform="matrix(0.9757 -0.2192 0.2192 0.9757 -249.8624 149.0483)" style="fill:#F9E8F2;" width="146.718" height="274.534"/>
	<path style="fill:#0E2549;" d="M453.081,1125.369l-9.883-43.983l43.253-9.718l0.329,1.463c2.517,11.201,0.56,22.796-5.508,32.649
		c-6.11,9.921-15.602,16.761-26.728,19.261L453.081,1125.369z M446.783,1083.655l8.561,38.102c9.701-2.573,17.96-8.761,23.373-17.55
		c5.391-8.753,7.3-18.977,5.438-28.949L446.783,1083.655z"/>
	<path style="fill:#0E2549;" d="M495.149,1092.095c-0.686,0-1.305-0.474-1.462-1.171c-0.182-0.809,0.326-1.611,1.135-1.793
		l48.302-10.854c0.807-0.178,1.611,0.327,1.792,1.135c0.182,0.809-0.326,1.611-1.135,1.793l-48.302,10.854
		C495.369,1092.083,495.258,1092.095,495.149,1092.095z"/>
	<path style="fill:#0E2549;" d="M508.756,1293.613c-0.686,0-1.305-0.474-1.462-1.171l-35.816-159.396
		c-0.182-0.809,0.326-1.611,1.135-1.793c0.805-0.176,1.61,0.327,1.792,1.135l35.816,159.396c0.182,0.809-0.326,1.611-1.135,1.793
		C508.976,1293.602,508.865,1293.613,508.756,1293.613z"/>
</g>
<g>
	
		<rect x="456.536" y="1170.292" transform="matrix(0.7956 -0.6058 0.6058 0.7956 -683.814 588.2466)" style="fill:#F9E8F2;" width="146.718" height="274.534"/>
	<path style="fill:#0E2549;" d="M504.608,1197.447c-1.865,0-3.737-0.113-5.605-0.343c-11.903-1.466-22.262-7.271-29.17-16.344
		l-0.909-1.193l36.464-27.765l27.309,35.868l-1.193,0.908C523.947,1194.334,514.381,1197.447,504.608,1197.447z M473.152,1180.119
		c6.398,7.751,15.65,12.706,26.218,14.008c10.365,1.273,20.886-1.287,29.106-7.05l-23.657-31.069L473.152,1180.119z"/>
	<path style="fill:#0E2549;" d="M413.581,1278.369l-27.31-35.867l35.271-26.855l0.909,1.193c6.955,9.134,10.007,20.489,8.596,31.976
		c-1.421,11.564-7.2,21.737-16.272,28.645L413.581,1278.369z M390.475,1243.072l23.658,31.069
		c7.747-6.381,12.677-15.446,13.936-25.691c1.254-10.203-1.27-20.293-7.118-28.583L390.475,1243.072z"/>
	<path style="fill:#0E2549;" d="M437.337,1230.728c-0.452,0-0.899-0.204-1.194-0.592c-0.502-0.658-0.374-1.6,0.285-2.102
		l39.388-29.99c0.659-0.503,1.6-0.374,2.102,0.285c0.502,0.658,0.375,1.6-0.285,2.102l-39.388,29.99
		C437.973,1230.628,437.654,1230.728,437.337,1230.728z"/>
	<path style="fill:#0E2549;" d="M624.088,1338.557c-0.452,0-0.899-0.204-1.194-0.591l-98.969-129.979
		c-0.502-0.659-0.375-1.601,0.285-2.103c0.659-0.503,1.6-0.373,2.102,0.284l98.969,129.979c0.502,0.659,0.375,1.601-0.285,2.103
		C624.725,1338.457,624.405,1338.557,624.088,1338.557z"/>
	<path style="fill:#0E2549;" d="M533.667,1408.255c-0.452,0-0.899-0.204-1.194-0.591l-98.969-129.98
		c-0.502-0.659-0.375-1.601,0.285-2.103c0.659-0.503,1.601-0.373,2.102,0.284l98.969,129.98c0.502,0.659,0.375,1.601-0.285,2.103
		C534.303,1408.155,533.983,1408.255,533.667,1408.255z"/>
	<path style="fill:#EAB7C2;" d="M547.245,1336.926c-16.48,12.548-38.14,11.818-48.379-1.629c-10.239-13.447-5.18-34.521,11.3-47.069
		s38.14-11.818,48.379,1.629C568.784,1303.304,563.725,1324.378,547.245,1336.926z"/>
	<path style="fill:#0E2549;" d="M551.622,1295.127c-0.502-0.657-1.443-0.787-2.102-0.284l-3.336,2.541
		c-5.575-6.316-11.987-6.184-16.381-2.838c-4.879,3.715-5.082,8.521-1.79,16.674l-15.755,11.996
		c-2.871-4.729-2.54-9.072,0.26-12.998c0.456-0.638,0.447-1.498-0.028-2.122l0,0c-0.721-0.946-2.152-0.947-2.865,0.004
		c-3.047,4.068-4.396,9.949,0.166,16.995l-4.729,3.601c-0.659,0.502-0.787,1.443-0.285,2.103c0.295,0.387,0.742,0.591,1.194,0.591
		c0.317,0,0.636-0.1,0.908-0.307l4.692-3.572c6.135,7.464,13.245,7.702,18.308,3.847c4.236-3.226,7.108-7.722,2.143-19.419
		l13.436-10.23c2.926,4.538,2.456,8.383,0.17,11.615c-0.458,0.646-0.458,1.512,0.023,2.143c0.721,0.946,2.165,0.964,2.869,0.005
		c2.749-3.743,3.752-9.397-0.504-15.71l3.322-2.53C551.996,1296.728,552.123,1295.786,551.622,1295.127z M532.2,1297.379
		c3.646-2.777,7.759-2.164,11.438,1.942l-12.792,9.74C528.542,1303.041,528.75,1300.006,532.2,1297.379z M527.429,1328.563
		c-3.723,2.834-8.639,2.907-13.424-2.907l15.193-11.569C532.436,1322.248,531.212,1325.682,527.429,1328.563z"/>
</g>
<g>
	
		<rect x="1361.269" y="867.442" transform="matrix(0.6106 -0.792 0.792 0.6106 -161.4899 1553.198)" style="fill:#F9E8F2;" width="274.534" height="146.718"/>
	<path style="fill:#0E2549;" d="M1523.296,830.514c-9.328,0-18.263-2.999-25.658-8.7l-1.188-0.916l27.523-35.702l35.109,27.067
		l-0.916,1.188c-7.009,9.091-17.179,14.994-28.637,16.62C1527.441,830.367,1525.359,830.514,1523.296,830.514z M1500.675,820.331
		c8.177,5.82,18.213,8.221,28.435,6.769c10.178-1.445,19.263-6.507,25.745-14.311l-30.336-23.386L1500.675,820.331z"/>
	<path style="fill:#0E2549;" d="M1589.287,862.773c-0.32,0-0.642-0.102-0.915-0.312l-39.208-30.227
		c-0.656-0.506-0.777-1.447-0.271-2.104c0.505-0.656,1.446-0.778,2.104-0.272l39.208,30.226c0.656,0.506,0.777,1.448,0.271,2.104
		C1590.181,862.572,1589.736,862.773,1589.287,862.773z"/>
	<path style="fill:#0E2549;" d="M1494.566,1040.925c-0.32,0-0.642-0.102-0.915-0.313c-0.656-0.505-0.777-1.447-0.271-2.104
		l99.745-129.386c0.506-0.656,1.447-0.777,2.104-0.272c0.656,0.506,0.777,1.448,0.271,2.104l-99.745,129.386
		C1495.46,1040.724,1495.016,1040.925,1494.566,1040.925z"/>
	<path style="fill:#0E2549;" d="M1403.738,971.756c-0.32,0-0.642-0.102-0.915-0.313c-0.656-0.505-0.777-1.447-0.271-2.104
		l99.746-129.385c0.505-0.657,1.447-0.777,2.104-0.272c0.656,0.506,0.777,1.448,0.271,2.104l-99.746,129.385
		C1404.632,971.555,1404.188,971.756,1403.738,971.756z"/>
</g>
<g>
	
		<rect x="1286.767" y="745.781" transform="matrix(0.2251 -0.9743 0.9743 0.2251 305.4003 2022.2703)" style="fill:#F9E8F2;" width="274.534" height="146.718"/>
	<path style="fill:#0E2549;" d="M1518.059,744.706l-1.462-0.338c-11.022-2.546-20.98-9.675-27.322-19.558
		c-6.477-10.094-8.63-21.771-6.063-32.881l0.338-1.462l44.655,10.315L1518.059,744.706z M1485.825,694.072
		c-1.875,9.873,0.224,20.156,5.974,29.118c5.642,8.792,14.334,15.246,24.019,17.889l8.789-38.049L1485.825,694.072z"/>
	<path style="fill:#0E2549;" d="M1383.131,712.432c-3.134,0-6.311-0.352-9.487-1.085l-1.461-0.337l10.146-43.924l43.193,9.977
		l-0.337,1.462C1420.522,698.705,1402.698,712.432,1383.131,712.432z M1375.787,708.733c20.424,3.906,40.604-8.967,46.11-29.429
		l-37.321-8.621L1375.787,708.733z"/>
	<path style="fill:#0E2549;" d="M1473.401,710.533c-0.111,0-0.225-0.013-0.339-0.039l-48.236-11.142
		c-0.807-0.187-1.311-0.991-1.124-1.798c0.187-0.807,0.984-1.311,1.8-1.124l48.236,11.142c0.807,0.187,1.311,0.992,1.124,1.799
		C1474.702,710.065,1474.084,710.533,1473.401,710.533z"/>
	<path style="fill:#0E2549;" d="M1461.517,911.951c-0.111,0-0.225-0.013-0.339-0.039c-0.807-0.187-1.311-0.992-1.124-1.799
		l36.771-159.179c0.187-0.807,0.985-1.31,1.8-1.124c0.807,0.187,1.311,0.992,1.124,1.799l-36.771,159.178
		C1462.817,911.481,1462.199,911.951,1461.517,911.951z"/>
	<path style="fill:#0E2549;" d="M1350.13,886.914c-0.111,0-0.225-0.013-0.339-0.039c-0.807-0.187-1.311-0.992-1.124-1.799
		l36.771-159.179c0.187-0.806,0.986-1.313,1.8-1.124c0.807,0.186,1.311,0.991,1.124,1.799l-36.771,159.178
		C1351.431,886.444,1350.813,886.914,1350.13,886.914z"/>
	<path style="fill:#EAB7C2;" d="M1412.525,851.25c-20.182-4.662-33.458-21.792-29.654-38.26
		c3.805-16.468,23.249-26.039,43.431-21.377c20.182,4.662,33.458,21.792,29.654,38.26
		C1452.152,846.34,1432.707,855.912,1412.525,851.25z"/>
	<path style="fill:#0E2549;" d="M1446.354,826.115l-4.086-0.944c1.297-8.324-2.901-13.173-8.282-14.416
		c-5.976-1.38-9.803,1.535-13.972,9.275l-19.294-4.457c1.805-5.229,5.355-7.75,10.165-8.103c0.782-0.058,1.438-0.614,1.614-1.378
		c0.269-1.159-0.646-2.26-1.833-2.201c-5.076,0.254-10.463,2.975-12.968,10.985l-5.791-1.338c-0.814-0.188-1.613,0.317-1.8,1.125
		c-0.187,0.807,0.317,1.612,1.124,1.799l5.746,1.327c-1.823,9.488,2.535,15.11,8.736,16.543c5.188,1.199,10.482,0.543,16.312-10.756
		l16.451,3.8c-1.622,5.15-4.88,7.245-8.827,7.551c-0.79,0.062-1.455,0.614-1.633,1.387c-0.269,1.159,0.641,2.281,1.828,2.21
		c4.636-0.276,9.627-3.117,11.765-10.424l4.068,0.94c0.114,0.027,0.228,0.039,0.339,0.039c0.683,0,1.301-0.47,1.461-1.164
		C1447.665,827.106,1447.161,826.301,1446.354,826.115z M1433.339,814.41c4.466,1.032,6.622,4.587,5.813,10.041l-15.666-3.619
		C1426.646,815.213,1429.113,813.434,1433.339,814.41z M1406.301,830.662c-4.56-1.053-7.757-4.788-6.34-12.185l18.606,4.298
		C1414.357,830.48,1410.934,831.732,1406.301,830.662z"/>
</g>
<g>
	<polygon style="fill:#E2D0DA;" points="1462.646,1463.059 874.882,1463.059 874.882,827.356 1462.646,928 	"/>
	<path style="fill:#1B2746;" d="M1464.146,1464.559H873.382V825.577l590.764,101.158V1464.559z M876.382,1461.559h584.764V929.265
		l-584.764-100.13V1461.559z"/>
	<polygon style="fill:#EAB7C2;" points="530.351,906.319 482.351,951.141 542.568,951.141 	"/>
	<path style="fill:#1B2746;" d="M544.531,952.641h-65.985l52.598-49.114L544.531,952.641z M486.155,949.641h54.45l-11.047-40.528
		L486.155,949.641z"/>
	<polygon style="fill:#F9E5EF;" points="751.823,717.647 527.352,917.765 527.352,1463.059 976.293,1463.059 976.293,917.765 	"/>
	<path style="fill:#1B2746;" d="M977.793,1464.559H525.852V917.092l0.502-0.447l225.469-201.008l0.998,0.89l224.972,200.565
		V1464.559z M528.852,1461.559h445.941V918.438l-222.97-198.78l-222.971,198.78V1461.559z"/>
	<path style="fill:#E2474B;" d="M488.529,955.174h-40.161L752.05,681.785c0.106-0.095,0.275-0.019,0.273,0.124l-0.456,37.831
		L488.529,955.174z"/>
	<path style="fill:#0E2549;" d="M489.102,956.674H444.46l306.587-276.003c0.489-0.443,1.195-0.554,1.799-0.279
		c0.602,0.273,0.986,0.876,0.977,1.538l-0.464,38.489l-0.493,0.44L489.102,956.674z M452.276,953.674h35.68l262.419-234.612
		l0.411-34.121L452.276,953.674z"/>
	<path style="fill:#EAB7C2;" d="M754.602,684.559l468.75-3.024l306.907,273.639h-482.824l-293.23-269.587
		C753.809,685.224,754.064,684.562,754.602,684.559z"/>
	<path style="fill:#1B2746;" d="M1534.196,956.674h-487.346l-0.431-0.396L753.19,686.692c-0.637-0.584-0.848-1.485-0.537-2.294
		c0.311-0.809,1.073-1.334,1.939-1.34l469.327-3.027l0.431,0.384L1534.196,956.674z M1048.021,953.674h478.303l-303.538-270.636
		l-465.867,3.006L1048.021,953.674z"/>
	<path style="fill:#E2474B;" d="M1013.977,955.105l40.315,0.139L752.556,681.742c-0.088-0.08-0.23-0.019-0.232,0.101l-0.457,37.896
		L1013.977,955.105z"/>
	<path style="fill:#0E2549;" d="M1058.197,956.757l-44.797-0.154l-0.425-0.382L750.359,720.401l0.465-38.576
		c0.008-0.645,0.395-1.227,0.986-1.483c0.591-0.257,1.28-0.142,1.756,0.292L1058.197,956.757z M1014.555,953.606l35.836,0.123
		L753.788,684.883l-0.412,34.195L1014.555,953.606z M751.548,682.854c0.002,0.001,0.003,0.004,0.005,0.005L751.548,682.854z"/>
	<rect x="528.852" y="1400.235" style="fill:#EAB7C2;" width="445.897" height="62.823"/>
	<rect x="977.793" y="1400.235" style="fill:#CEB6C5;" width="483.265" height="62.823"/>
	<rect x="1016.31" y="1079.248" style="fill:#E2474B;" width="73.06" height="108.563"/>
	<rect x="1105.252" y="1079.248" style="fill:#E2474B;" width="73.059" height="108.563"/>
	<rect x="1016.31" y="1203.626" style="fill:#E2474B;" width="73.06" height="108.563"/>
	<rect x="1105.252" y="1203.626" style="fill:#E2474B;" width="73.059" height="108.563"/>
	<rect x="1245.622" y="1079.248" style="fill:#E2474B;" width="73.059" height="108.563"/>
	<rect x="1334.563" y="1079.248" style="fill:#E2474B;" width="73.059" height="108.563"/>
	<rect x="1245.622" y="1203.626" style="fill:#E2474B;" width="73.059" height="108.563"/>
	<rect x="1334.563" y="1203.626" style="fill:#E2474B;" width="73.059" height="108.563"/>
	<rect x="654.764" y="1020.117" style="fill:#E2474B;" width="193.765" height="445.766"/>
	<path style="fill:#0E2549;" d="M850.029,1467.382H653.264v-448.765h196.765V1467.382z M656.264,1464.382h190.765v-442.765H656.264
		V1464.382z"/>
	<rect x="680.558" y="1043.175" style="fill:#EAB7C2;" width="61" height="116.764"/>
	<rect x="761.735" y="1043.175" style="fill:#EAB7C2;" width="61" height="116.764"/>
	<rect x="680.558" y="1180.13" style="fill:#EAB7C2;" width="61" height="116.764"/>
	<rect x="761.735" y="1180.13" style="fill:#EAB7C2;" width="61" height="116.764"/>
	<rect x="680.558" y="1317.085" style="fill:#EAB7C2;" width="61" height="116.763"/>
	<rect x="761.735" y="1317.085" style="fill:#EAB7C2;" width="61" height="116.763"/>
	<path style="fill:#E2474B;" d="M850.649,953.057h-202.59c0-25.4,9.35-48.62,24.81-66.4c2.44-2.82,5.04-5.5,7.79-8.02
		c16.78-15.51,38.8-25.4,63.11-26.72c1.84-0.1,3.71-0.15,5.58-0.15c1.88,0,3.74,0.05,5.59,0.15c23.7,1.29,45.21,10.72,61.82,25.54
		c2.79,2.48,5.43,5.11,7.91,7.89C840.829,903.287,850.649,927.026,850.649,953.057z"/>
	<path style="fill:#EAB7C2;" d="M824.669,885.347l-67.71,67.71h-17.69l-66.4-66.4c2.44-2.82,5.04-5.5,7.79-8.02l63.11,63.11v-89.83
		h11.17v87.36l61.82-61.82C819.549,879.937,822.189,882.566,824.669,885.347z"/>
	<path style="fill:#F9E5EF;" d="M837.705,1241.588c0,7.147-5.794,12.941-12.941,12.941c-7.147,0-12.941-5.794-12.941-12.941
		c0-7.146,5.794-12.94,12.941-12.94C831.911,1228.647,837.705,1234.441,837.705,1241.588z"/>
	<path style="fill:#1B2746;" d="M824.764,1256.029c-7.963,0-14.441-6.479-14.441-14.441s6.478-14.441,14.441-14.441
		s14.441,6.479,14.441,14.441S832.727,1256.029,824.764,1256.029z M824.764,1230.146c-6.309,0-11.441,5.133-11.441,11.441
		s5.132,11.441,11.441,11.441s11.441-5.133,11.441-11.441S831.073,1230.146,824.764,1230.146z"/>
</g>
<g>
	<polygon style="fill:#FFFFFF;" points="416.852,1425.026 416.819,1445.752 391.777,1445.752 389.688,1426.088 	"/>
	<path style="fill:#0E2549;" d="M418.316,1447.252h-27.889l-2.4-22.601l30.327-1.185L418.316,1447.252z M393.126,1444.252h22.195
		l0.028-17.666l-24,0.938L393.126,1444.252z"/>
	<path style="fill:#E2474B;" d="M418.244,1442.651c0,0,37.559,11.921,38.854,21.745h-67.346v-21.745H418.244z"/>
	<polygon style="fill:#FFFFFF;" points="332.227,1425.299 331.533,1445.587 306.119,1445.587 304.914,1424.861 	"/>
	<path style="fill:#0E2549;" d="M332.983,1447.087h-28.28l-1.38-23.751l30.455,0.486L332.983,1447.087z M307.534,1444.087h22.549
		l0.592-17.313l-24.17-0.387L307.534,1444.087z"/>
	<path style="fill:#E2474B;" d="M332.943,1443.113c0,0,37.558,11.921,38.854,21.744h-67.346v-21.744H332.943z"/>
	<polygon style="fill:#0E2549;" points="374.248,1461.125 374.248,1466.773 302.693,1466.773 302.693,1460.316 	"/>
	<polygon style="fill:#0E2549;" points="387.646,1460.291 387.646,1466.313 459.202,1466.313 459.202,1459.854 	"/>
	<polygon style="fill:#0E2549;" points="295.96,1097.205 296.999,1194.801 297.614,1252.96 299.483,1428.72 340.844,1428.72 
		359.344,1249.442 362.293,1220.858 382.995,1428.72 422.809,1428.72 419.587,1166.059 415.18,1117.795 359.309,1108.146 
		337.679,1104.407 	"/>
	<path style="fill:#FFFFFF;" d="M366.674,914.843c0,0-2.926,30.726-0.468,34.124c2.459,3.398,16.647,9.659,16.647,9.659
		l-23.788,69.941l-50.798-4.91l-3.293-52.001c0,0,23.186-18.888,24.585-22.768c1.936-5.368,1.941-34.046,1.941-34.046H366.674z"/>
	<path style="fill:#0E2549;" d="M360.103,1030.174l-53.251-5.146l-3.423-54.047l0.599-0.487
		c11.239-9.156,23.334-19.931,24.121-22.113c1.515-4.201,1.851-25.634,1.852-33.538c0-0.828,0.672-1.5,1.5-1.5c0,0,0,0,0,0
		c0.828,0,1.5,0.672,1.5,1.5c-0.001,2.962-0.062,29.098-2.03,34.555c-1.402,3.888-19.449,18.842-24.45,22.934l3.164,49.956
		l48.344,4.672l22.966-67.524c-3.717-1.697-13.749-6.475-16.003-9.589c-2.588-3.578-0.509-27.806,0.19-35.146
		c0.079-0.825,0.817-1.438,1.635-1.351c0.825,0.079,1.43,0.81,1.351,1.635c-1.399,14.695-2.059,31.095-0.743,33.107
		c1.614,2.229,10.692,6.804,16.034,9.162l1.257,0.555L360.103,1030.174z"/>
	<path style="fill:#FFFFFF;" d="M498.147,984.041c-7.771,4.389-38.621,37.013-38.621,37.013l22.14,10.572
		c0,0,17.959-33.548,21.139-33.976c5.972-0.804,24.032-0.263,29.861-4.167c8.818-5.906,13.376-13.43,12.324-15.773
		c-0.567-1.263-15.854,7.901-19.209,7.989C516.306,985.946,503.685,980.913,498.147,984.041z"/>
	<path style="fill:#0E2549;" d="M482.496,1034.157l-26.187-12.505l1.817-1.922c1.268-1.341,31.141-32.886,39.073-37.366l0,0
		c3.891-2.198,10.017-1.116,16.503,0.027c4.117,0.727,8.374,1.48,12.027,1.382c1.261-0.033,6.678-2.727,9.914-4.336
		c6.907-3.434,8.517-4.128,9.882-3.635c0.552,0.197,0.985,0.594,1.221,1.119c1.737,3.87-4.342,12.357-13.009,18.162
		c-4.669,3.127-15.2,3.617-23.662,4.011c-2.763,0.129-5.17,0.241-6.746,0.43c-2.456,1.901-11.992,18.115-19.966,33.011
		L482.496,1034.157z M462.747,1020.458l18.091,8.638c17.653-32.81,20.697-33.219,21.709-33.356c1.73-0.232,4.334-0.353,7.35-0.494
		c7.136-0.332,17.92-0.834,21.697-3.364c6.178-4.137,9.814-8.877,11.098-11.572c-1.559,0.7-3.639,1.734-5.333,2.578
		c-5.859,2.913-9.559,4.686-11.529,4.738c-4.036,0.098-8.492-0.681-12.797-1.44c-5.532-0.975-11.252-1.985-13.939-0.468
		C493.471,988.894,473.831,1008.82,462.747,1020.458z"/>
	<path style="fill:#E2474B;" d="M390.595,955.883c15.354,5.603,11.645,87.6,11.645,87.6c2.505,9.644,8.409,61.269,8.409,61.269
		l-107.611,21.45l-12.689-64.437c0,0-7.944-108.486,34.219-114.84c4.046-0.61,16.409,5.17,29.623,3.893
		c5.731-0.554,8.652,6.285,11.501-3.752C365.69,947.067,387.254,954.664,390.595,955.883z"/>
	<path style="fill:#0E2549;" d="M365.597,1054.154l10.218-105.288c7.038,0,37.118,18.928,37.118,18.928
		c0.476-0.974,25.665,45.031,32.612,62.16c0.801,1.977,32.7-40.848,32.493-38.486c0,0,28.918,9.899,28.764,13.647
		c-0.155,3.748-36.311,67.166-60.77,78.712c-4.534,2.14-30.331-14.351-31.678-38.876l3.324,60.48l5.719,59.565l-53.96,0.086
		l-2.52-50.404L365.597,1054.154z"/>
	<path style="fill:#0E2549;" d="M327.195,944.888l39.156,111.51c0.103,8.889,1.667,44.566,0.004,82.352
		c-0.759,17.249-1.751,30.364-1.751,27.3c0-1.243-74.851-0.965-74.851-0.965l-2.311-25.36c0,0-24.945-17.26-24.945-66.132
		c0-54.763,2.99-73.368,10.276-100.846C273.825,968.778,312.863,944.888,327.195,944.888z"/>
	<path style="fill:#0E2549;" d="M349.175,855.406c6.395-0.138,21.925-0.672,23.373,10.614c1.652,12.873,1.602,29.703,1.426,38.584
		c-0.069,3.505-2.691,6.425-6.161,6.871l-38.867,4.987c-3.561,0.457-6.898-1.833-7.758-5.327c-2.895-11.758-8.8-36.683-7.874-40.674
		C316.466,856.881,339.051,855.624,349.175,855.406z"/>
	<path style="fill:#FFFFFF;" d="M333.034,924.484c-2.378-1.912-4.326-10.43-5.828-20.24c-0.043-0.284-0.229-0.521-0.485-0.632
		c-2.747-1.192-6.856-3.972-7.376-8.867c-0.45-4.241,2.721-3.747,5.297-2.693c0.46,0.188,0.94-0.198,0.883-0.706
		c-1.333-11.891-2.015-22.378-2.015-22.378l46.186-5.925c0,0,1.267,10.594,2.347,22.517c0.048,0.535,1.74,29.089,0.96,31.793
		c-0.425,1.473-1.434,2.78-2.868,3.922c0,0-2.653,2.804-19.439,4.958L333.034,924.484z"/>
	<path style="fill:#0E2549;" d="M350.692,927.732c-0.743,0-1.389-0.553-1.486-1.31c-0.105-0.822,0.475-1.573,1.297-1.679
		c15.475-1.985,18.477-4.453,18.598-4.557l0.098-0.086c1.248-0.994,2.042-2.059,2.362-3.165c0.643-2.436-0.848-29.2-1.013-31.249
		c-0.83-9.165-1.781-17.627-2.166-20.965l-43.278,5.553c0.233,3.247,0.879,11.696,1.912,20.904c0.086,0.765-0.239,1.527-0.847,1.988
		c-0.607,0.458-1.389,0.56-2.093,0.274c-1.883-0.771-2.784-0.676-3.02-0.499c-0.136,0.102-0.334,0.563-0.219,1.645
		c0.486,4.575,4.695,6.873,6.482,7.649c0.737,0.32,1.249,0.986,1.371,1.781c2.37,15.488,4.486,18.656,5.285,19.298
		c0.646,0.519,0.748,1.464,0.229,2.109c-0.518,0.646-1.461,0.749-2.109,0.229c-1.52-1.222-3.824-4.714-6.315-20.82
		c-2.422-1.119-7.304-4.078-7.926-9.93c-0.215-2.033,0.256-3.499,1.401-4.359c1.093-0.822,2.647-0.938,4.634-0.35
		c-1.227-11.247-1.869-21.028-1.876-21.13l-0.091-1.406l49.084-6.297l0.18,1.502c0.013,0.106,1.282,10.752,2.351,22.561
		c0.025,0.27,1.795,29.269,0.907,32.344c-0.49,1.7-1.608,3.26-3.323,4.639c-0.786,0.718-4.611,3.309-20.234,5.313
		C350.82,927.729,350.756,927.732,350.692,927.732z"/>
	<path style="fill:#0E2549;" d="M343.948,894.999c-1.292,0-2.387-0.995-2.489-2.305l-0.075-0.959
		c-0.108-1.377,0.92-2.58,2.297-2.688c1.364-0.107,2.58,0.919,2.688,2.297l0.075,0.959c0.108,1.376-0.921,2.579-2.297,2.687
		C344.08,894.997,344.014,894.999,343.948,894.999z"/>
	<path style="fill:#0E2549;" d="M364.239,893.025c-1.25,0-2.329-0.934-2.48-2.205l-0.134-1.127
		c-0.163-1.371,0.816-2.614,2.188-2.777c1.375-0.169,2.615,0.816,2.777,2.188l0.134,1.127c0.163,1.371-0.816,2.615-2.188,2.777
		C364.436,893.021,364.337,893.025,364.239,893.025z"/>
	<path style="fill:#0E2549;" d="M338.239,887.44c-0.527,0-1.038-0.278-1.313-0.771c-0.402-0.724-0.142-1.637,0.582-2.04
		c4.426-2.462,8.998-1.092,9.189-1.032c0.792,0.246,1.234,1.085,0.99,1.877c-0.244,0.79-1.08,1.233-1.871,0.992
		c-0.04-0.014-3.574-1.039-6.851,0.785C338.736,887.379,338.485,887.44,338.239,887.44z"/>
	<path style="fill:#0E2549;" d="M357.095,905.08c-0.618,0-1.197-0.385-1.415-1.001c-0.275-0.781,0.134-1.638,0.916-1.913
		c1.113-0.396,2.326-1.116,2.55-1.509c0.038-0.732-0.028-0.902-2.324-5.112c-0.54-0.99-1.192-2.186-1.98-3.646l-0.051-0.104
		c-0.158-0.355-1.532-3.535-1.362-5.893c0.073-1.009,0.744-1.905,1.994-2.661c2.827-1.711,8.182-2.531,11.65-1.023
		c0.76,0.33,1.108,1.213,0.777,1.973c-0.33,0.76-1.213,1.109-1.974,0.778c-3.21-1.394-8.688,0.205-9.461,1.266
		c-0.043,1.352,0.769,3.54,1.096,4.294c0.772,1.432,1.413,2.606,1.944,3.581c2.512,4.607,2.774,5.088,2.682,6.782
		c-0.13,2.367-3.511,3.74-4.543,4.104C357.429,905.052,357.26,905.08,357.095,905.08z"/>
	<path style="fill:#A1C5E2;" d="M310.384,1146.657c-0.491,0-0.976-0.222-1.296-0.643c-0.544-0.716-0.404-1.736,0.311-2.279
		l29.707-22.566c0.713-0.544,1.734-0.405,2.279,0.311c0.543,0.716,0.404,1.736-0.312,2.279l-29.707,22.566
		C311.073,1146.549,310.727,1146.657,310.384,1146.657z"/>
	<path style="fill:#A1C5E2;" d="M414.955,1141.351c-0.248,0-0.499-0.057-0.735-0.177l-31.961-16.224
		c-0.801-0.406-1.121-1.386-0.714-2.187c0.406-0.802,1.386-1.122,2.186-0.714l31.962,16.224c0.801,0.406,1.121,1.386,0.714,2.187
		C416.12,1141.025,415.548,1141.351,414.955,1141.351z"/>
	<path style="fill:#FFFFFF;" d="M374.953,945.742l21.464,23.712l-17.397,6.99l10.002,26.25l-22.995,48.292
		c-0.085,0.179-0.355,0.104-0.336-0.094L374.953,945.742z"/>
	<path style="fill:#0E2549;" d="M365.87,1052.587c-0.148,0-0.298-0.02-0.447-0.061c-0.786-0.217-1.301-0.963-1.224-1.774
		l9.562-108.563l25.214,27.854l-18.027,7.244l9.706,25.474l-23.271,48.87C367.099,1052.227,366.503,1052.587,365.87,1052.587z
		 M367.187,1051.009l-0.002,0.016C367.186,1051.019,367.186,1051.014,367.187,1051.009z M376.146,949.294l-8.316,94.419
		l19.563-41.084l-10.298-27.028l16.766-6.736L376.146,949.294z"/>
	<path style="fill:#FFFFFF;" d="M327.195,944.888l-20.744,31.448l23.402,2.036l-5.255,27.841l39.708,44.24
		c0.264,0.295,0.74,0.004,0.599-0.365L327.195,944.888z"/>
	<path style="fill:#0E2549;" d="M364.573,1052.072c-0.514,0-1.021-0.213-1.384-0.618l-40.203-44.791l5.085-26.941l-24.259-2.109
		l23.783-36.055l38.722,108.023c0.309,0.807-0.014,1.752-0.778,2.219C365.239,1051.983,364.905,1052.072,364.573,1052.072z
		 M363.489,1050.579c0.005,0.015,0.01,0.029,0.016,0.044L363.489,1050.579z M326.21,1005.763l35.32,39.351l-34.734-96.896
		L309.09,975.06l22.544,1.961L326.21,1005.763z"/>
	<path style="fill:#A1C5E2;" d="M301.487,1169.561c-0.864,0-1.584-0.681-1.624-1.552c-0.041-0.897,0.653-1.659,1.55-1.7
		l61.704-2.838c0.905-15.433,2.177-38.909,2.25-40.254l-1.303-72.295c-0.016-0.898,0.699-1.64,1.597-1.655
		c0.01-0.001,0.02-0.001,0.03-0.001c0.885,0,1.61,0.709,1.626,1.598l1.305,72.412l-0.003,0.059c-0.014,0.259-1.41,26.057-2.34,41.79
		l-0.086,1.462l-64.629,2.973C301.538,1169.56,301.513,1169.561,301.487,1169.561z"/>
	<path style="fill:#A1C5E2;" d="M356.992,1098.384c-2.35,0-4.261-1.912-4.261-4.263c0-2.35,1.912-4.262,4.261-4.262
		c2.35,0,4.262,1.912,4.262,4.262C361.253,1096.472,359.342,1098.384,356.992,1098.384z"/>
	<path style="fill:#A1C5E2;" d="M369.438,1166.711c-0.897,0-1.625-0.727-1.626-1.624c-0.001-0.898,0.726-1.628,1.624-1.63
		l52.207-0.083l-10.673-139.538c-0.069-0.895,0.602-1.678,1.498-1.746c0.881-0.067,1.677,0.602,1.746,1.498l10.94,143.034
		l-55.713,0.089C369.44,1166.711,369.438,1166.711,369.438,1166.711z"/>
	<polygon style="fill:#E2474B;" points="315.923,950.055 328.395,940.333 354.189,950.819 345.918,960.69 	"/>
	<path style="fill:#0E2549;" d="M346.398,962.451l-33.556-11.897l15.314-11.937l28.504,11.588L346.398,962.451z M319.004,949.556
		l26.434,9.372l6.28-7.495l-23.085-9.385L319.004,949.556z"/>
	<polygon style="fill:#E2474B;" points="382.676,951.164 373.976,941.946 354.189,950.819 361.649,959.92 	"/>
	<path style="fill:#0E2549;" d="M361.196,961.733l-9.41-11.48l22.549-10.112l10.923,11.573L361.196,961.733z M356.593,951.386
		l5.509,6.72l17.993-7.492l-6.478-6.864L356.593,951.386z"/>
	<polygon style="fill:#0E2549;" points="345.918,960.69 354.189,950.819 362.413,960.69 358.818,964.926 368.433,1017.552 
		364.905,1050.088 351.575,1012.901 351.919,965.734 	"/>
	<path style="fill:#0E2549;" d="M322.244,872.379c0,0,36.528,3.764,48.435-8.351c6.794-6.913-1.704-22.839-7.958-23.867
		c-4.707-0.773-9.598,8.201-14.543,8.912c-3.805,0.547-12.75,2.838-17.656,4.08C320.573,855.671,317.075,866.688,322.244,872.379z"
		/>
	<polygon style="fill:#FFFFFF;" points="288.476,1118.662 344.393,1143.419 325.344,1182.349 270.356,1157.421 	"/>
	<path style="fill:#0E2549;" d="M326.051,1184.316l-57.696-26.156l19.385-41.465l58.685,25.983L326.051,1184.316z M272.357,1156.682
		l52.279,23.699l17.724-36.222l-53.148-23.53L272.357,1156.682z"/>
	<path style="fill:#FFFFFF;" d="M295.339,1126.202c1.069,9.281,7.787,25.704,12.714,32.721c2.418,3.442,10.497,15.974,11.365,19.164
		c0.526,1.935-9.199-2.814-9.647-2.927l-0.598,3.645c0,0-1.93,1.864-3.635,1.138c-1.461-0.622-2.187-2.927-3.594-3.276
		c-0.129-0.031-2.824,0.405-3.766,0.172c-1.193-0.296-2.105-2.7-2.975-3.43c-0.639-0.537-2.942,0.404-3.969-0.271
		c-1.646-1.08-1.016-3.378-2.168-4.171c-1.086-0.747-2.739,0.821-4.578-0.573c-1.797-1.363,5.714-12.077,5.572-14.505
		c-0.498-8.513-34.932-55.965-17.884-88.57C279.821,1050.7,291.724,1094.811,295.339,1126.202z"/>
	<path style="fill:#0E2549;" d="M306.382,1182.041c-0.516,0-1.054-0.095-1.599-0.327c-1.165-0.496-1.919-1.472-2.525-2.256
		c-0.202-0.261-0.485-0.627-0.686-0.822c-1.793,0.206-3.001,0.283-3.857,0.071c-1.475-0.365-2.37-1.759-3.089-2.878
		c-0.126-0.196-0.291-0.452-0.433-0.654c-0.155,0.014-0.33,0.032-0.467,0.048c-1.08,0.117-2.423,0.264-3.549-0.475
		c-1.542-1.013-1.901-2.563-2.139-3.588c-0.03-0.129-0.067-0.29-0.105-0.434c-0.065,0.011-0.131,0.022-0.19,0.033
		c-1.005,0.18-2.689,0.48-4.418-0.831c-2.326-1.765-0.475-5.292,2.329-10.631c0.961-1.831,2.414-4.599,2.484-5.369
		c-0.102-1.671-2.474-6.487-5.221-12.064c-8.974-18.219-25.678-52.131-12.446-77.438c1.939-3.709,4.224-4.136,5.801-3.847
		c9.712,1.803,18.458,43.486,20.981,65.401l0,0c1.054,9.155,7.687,25.157,12.376,31.835c1.736,2.473,10.619,15.987,11.647,19.766
		c0.237,0.871-0.022,1.761-0.678,2.321c-1.281,1.098-3.188,0.724-9.329-1.98l-0.299,1.824l-0.459,0.444
		C310.277,1180.417,308.52,1182.041,306.382,1182.041z M301.941,1174.738c0.158,0,0.295,0.017,0.456,0.056
		c1.39,0.345,2.232,1.434,2.908,2.308c0.315,0.408,0.747,0.966,0.988,1.069c0.186,0.08,0.679-0.13,1.097-0.405l0.818-4.988
		l2.034,0.515c0.239,0.061,0.409,0.136,1.394,0.577c2.069,0.929,3.574,1.558,4.665,1.977c-2.411-4.528-7.513-12.521-9.826-15.815
		c-4.974-7.083-11.905-23.653-13.051-33.608l0,0c-3.658-31.763-13.033-61.159-17.857-62.055c-0.332-0.06-0.974,0.485-1.684,1.844
		c-12.326,23.574,3.816,56.346,12.488,73.951c3.59,7.289,5.47,11.205,5.611,13.613c0.088,1.502-0.996,3.648-2.92,7.313
		c-0.936,1.781-2.408,4.586-2.818,5.98c0.196-0.003,0.451-0.036,0.82-0.102c0.788-0.142,1.979-0.353,3.092,0.412
		c1.14,0.784,1.424,2.013,1.632,2.91c0.148,0.639,0.247,0.994,0.422,1.172c0.254,0.025,0.771-0.033,1.095-0.069
		c1.033-0.112,2.206-0.241,3.135,0.54c0.56,0.471,0.979,1.123,1.423,1.813c0.246,0.384,0.643,1.001,0.886,1.234
		c0.363,0.027,1.17-0.033,2.395-0.174C301.507,1174.765,301.741,1174.738,301.941,1174.738z M292.133,1171.45L292.133,1171.45
		L292.133,1171.45z"/>
	<path style="fill:#0E2549;" d="M285.691,1151.092c0,0-26.184-16.941-30.561-53.168c-4.378-36.227,11.376-96.791,11.376-96.791
		l31.615,31.131c0,0-7.159,49.146-4.77,60.391s19.366,58.438,19.366,58.438H285.691z"/>
	<path style="fill:#A1C5E2;" d="M314.831,1152.719h-29.14c-0.898,0-1.626-0.729-1.626-1.627s0.728-1.627,1.626-1.627h24.897
		c-2.687-9.599-6.054-18.058-9.317-26.257c-4.682-11.765-9.105-22.877-9.97-34.395c-2.584-34.398,8.892-62.855,9.008-63.139
		c0.341-0.831,1.29-1.228,2.121-0.888c0.831,0.341,1.229,1.29,0.888,2.121c-0.113,0.277-11.298,28.06-8.774,61.661
		c0.828,11.021,4.961,21.408,9.748,33.436c3.528,8.865,7.176,18.031,9.996,28.67L314.831,1152.719z"/>
	<path style="fill:#0E2549;" d="M351.816,908.983c-0.311,1.414,3.864,5.68,7.45,5.038c5.853-1.048,6.33-7.302,4.99-6.714
		c-0.525,0.231-2.27,2.289-5.798,2.815C354.653,910.688,352.025,908.034,351.816,908.983z"/>
	<path style="fill:#A1C5E2;" d="M362.295,1222.485c-0.043,0-0.086-0.002-0.129-0.006c-0.896-0.07-1.564-0.853-1.494-1.748
		l3.397-43.271c0.07-0.896,0.853-1.572,1.749-1.494c0.895,0.07,1.564,0.853,1.494,1.748l-3.397,43.271
		C363.848,1221.838,363.135,1222.485,362.295,1222.485z"/>
</g>
<g>
	<polygon style="fill:#FFFFFF;" points="1565.175,1422.827 1565.21,1442.53 1591.779,1442.53 1593.995,1423.836 	"/>
	<path style="fill:#0E2549;" d="M1593.225,1444.157h-29.639l-0.041-23.015l32.273,1.13L1593.225,1444.157z M1566.834,1440.903h23.5
		l1.838-15.504l-25.367-0.888L1566.834,1440.903z"/>
	<path style="fill:#E2474B;" d="M1564.065,1440.37c0,0-39.452,12.522-40.812,22.841h70.741v-22.841H1564.065z"/>
	<polygon style="fill:#FFFFFF;" points="1642.587,1422.309 1643.304,1443.294 1669.574,1443.294 1670.818,1421.856 	"/>
	<path style="fill:#0E2549;" d="M1671.109,1444.921h-29.378l-0.827-24.212l31.64-0.507L1671.109,1444.921z M1644.876,1441.667
		h23.163l1.054-18.156l-24.823,0.397L1644.876,1441.667z"/>
	<path style="fill:#E2474B;" d="M1641.834,1441.028c0,0-39.452,12.522-40.813,22.842h70.742v-22.842H1641.834z"/>
	<polygon style="fill:#0E2549;" points="1598.447,1459.949 1598.447,1465.883 1673.609,1465.883 1673.609,1459.099 	"/>
	<polygon style="fill:#0E2549;" points="1596.205,1458.899 1596.205,1465.224 1521.043,1465.224 1521.043,1458.44 	"/>
	<polygon style="fill:#0E2549;" points="1633.533,1425.911 1676.98,1425.911 1680.685,1077.682 1555.45,1099.309 1556.071,1425.647 
		1597.893,1425.647 1611.25,1208.918 1606.238,1161.338 	"/>
	<path style="fill:#FFFFFF;" d="M1601.251,894.058c0,0,2.944,30.924,0.471,34.344c-2.475,3.421-17.249,10.525-17.249,10.525
		l24.436,69.59l51.127-4.941l3.314-52.337c0,0-23.336-19.01-24.744-22.915c-1.947-5.402-1.953-34.266-1.953-34.266H1601.251z"/>
	<path style="fill:#0E2549;" d="M1607.914,1010.06l-25.235-74.615l1.529-0.372c6.085-1.481,14.856-5.453,16.348-7.514
		c1.338-1.979,0.676-18.519-0.737-33.364c-0.075-0.791,0.505-1.494,1.296-1.569c0.795-0.07,1.493,0.505,1.569,1.296
		c0.703,7.382,2.794,31.744,0.204,35.325c-2.305,3.184-12.576,6.142-16.944,7.279l23.961,70.45l48.772-4.715l3.19-50.374
		c-4.992-4.082-23.207-19.17-24.615-23.074c-2.01-5.575-2.038-33.566-2.039-34.754c0-0.795,0.645-1.439,1.439-1.439
		c0.794,0,1.438,0.644,1.439,1.439c0.001,7.959,0.34,29.541,1.867,33.779c0.878,2.433,14.738,14.497,24.3,22.286l0.573,0.467
		l-0.046,0.739l-3.393,53.56L1607.914,1010.06z"/>
	<path style="fill:#0E2549;" d="M1610.481,832.903c-6.394,0.759-21.946,2.404-21.808,13.854c0.158,13.061,2.567,29.828,3.987,38.655
		c0.561,3.484,3.582,6.027,7.104,5.984l39.436-0.478c3.613-0.043,6.618-2.794,6.985-6.396c1.236-12.124,3.629-37.793,2.146-41.641
		C1643.288,829.789,1620.603,831.702,1610.481,832.903z"/>
	<path style="fill:#FFFFFF;" d="M1636.251,899.488c2.103-2.239,2.851-11.001,2.972-20.989c0.003-0.289,0.155-0.552,0.395-0.698
		c2.57-1.573,6.276-4.919,6.108-9.872c-0.146-4.29-3.236-3.352-5.656-1.942c-0.433,0.252-0.965-0.065-0.979-0.58
		c-0.338-12.038-1.128-22.586-1.128-22.586l-46.862,0.568c0,0,0.223,10.736,0.818,22.771c0.026,0.54,2.342,29.236,3.499,31.822
		c0.631,1.408,1.819,2.569,3.408,3.507c0,0,3.037,2.423,20.069,2.216L1636.251,899.488z"/>
	<path style="fill:#0E2549;" d="M1616.86,905.163c-14.182,0-17.998-1.892-18.825-2.462c-1.89-1.127-3.215-2.515-3.937-4.128
		c-1.328-2.969-3.61-32.069-3.624-32.342c-0.59-11.917-0.816-22.704-0.818-22.812l-0.03-1.457l49.676-0.602l0.102,1.353
		c0.007,0.102,0.742,9.996,1.096,21.417c1.919-0.893,3.496-1.009,4.697-0.344c1.24,0.685,1.904,2.063,1.974,4.094
		c0.2,5.912-4.268,9.533-6.507,10.97c-0.224,16.409-2.021,20.203-3.358,21.627c-0.548,0.581-1.461,0.61-2.043,0.064
		c-0.582-0.546-0.61-1.461-0.064-2.042c0.712-0.758,2.388-4.225,2.58-20.018c0.009-0.786,0.414-1.502,1.085-1.913
		c1.683-1.03,5.577-3.928,5.419-8.59c-0.035-1.05-0.281-1.552-0.481-1.662c-0.271-0.15-1.209-0.126-3.003,0.92
		c-0.641,0.372-1.412,0.381-2.061,0.02c-0.652-0.363-1.07-1.057-1.09-1.81c-0.265-9.38-0.81-17.941-1.03-21.163l-44.037,0.533
		c0.083,3.336,0.321,11.957,0.782,21.273c0.118,2.008,2.406,29.031,3.375,31.304c0.479,1.069,1.43,2.029,2.824,2.851l0.167,0.115
		c0.074,0.042,3.407,2.079,19.149,1.901c0.821,0.007,1.453,0.629,1.463,1.427c0.009,0.799-0.63,1.453-1.428,1.462
		C1618.206,905.159,1617.521,905.163,1616.86,905.163z M1640.668,878.513c0,0.001,0,0.001,0,0.002
		C1640.668,878.516,1640.668,878.515,1640.668,878.513z M1640.535,865.365c0,0.001,0,0.001,0,0.002
		C1640.535,865.366,1640.535,865.366,1640.535,865.365z"/>
	<path style="fill:#0E2549;" d="M1622.09,872.263c-1.287,0-2.368-1.002-2.448-2.305l-0.06-0.967
		c-0.084-1.354,0.945-2.518,2.299-2.602c1.346-0.082,2.518,0.945,2.602,2.299l0.061,0.967c0.083,1.354-0.946,2.518-2.3,2.602
		C1622.191,872.261,1622.141,872.263,1622.09,872.263z"/>
	<path style="fill:#0E2549;" d="M1600.504,872.583c-1.331,0-2.424-1.064-2.454-2.4l-0.025-1.143c-0.029-1.356,1.045-2.479,2.4-2.509
		c1.37-0.039,2.479,1.044,2.51,2.399l0.025,1.142c0.029,1.356-1.045,2.479-2.4,2.509
		C1600.541,872.583,1600.522,872.583,1600.504,872.583z"/>
	<path style="fill:#0E2549;" d="M1618.461,864.564c-0.742,0-1.454-0.421-1.786-1.137c-0.454-0.98-0.036-2.141,0.941-2.601
		c0.19-0.09,4.726-2.174,9.66-0.272c1.012,0.39,1.516,1.527,1.126,2.54c-0.391,1.013-1.529,1.516-2.54,1.126
		c-3.333-1.286-6.552,0.151-6.584,0.167C1619.014,864.507,1618.735,864.564,1618.461,864.564z"/>
	<path style="fill:#0E2549;" d="M1617.362,886.107c0.755,1.084-2.979,4.876-7.373,4.736c-7.17-0.229-9.45-5.113-7.714-4.787
		c0.682,0.128,3.299,1.574,7.591,1.628C1614.496,887.742,1616.856,885.38,1617.362,886.107z"/>
	<path style="fill:#0E2549;" d="M1609.584,883.179c-0.109,0-0.219-0.011-0.33-0.033c-1.413-0.286-4.752-1.205-5.218-3.567
		c-0.338-1.718-0.142-2.238,1.73-7.22c0.392-1.043,0.865-2.301,1.433-3.831c0.303-1.096,0.677-3.129,0.494-4.314
		c-1.021-0.911-6.487-1.668-9.396,0.114c-0.782,0.478-1.799,0.232-2.276-0.547s-0.233-1.798,0.546-2.276
		c3.282-2.011,8.798-1.946,11.888-0.623c1.398,0.599,2.222,1.432,2.446,2.477c0.507,2.361-0.426,5.755-0.534,6.134l-0.04,0.122
		c-0.58,1.564-1.063,2.847-1.461,3.908c-1.649,4.388-1.725,4.65-1.602,5.306c0.314,0.341,1.56,0.849,2.648,1.071
		c0.895,0.184,1.473,1.058,1.291,1.952C1611.043,882.637,1610.354,883.178,1609.584,883.179z"/>
	<path style="fill:#A1C5E2;" d="M1662.154,1135.62c0.282,0.196,0.604,0.29,0.925,0.29c0.515,0,1.022-0.245,1.338-0.701
		c0.512-0.738,0.328-1.751-0.411-2.263l-6.443-4.464h-0.001l-19.856-13.755c-0.736-0.512-1.751-0.329-2.263,0.411
		c-0.512,0.738-0.328,1.751,0.411,2.263l19.204,13.303l6.396,287.583c0.02,0.886,0.744,1.591,1.625,1.591
		c0.013,0,0.024-0.001,0.037-0.001c0.898-0.02,1.61-0.764,1.59-1.662l-6.345-285.222L1662.154,1135.62z"/>
	<path style="fill:#A1C5E2;" d="M1612.854,1208.646l-7.892-46.573l0.013-0.234c0.018-0.313-0.06-0.606-0.199-0.862l-1.921-11.34
		v-28.318c0-0.898-0.729-1.627-1.627-1.627s-1.627,0.729-1.627,1.627v28.592l2.093,12.351l-14.058,255.901
		c-0.05,0.896,0.638,1.664,1.535,1.713c0.03,0.002,0.061,0.003,0.091,0.003c0.857,0,1.574-0.671,1.622-1.538l13.271-241.561
		l5.492,32.41c0.135,0.794,0.822,1.355,1.602,1.355c0.09,0,0.182-0.008,0.273-0.023
		C1612.407,1210.371,1613.004,1209.532,1612.854,1208.646z"/>
	<path style="fill:#0E2549;" d="M1551.192,1195.246c-0.029,0-0.06,0-0.09-0.001c-1.141-0.041-2.112-0.44-3.916-4.464
		c-1.203-1.943-11.144-18.104-12.813-24.211c-1.079-3.944,1.055-19.09,1.535-22.362l6.872-125.345l30.648,10.243l-0.32,1.855
		c-7.54,43.646-18.77,109.888-18.806,113.487c0.009,1.749,3.386,6.837,5.62,10.204c3.81,5.739,5.777,8.843,5.358,11.173
		c-0.194,1.079-0.906,1.917-1.905,2.242c-0.848,0.273-2.961,0.962-11.044-6.225c-0.429,3.13-0.761,6.508-0.547,7.892
		c0.712,4.605,2.94,19.927,1.73,23.729C1553.169,1194.555,1552.263,1195.246,1551.192,1195.246z M1542.663,1158.165
		c1.171,0,2.143,0.927,2.188,2.107c0.041,1.052-0.04,2.063-0.125,3.135c-0.161,2.013-0.327,4.094,0.313,6.76
		c1.191,4.957,2.724,9.829,4.106,13.659c-0.35-3.797-0.935-8.51-1.693-13.421c-0.527-3.415,1.009-12.339,1.186-13.346l0.711-4.039
		l2.964,2.835c2.273,2.176,4.979,4.507,7.085,6.088c-0.952-1.588-2.169-3.42-3.128-4.865c-3.828-5.768-6.338-9.761-6.353-12.61
		c-0.023-4.532,15.544-94.974,18.55-112.396l-21.625-7.228l-6.567,119.805l-0.015,0.1c-1.064,7.211-2.282,18.39-1.659,20.666
		c0.313,1.146,1.019,2.802,1.951,4.724c-0.534-2.854-0.349-5.175-0.196-7.079c0.077-0.979,0.145-1.824,0.114-2.616
		c-0.047-1.21,0.896-2.229,2.105-2.275C1542.605,1158.166,1542.634,1158.165,1542.663,1158.165z"/>
	<path style="fill:#FFFFFF;" d="M1687.748,1192.456c0,0,10.989-17.671,12.665-23.8c1.024-3.745-1.604-21.564-1.604-21.564
		l-6.721-122.574l-26.136,8.735c0,0,18.862,109.194,18.838,113.868c-0.023,4.675-11.597,17.741-11.014,20.98
		s12.326-7.998,12.326-7.998s1.666,9.476,1.179,12.631c-0.893,5.769-2.764,19.725-1.809,22.729
		c0.725,2.277,5.879-11.133,8.519-22.119c1.072-4.46,0.139-7.496,0.247-10.322L1687.748,1192.456z"/>
	<path style="fill:#0E2549;" d="M1685.708,1197.91c-1.07,0-1.977-0.691-2.323-1.783c-1.21-3.801,1.019-19.122,1.73-23.728
		c0.214-1.385-0.117-4.763-0.546-7.893c-8.088,7.19-10.198,6.498-11.045,6.226c-0.999-0.325-1.711-1.163-1.905-2.242
		c-0.419-2.33,1.549-5.434,5.358-11.174c2.235-3.366,5.612-8.455,5.621-10.207c-0.036-3.594-11.267-69.836-18.807-113.483
		l-0.32-1.855l30.648-10.244l6.872,125.346c0.48,3.272,2.614,18.418,1.535,22.362c-1.671,6.113-11.63,22.301-12.816,24.217
		c-1.802,4.018-2.773,4.417-3.913,4.458C1685.768,1197.91,1685.737,1197.91,1685.708,1197.91z M1687.553,1155.682l0.71,4.042
		c0.177,1.006,1.712,9.931,1.185,13.346c-0.759,4.911-1.344,9.624-1.693,13.421c1.383-3.83,2.916-8.703,4.107-13.66
		c0.64-2.664,0.474-4.745,0.313-6.758c-0.086-1.071-0.167-2.084-0.126-3.136c0.047-1.211,1.065-2.152,2.275-2.105
		s2.152,1.065,2.105,2.275c-0.03,0.792,0.037,1.638,0.115,2.617c0.151,1.903,0.337,4.224-0.196,7.076
		c0.932-1.92,1.637-3.576,1.95-4.722c0.623-2.277-0.595-13.456-1.659-20.666l-0.02-0.2l-6.563-119.705l-21.625,7.229
		c3.006,17.422,18.573,107.863,18.551,112.396c-0.016,2.85-2.525,6.843-6.353,12.609c-0.96,1.446-2.177,3.279-3.13,4.867
		c2.107-1.581,4.813-3.913,7.087-6.09L1687.553,1155.682z"/>
	<polygon style="fill:#E2474B;" points="1649.93,986.295 1672.252,1144.628 1706.479,1144.628 1702.007,1013.405 	"/>
	<path style="fill:#0E2549;" d="M1706.479,1146.448h-35.834L1651.559,993c-0.124-0.997,0.584-1.906,1.581-2.03
		c1.01-0.13,1.906,0.585,2.03,1.581l18.69,150.257h32.619c1.005,0,1.82,0.815,1.82,1.82S1707.484,1146.448,1706.479,1146.448z"/>
	<path style="fill:#E2474B;" d="M1701.717,1016.717c2.309-5.476-9.699-57.563-16.176-63.208
		c-8.422-7.34-32.177-24.158-39.933-25.263c-1.881-0.268-0.888-13.949-5.516-14.136c-9-0.365-33.373,0.563-40.314,0.004
		c-3.379-0.272-2.756,12.863-2.756,12.863s-4.888,2.9-8.631,4.771c-6.403,3.202-11.921,7.361-16.676,11.901
		c0,0-14.28,12.498-21.665,29.766c-0.063,0.11-0.127,0.226-0.188,0.335l0.014,0.088c-4.531,10.735-8.324,25.108-9.792,44.566
		l-8.59,123.153h26.098l1.377-16.384h120.604l-10.528-87.641l2.204-13.9L1701.717,1016.717z"/>
	<path style="fill:#0E2549;" d="M1649.873,839.778c-2.588-3.273-7.804-4.346-9.16-4.576c-0.023-3.716-0.842-11.059-7.023-10.287
		c-8.239,1.03-9.012-7.981-16.735-6.952c-7.724,1.03-3.604,3.605-11.586,5.664c-7.981,2.06-11.844-2.914-14.161,3.95
		c-2.317,6.864-8.496,5.061-11.328,9.696c-2.832,4.635-2.034,10.061,1.827,11.863c3.862,1.802-2.159,5.459,0.931,9.321
		c3.09,3.862,16.295,3.533,18.611-2.131c2.317-5.664,3.56-9.526,8.474-9.784c4.915-0.257,10.837,2.575,14.184,1.545
		c3.03-0.933,7.064-4.218,9.14-4.07c0.294,1.955,1.164,6.983,2.677,9.681c1.902,3.395,4.938,5.953,3.851,10.706
		c-1.088,4.752,11.252-0.254,9.332-5.814C1644.95,847.135,1654.881,846.109,1649.873,839.778z"/>
</g>
<g>
	<path style="fill:#0E2549;" d="M1456.653,919.234c0,0-8.39-14.008,2.697-21.31c2.992-1.97,3.796-11.162,5.616-17.303
		c1.36-4.586,20.839-27.469,47.767-20.527c13.051,3.364,21.821,7.334,26.645,19.767c2.784,7.179,1.006,11.146,7.476,19.726
		c4.735,6.28,7.597,4.29,9.834,7.764c5.291,8.219,2.44,21.872-3.474,25.756c-5.914,3.884,4.344,9.845,0.001,17.45
		c-4.344,7.604-25.605,8.824-30.235-1.38s-7.771-4.415-15.706-4.212c-7.935,0.203-16.549,5.349-22.09,3.899
		c-5.541-1.45-6.476-6.747-13.427-8.396c-3.298-0.782-10.234,3.946-13.17,3.717C1455.65,943.956,1447.845,928.188,1456.653,919.234z
		"/>
	<polygon style="fill:#FFFFFF;" points="1444.355,1198.352 1453.837,1451.478 1475.188,1451.478 1487.771,1200.941 	"/>
	<path style="fill:#0E2549;" d="M1476.615,1452.978h-24.224l-0.054-1.444l-9.543-254.778l46.549,2.776l-0.074,1.484
		L1476.615,1452.978z M1455.282,1449.978h18.479l12.438-247.628l-40.283-2.403L1455.282,1449.978z"/>
	<path style="fill:#EAB7C2;" d="M1451.627,1442.322c0,0-34.287,9.155-34.287,16.588l0.403,6.549h56.917l0.869-17.222
		C1475.529,1448.237,1454.705,1451.887,1451.627,1442.322z"/>
	<path style="fill:#1B2746;" d="M1476.086,1466.958h-59.753l-0.49-7.956c-0.003-8.058,27.093-15.912,35.397-18.13l1.378-0.368
		l0.437,1.357c2.197,6.827,16.78,5.848,22.216,4.897l1.852-0.324L1476.086,1466.958z M1419.153,1463.958h54.081l0.705-13.976
		c-5.13,0.64-19.261,1.656-23.186-5.87c-15.588,4.285-31.914,11.021-31.914,14.798L1419.153,1463.958z"/>
	<rect x="1488.153" y="1462.211" style="fill:#0E2549;" width="60.915" height="3.379"/>
	<polygon style="fill:#FFFFFF;" points="1508.959,1201.065 1515.031,1452.421 1537.883,1452.847 1552.016,1196.124 	"/>
	<path style="fill:#0E2549;" d="M1539.302,1454.373l-25.735-0.479l-0.035-1.437l-6.104-252.726l46.185-5.301L1539.302,1454.373z
		 M1516.496,1450.948l19.97,0.372l13.954-253.503l-39.929,4.582L1516.496,1450.948z"/>
	<path style="fill:#EAB7C2;" d="M1515.47,1440.029c0,0-32.236,9.155-32.236,16.588l0.38,6.549h53.511l0.817-17.222
		C1537.941,1445.944,1518.363,1449.594,1515.47,1440.029z"/>
	<path style="fill:#1B2746;" d="M1538.556,1464.665h-56.357l-0.462-7.961c-0.003-8.24,27.759-16.538,33.323-18.119l1.419-0.402
		l0.427,1.411c2.051,6.778,15.682,5.818,20.762,4.875l1.861-0.346L1538.556,1464.665z M1485.028,1461.665h50.666l0.662-13.962
		c-4.93,0.641-18.066,1.59-21.775-5.857c-14.6,4.282-29.848,10.994-29.848,14.771L1485.028,1461.665z"/>
	<polygon style="fill:#FFFFFF;" points="1519.932,994.73 1518.429,967.313 1488.7,967.313 1479.982,999.239 	"/>
	<path style="fill:#FFFFFF;" d="M1519.119,920.609c0,0-1.416,34.78-0.088,36.61c4.545,6.263,18.011,11.774,21.084,12.602
		c3.073,0.828-50.257,21.168-50.257,21.168l-25.604-12.546l9.869-8.905c0,0,8.296-4.172,11.941-7.939
		c3.646-3.766,5.419-39.151,5.419-39.151L1519.119,920.609z"/>
	<path style="fill:#0E2549;" d="M1489.784,992.624l-28.18-13.809l11.665-10.525l0.181-0.091c0.08-0.041,8.113-4.104,11.538-7.642
		c2.037-2.104,4.141-21.065,4.998-38.183l0.066-1.333l30.633-2.042l-0.067,1.669c-0.641,15.726-0.953,33.465-0.289,35.783
		c4.234,5.676,16.746,10.996,20.176,11.92c0.716,0.192,1.2,0.775,1.236,1.483c0.071,1.418,0.111,2.2-26.1,12.676
		c-12.475,4.985-25.122,9.813-25.249,9.86L1489.784,992.624z M1466.905,978.073l23.027,11.283
		c15.739-6.011,39.565-15.419,46.979-19.06c-5.276-2.05-15.168-6.785-19.094-12.195c-1.059-1.458-1.146-13.527-0.264-35.884
		l-24.641,1.642c-0.442,8.199-2.157,35.055-5.769,38.785c-3.517,3.633-10.875,7.482-12.163,8.142L1466.905,978.073z"/>
	<path style="fill:#FFFFFF;" d="M1518.686,926.29c4.087-2.711,11.259-8.197,11.451-13.55c0.192-5.354-5.913-4.728-7.777-3.881
		c-1.241,0.563,0.025-26.212,0.025-26.212l-41.431-2.218c0,0-6.139,23.02-4.657,37.802c1.488,14.844,8.294,18.684,19.095,19.167
		c5.351,0.239,9.553-0.92,12.88-2.618L1518.686,926.29z"/>
	<path style="fill:#0E2549;" d="M1496.753,938.927c-0.473,0-0.948-0.011-1.428-0.033c-13.174-0.589-19.119-6.533-20.52-20.516
		c-1.493-14.884,4.445-37.388,4.699-38.339l0.313-1.176l44.135,2.363l-0.07,1.488c-0.463,9.799-0.723,20.578-0.468,24.272
		c1.726-0.338,4.123-0.355,5.961,0.877c1.086,0.727,2.358,2.172,2.26,4.928c-0.204,5.678-6.704,11.153-12.121,14.747
		c-0.689,0.456-1.621,0.271-2.079-0.421c-0.458-0.69-0.27-1.621,0.421-2.079c6.729-4.465,10.659-8.968,10.781-12.354
		c0.054-1.491-0.506-2.043-0.931-2.328c-1.333-0.892-3.786-0.561-4.728-0.134l-0.767,0.348l-0.783-0.479
		c-0.781-0.53-1.75-1.187-0.612-26.028l-38.713-2.072c-1.203,4.854-5.563,23.629-4.314,36.088
		c1.428,14.243,7.818,17.378,17.669,17.819c4.461,0.191,8.547-0.628,12.131-2.456c0.736-0.377,1.642-0.084,2.018,0.654
		c0.377,0.737,0.084,1.642-0.654,2.018C1505.291,937.983,1501.192,938.927,1496.753,938.927z"/>
	<path style="fill:#0E2549;" d="M1461.452,1066.925l-45.041,129.454c0,0,13.213,13.927,20.531,14.636
		c12.167,1.18,31.631-1.008,42.22-3.149c6.982-1.412,39.774,5.068,52.078,4.316c32.055-1.958,42.936-15.803,42.936-15.803
		l-29.736-108.85l-5.409-18.742L1461.452,1066.925z"/>
	<path style="fill:#A1C5E2;" d="M1533.036,1213.809c-0.853,0-1.569-0.665-1.621-1.527c-0.056-0.897,0.627-1.668,1.523-1.723
		c27.209-1.662,38.759-12.022,41.233-14.604l-29.503-107.997l-5.402-18.721c-0.249-0.863,0.248-1.765,1.111-2.014
		c0.861-0.251,1.766,0.249,2.014,1.111l5.409,18.743l29.958,109.662l-0.506,0.644c-0.463,0.589-11.705,14.441-44.115,16.421
		C1533.104,1213.808,1533.07,1213.809,1533.036,1213.809z"/>
	<path style="fill:#A1C5E2;" d="M1455.109,1100.134c-0.439,0-0.877-0.178-1.198-0.526c-0.607-0.662-0.563-1.69,0.098-2.299l17.42-16
		c0.661-0.605,1.69-0.563,2.299,0.098c0.607,0.662,0.563,1.69-0.098,2.299l-17.42,16
		C1455.897,1099.991,1455.503,1100.134,1455.109,1100.134z"/>
	<path style="fill:#EAB7C2;" d="M1442.176,974.732c-18.142,18.044-10.551,161.96-10.551,161.96l23.484,0.676l5.771-69.038
		l78.149,0.458l0.182,75.821h22.571c0,0,21.056-147.544-0.397-169.589c-7.264-7.464-17.601-8.425-21.143-8.431
		c-10.661-0.016-30.413,3.706-69.312-1.948C1464.574,963.716,1445.859,971.068,1442.176,974.732z"/>
	<path style="fill:#1B2746;" d="M1563.084,1146.108h-25.368l-0.181-75.831l-75.275-0.44l-5.774,69.069l-26.285-0.756l-0.073-1.381
		c-0.312-5.903-7.414-144.795,10.991-163.102l0,0c3.887-3.865,23.104-11.524,30.029-10.513c29.87,4.341,48.1,3.145,60.165,2.354
		c3.462-0.229,6.486-0.431,8.933-0.42c2.27,0.003,14.006,0.446,22.216,8.884c21.718,22.317,1.671,164.793,0.808,170.848
		L1563.084,1146.108z M1540.708,1143.108h19.769c1.996-14.56,19.487-146.847-0.166-167.044c-7.371-7.575-18.012-7.973-20.069-7.976
		c-2.396-0.034-5.324,0.188-8.732,0.413c-12.188,0.801-30.61,2.011-60.793-2.378c-5.885-0.863-24.251,6.458-27.482,9.671
		c-16.535,16.446-10.89,144.637-10.179,159.436l20.679,0.596l5.769-69.005l81.025,0.474L1540.708,1143.108z"/>
	<path style="fill:#FFFFFF;" d="M1557.791,1167.155c0.809-2.956-2.444-17.361-2.444-17.361l0.765-5.186h-10.94
		c0,0,0.31,1.862,0.291,5.552s-9.152,14.001-8.692,16.558c0.46,2.556,9.729-6.313,9.729-6.313s1.314,7.479,0.93,9.969
		c-0.521,3.362-1.064,11.067-1.01,15.819c0.013,1.099,1.476,1.461,1.993,0.492
		C1551.259,1181.354,1556.815,1170.724,1557.791,1167.155z"/>
	<path style="fill:#0E2549;" d="M1547.499,1188.749c-0.206,0-0.416-0.025-0.626-0.076c-1.155-0.282-1.94-1.271-1.954-2.462
		c-0.058-4.94,0.504-12.693,1.026-16.067c0.182-1.177-0.122-4.121-0.49-6.722c-6.555,5.893-8.229,5.344-8.813,5.152
		c-0.706-0.229-1.21-0.825-1.349-1.592c-0.314-1.751,1.222-4.17,4.194-8.648c1.886-2.841,4.468-6.73,4.475-8.182
		c0.018-3.482-0.269-5.283-0.271-5.301l-0.282-1.74l14.441-0.003l-0.979,6.629c0.671,2.998,3.202,14.76,2.367,17.813
		c-1,3.656-6.384,14-9.504,19.841C1549.277,1188.248,1548.425,1188.749,1547.499,1188.749z M1547.489,1157.381l0.486,2.765
		c0.139,0.791,1.346,7.8,0.935,10.457c-0.437,2.819-0.918,9.119-0.986,13.806c4.733-8.931,7.783-15.318,8.42-17.648l0,0
		c0.49-1.79-1.144-10.806-2.46-16.636l-0.062-0.272l0.553-3.743h-7.539c0.072,0.961,0.135,2.315,0.126,4.06
		c-0.011,2.184-1.977,5.309-4.975,9.825c-0.956,1.439-2.227,3.354-3.012,4.779c1.747-1.203,4.346-3.404,6.485-5.451
		L1547.489,1157.381z"/>
	<path style="fill:#FFFFFF;" d="M1435.048,1159.189c-0.808-2.955,2.444-17.361,2.444-17.361l-0.522-5.005l10.737,0.331
		c0,0-0.349,1.352-0.33,5.04c0.02,3.689,9.152,14.001,8.692,16.558s-9.728-6.313-9.728-6.313s-1.314,7.479-0.93,9.969
		c0.52,3.362,1.063,11.066,1.009,15.819c-0.013,1.099-1.476,1.461-1.993,0.492
		C1441.58,1173.389,1436.023,1162.758,1435.048,1159.189z"/>
	<path style="fill:#0E2549;" d="M1445.341,1180.783c-0.926,0-1.779-0.501-2.236-1.358c-3.12-5.84-8.504-16.184-9.504-19.84l0,0
		c-0.837-3.064,1.715-14.9,2.374-17.846l-0.675-6.468l14.33,0.44l-0.47,1.817l0,0c0,0-0.3,1.301-0.283,4.657
		c0.008,1.451,2.589,5.341,4.475,8.181c2.889,4.354,4.509,6.902,4.194,8.65c-0.139,0.767-0.643,1.362-1.349,1.592
		c-0.586,0.188-2.265,0.733-8.813-5.153c-0.368,2.602-0.672,5.546-0.49,6.722c0.521,3.375,1.083,11.128,1.026,16.067
		c-0.014,1.19-0.8,2.18-1.955,2.462C1445.757,1180.758,1445.547,1180.783,1445.341,1180.783z M1436.495,1158.794
		c0.637,2.33,3.688,8.72,8.421,17.649c-0.069-4.686-0.551-10.987-0.986-13.808c-0.411-2.656,0.796-9.665,0.935-10.456l0.486-2.765
		l2.028,1.94c2.147,2.054,4.756,4.263,6.503,5.464c-0.786-1.411-2.068-3.343-3.03-4.793c-2.997-4.516-4.963-7.64-4.975-9.824
		c-0.008-1.574,0.05-2.752,0.122-3.601l-7.359-0.227l0.37,3.543l-0.055,0.24C1437.64,1147.989,1436.006,1157.005,1436.495,1158.794
		L1436.495,1158.794z"/>
	<path style="fill:#0E2549;" d="M1485.254,908.738c-0.108,0-0.218-0.007-0.328-0.021c-1.369-0.18-2.333-1.435-2.153-2.805
		l0.177-1.346c0.18-1.369,1.434-2.332,2.804-2.153c1.369,0.18,2.333,1.435,2.153,2.804l-0.177,1.346
		C1487.564,907.822,1486.49,908.738,1485.254,908.738z"/>
	<path style="fill:#0E2549;" d="M1503.671,909.544c-0.109,0-0.219-0.007-0.33-0.022c-1.369-0.18-2.332-1.437-2.151-2.805
		l0.178-1.347c0.181-1.369,1.438-2.329,2.806-2.151c1.369,0.18,2.332,1.437,2.151,2.805l-0.178,1.346
		C1505.98,908.629,1504.906,909.544,1503.671,909.544z"/>
	<path style="fill:#0E2549;" d="M1509.829,903.064c-0.271,0-0.544-0.073-0.79-0.226c-3.051-1.894-6.398-1.063-6.435-1.054
		c-0.798,0.204-1.62-0.276-1.826-1.078c-0.207-0.802,0.275-1.62,1.078-1.827c0.186-0.048,4.634-1.153,8.765,1.411
		c0.704,0.436,0.92,1.361,0.483,2.065C1510.82,902.813,1510.33,903.064,1509.829,903.064z"/>
	<path style="fill:#0E2549;" d="M1491.308,917.317c-0.125,0-0.251-0.016-0.377-0.047c-0.941-0.24-5.242-2.44-4.976-5.504
		c0.102-1.181,0.723-2.004,1.322-2.801c0.516-0.685,1.1-1.46,1.557-2.69c1.205-3.246,0.966-4.204,0.863-4.42
		c-0.073-0.157-0.336-0.262-0.876-0.449l-0.371-0.132c-1.438-0.533-4.736-0.11-6.477,0.282c-0.809,0.186-1.611-0.324-1.794-1.132
		c-0.183-0.808,0.324-1.611,1.132-1.794c0.549-0.125,5.446-1.185,8.184-0.169l0.308,0.109c0.792,0.274,1.987,0.688,2.607,2.004
		c0.674,1.426,0.438,3.507-0.764,6.744c-0.609,1.642-1.397,2.688-1.973,3.451c-0.462,0.612-0.703,0.947-0.73,1.255
		c-0.056,0.648,1.911,2.055,2.773,2.351c0.802,0.205,1.265,1.016,1.061,1.818C1492.604,916.87,1491.98,917.317,1491.308,917.317z"/>
	<polygon style="fill:#EAB7C2;" points="1539.089,967.635 1525.829,956.524 1497.222,966.991 1505.884,978.102 	"/>
	<path style="fill:#1B2746;" d="M1505.341,979.846l-10.568-13.556l31.355-11.473l16.021,13.425L1505.341,979.846z M1499.671,967.692
		l6.756,8.665l29.602-9.33l-10.498-8.796L1499.671,967.692z"/>
	<polygon style="fill:#EAB7C2;" points="1466.063,966.267 1475.932,956.524 1497.222,966.991 1488.715,976.653 	"/>
	<path style="fill:#1B2746;" d="M1489.104,978.481l-25.64-11.756l12.173-12.017l24.007,11.803L1489.104,978.481z M1468.663,965.809
		l19.663,9.016l6.474-7.353l-18.573-9.131L1468.663,965.809z"/>
	<path style="fill:#0E2549;" d="M1539.202,1091.354c-0.016,0-0.032,0-0.048,0c-0.872-0.026-1.558-0.754-1.532-1.626l2.084-69.816
		c0.027-0.872,0.752-1.543,1.626-1.532c0.872,0.026,1.558,0.754,1.532,1.626l-2.084,69.816
		C1540.754,1090.679,1540.053,1091.354,1539.202,1091.354z"/>
	<path style="fill:#0E2549;" d="M1484.869,919.666c-0.676,0.747,2.556,6.786,5.406,6.788c7.167,0.006,9.641-8.104,8.027-7.302
		c-0.608,0.303-4.225,1.923-7.771,1.663C1485.984,920.481,1485.636,918.818,1484.869,919.666z"/>
	<path style="fill:#0E2549;" d="M1495.687,1069.246c-0.007,0-0.015,0-0.022,0c-0.829-0.013-1.49-0.694-1.478-1.522l1.503-98.955
		c0.013-0.821,0.682-1.478,1.5-1.478c0.007,0,0.015,0,0.022,0c0.829,0.013,1.49,0.694,1.478,1.522l-1.503,98.955
		C1497.174,1068.59,1496.505,1069.246,1495.687,1069.246z"/>
	<path style="fill:#0E2549;" d="M1477.426,880.427c0,0,37.74,10.797,44.381,29.322c0,0,2.391-0.957,4.07-0.754
		c2.166,0.261,2.905,1.023,2.905,1.023l-1.155-30.745L1477.426,880.427z"/>
	<path style="fill:#0E2549;" d="M1561.783,1146.108h-24.071l-0.011-56.333c0-0.828,0.671-1.5,1.5-1.5c0.828,0,1.5,0.671,1.5,1.5
		l0.011,53.333h21.071c0.828,0,1.5,0.672,1.5,1.5S1562.611,1146.108,1561.783,1146.108z"/>
	<path style="fill:#A1C5E2;" d="M1534.035,1100.134c-0.333,0-0.669-0.103-0.958-0.313l-21.908-16
		c-0.726-0.529-0.885-1.547-0.354-2.272c0.53-0.728,1.548-0.882,2.272-0.354l21.908,16c0.726,0.529,0.885,1.547,0.354,2.272
		C1535.031,1099.902,1534.536,1100.134,1534.035,1100.134z"/>
	<path style="fill:#1B2746;" d="M1460.882,1069.829c-0.03,0-0.062-0.001-0.093-0.003c-0.826-0.051-1.456-0.762-1.405-1.589
		l3.177-52.01c0.051-0.825,0.742-1.448,1.589-1.405c0.826,0.051,1.456,0.762,1.405,1.589l-3.177,52.01
		C1462.329,1069.216,1461.669,1069.829,1460.882,1069.829z"/>
</g>
<g>
	<path style="fill:#0E2549;" d="M1324.999,851.765H995.705c-10.526,0-19.059-8.533-19.059-19.058l0,0
		c0-10.526,8.533-19.059,19.059-19.059h329.294c10.526,0,19.06,8.533,19.06,19.059l0,0
		C1344.059,843.232,1335.525,851.765,1324.999,851.765z"/>
	<path style="fill:#F9E5EF;" d="M1383.588,603.294c0-34.604-25.41-63.273-58.589-68.37v-0.807h-10.588h-230.118h-23.646
		c-37.23,0-67.412,30.181-67.412,67.412v231.177h331.765V654.824h58.589V603.294z"/>
	<path style="fill:#1B2746;" d="M1326.499,834.206H991.734V601.529c0-37.998,30.914-68.912,68.912-68.912h265.853v1.031
		c16.014,2.764,30.664,11.045,41.371,23.413c11.103,12.827,17.218,29.246,17.218,46.232v53.029h-58.589V834.206z M994.734,831.206
		h328.765V653.323h58.589v-50.029c0-33.112-24.641-61.868-57.316-66.888l-1.272-0.195v-0.593h-262.853
		c-36.344,0-65.912,29.568-65.912,65.912V831.206z"/>
	<path style="fill:#1B2746;" d="M1301.94,656.323H1103.97v-67.301c0-25.815-22.199-46.816-49.486-46.816c-0.828,0-1.5-0.672-1.5-1.5
		c0-0.829,0.672-1.5,1.5-1.5c28.941,0,52.486,22.348,52.486,49.816v64.301h194.971c0.828,0,1.5,0.672,1.5,1.5
		C1303.44,655.652,1302.769,656.323,1301.94,656.323z"/>
	<path style="fill:#0E2549;" d="M1050.365,779.116c0-11.895-20.606-10.53-20.606-17.681c0-3.25,2.73-5.33,7.087-5.33
		c4.289,0,6.631,1.366,9.555,3.705l2.861-3.185c-2.623-2.564-5.625-4.54-10.336-4.925v-8.531h-3.9v8.579
		c-6.291,0.688-10.596,4.331-10.596,9.817c0,11.311,20.605,9.881,20.605,17.941c0,3.315-2.729,5.59-7.8,5.59
		c-4.876,0-8.841-2.015-12.091-4.419l-2.535,3.769c2.992,2.523,7.624,4.656,12.416,5.053v9.443h3.9v-9.493
		C1045.816,788.716,1050.365,784.74,1050.365,779.116z"/>
	<path style="fill:#0E2549;" d="M1089.543,779.116c0-11.895-20.607-10.53-20.607-17.681c0-3.25,2.73-5.33,7.086-5.33
		c4.291,0,6.63,1.366,9.555,3.705l2.861-3.185c-2.622-2.563-5.624-4.54-10.336-4.925v-8.531h-3.9v8.579
		c-6.29,0.688-10.596,4.331-10.596,9.817c0,11.311,20.607,9.881,20.607,17.941c0,3.315-2.73,5.59-7.801,5.59
		c-4.875,0-8.841-2.015-12.092-4.419l-2.533,3.769c2.99,2.523,7.623,4.657,12.414,5.053v9.443h3.9v-9.493
		C1084.994,788.716,1089.543,784.74,1089.543,779.116z"/>
	<path style="fill:#0E2549;" d="M1128.365,779.116c0-11.896-20.606-10.53-20.606-17.681c0-3.25,2.73-5.331,7.087-5.331
		c4.289,0,6.631,1.366,9.555,3.706l2.861-3.185c-2.623-2.564-5.625-4.54-10.336-4.925v-8.531h-3.9v8.578
		c-6.291,0.688-10.596,4.331-10.596,9.817c0,11.31,20.605,9.881,20.605,17.941c0,3.315-2.729,5.589-7.8,5.589
		c-4.876,0-8.841-2.014-12.091-4.42l-2.535,3.77c2.992,2.523,7.624,4.656,12.416,5.053v9.443h3.9v-9.493
		C1123.816,788.716,1128.365,784.74,1128.365,779.116z"/>
	<path style="fill:#1B2746;" d="M1310.176,724.088h-297.529c-0.828,0-1.5-0.671-1.5-1.5s0.672-1.5,1.5-1.5h297.529
		c0.828,0,1.5,0.671,1.5,1.5S1311.004,724.088,1310.176,724.088z"/>
	<path style="fill:#0E2549;" d="M1021.477,674.099h6.223l5.613,17.081l1.951,6.466h0.244l1.891-6.466l5.674-17.081h6.223v40.019
		h-4.881v-20.009c0-3.904,0.611-10.737,0.855-14.154h-0.185l-2.257,7.809l-5.734,15.74h-3.66l-5.612-15.74l-2.317-7.809h-0.123
		c0.366,3.417,0.854,10.25,0.854,14.154v20.009h-4.758V674.099z"/>
	<path style="fill:#0E2549;" d="M1056.613,693.925c0-12.933,6.343-20.559,15.372-20.559c9.028,0,15.374,7.626,15.374,20.559
		c0,13.116-6.346,20.924-15.374,20.924C1062.956,714.85,1056.613,707.041,1056.613,693.925z M1082.051,693.925
		c0-10.066-4.025-16.045-10.065-16.045s-10.065,5.979-10.065,16.045c0,10.249,4.025,16.41,10.065,16.41
		S1082.051,704.174,1082.051,693.925z"/>
	<path style="fill:#0E2549;" d="M1124.02,714.117l-10.164-17.48c5.413-1.338,9.004-5.034,9.004-11.253
		c0-8.357-5.917-11.285-14.029-11.285h-12.508v40.019h5.186v-16.898h7.084l9.633,16.898H1124.02z M1101.508,678.247h6.589
		c6.224,0,9.639,1.891,9.639,7.137c0,5.125-3.415,7.688-9.639,7.688h-6.589V678.247z"/>
	<path style="fill:#0E2549;" d="M1142.621,678.43h-13.238v-4.331h31.602v4.331h-13.238v35.688h-5.125V678.43z"/>
	<path style="fill:#0E2549;" d="M1166.715,694.108c0-12.933,7.382-20.742,17.752-20.742c5.309,0,8.785,2.501,11.042,4.88
		l-2.928,3.233c-1.892-2.013-4.271-3.599-8.114-3.599c-7.503,0-12.383,6.162-12.383,16.106c0,10.065,4.453,16.349,12.262,16.349
		c2.806,0,5.43-0.854,6.893-2.318v-10.432h-7.93v-4.21h12.688v16.837c-2.501,2.563-6.771,4.637-11.956,4.637
		C1173.975,714.85,1166.715,707.163,1166.715,694.108z"/>
	<path style="fill:#0E2549;" d="M1229.303,714.117h5.49l-13.482-40.019h-5.855l-13.482,40.019h5.246l3.815-12.14h14.521
		L1229.303,714.117z M1212.337,697.83l1.897-6.04c1.404-4.454,2.684-8.846,3.965-13.482h0.244c1.22,4.637,2.563,9.028,3.966,13.482
		l1.865,6.04H1212.337z"/>
	<path style="fill:#0E2549;" d="M1239.914,694.108c0-12.933,7.383-20.742,17.752-20.742c5.309,0,8.785,2.501,11.043,4.88
		l-2.929,3.233c-1.892-2.013-4.271-3.599-8.114-3.599c-7.503,0-12.383,6.162-12.383,16.106c0,10.065,4.452,16.349,12.261,16.349
		c2.808,0,5.431-0.854,6.895-2.318v-10.432h-7.931v-4.21h12.688v16.837c-2.501,2.563-6.771,4.637-11.957,4.637
		C1247.174,714.85,1239.914,707.163,1239.914,694.108z"/>
	<path style="fill:#0E2549;" d="M1280.234,674.099h24.77v4.331h-19.645v12.506h16.593v4.332h-16.593v14.519h20.254v4.331h-25.379
		V674.099z"/>
</g>
<g>
	<path style="fill:#F9E8F2;" d="M1753.08,1318.732c0,18.323-14.854,33.177-33.177,33.177c-18.322,0-33.176-14.854-33.176-33.177
		c0-18.322,14.854-33.176,33.176-33.176C1738.227,1285.557,1753.08,1300.41,1753.08,1318.732z"/>
	<path style="fill:#F9E8F2;" d="M1860.283,1432.471c0,18.322-14.854,33.177-33.176,33.177c-18.323,0-33.177-14.854-33.177-33.177
		c0-18.323,14.854-33.177,33.177-33.177C1845.43,1399.294,1860.283,1414.147,1860.283,1432.471z"/>
	
		<rect x="1658.46" y="1364.368" transform="matrix(0.7071 -0.7071 0.7071 0.7071 -452.0254 1658.6272)" style="fill:#F9E8F2;" width="235.335" height="21.177"/>
</g>
<path style="fill:#F9E8F2;" d="M287.539,1353.013c0-66.796-115.707-59.131-115.707-99.282c0-18.25,15.33-29.93,39.785-29.93
	c24.091,0,37.231,7.665,53.656,20.805l16.06-17.885c-14.737-14.41-31.539-25.58-58.036-27.726v-47.831h-21.9v48.122
	c-35.337,3.854-59.496,24.354-59.496,55.175c0,63.511,115.706,55.48,115.706,100.741c0,18.615-15.33,31.391-43.8,31.391
	c-27.375,0-49.641-11.315-67.891-24.82l-14.235,21.17c16.797,14.162,42.807,26.241,69.716,28.466v52.931h21.9v-53.247
	C262.021,1406.987,287.539,1384.602,287.539,1353.013z"/>
<path style="fill:#1B2746;" d="M1866.818,1467.382H151.823c-0.829,0-1.5-0.672-1.5-1.5s0.671-1.5,1.5-1.5h1714.995
	c0.828,0,1.5,0.672,1.5,1.5S1867.646,1467.382,1866.818,1467.382z"/>
</svg>
