<?xml version="1.0" encoding="UTF-8" standalone="no"?>
<!-- Generator: Adobe Illustrator 27.5.0, SVG Export Plug-In . SVG Version: 6.00 Build 0)  -->

<svg
   version="1.1"
   id="Слой"
   x="0px"
   y="0px"
   viewBox="0 0 300 300"
   xml:space="preserve"
   sodipodi:docname="7416539_4776.svg"
   width="300"
   height="300"
   inkscape:export-filename="offer.svg"
   inkscape:export-xdpi="96"
   inkscape:export-ydpi="96"
   inkscape:version="1.3 (1:1.3+202307231459+0e150ed6c4)"
   xmlns:inkscape="http://www.inkscape.org/namespaces/inkscape"
   xmlns:sodipodi="http://sodipodi.sourceforge.net/DTD/sodipodi-0.dtd"
   xmlns="http://www.w3.org/2000/svg"
   xmlns:svg="http://www.w3.org/2000/svg"><defs
   id="defs164" /><sodipodi:namedview
   id="namedview164"
   pagecolor="#ffffff"
   bordercolor="#000000"
   borderopacity="0.25"
   inkscape:showpageshadow="2"
   inkscape:pageopacity="0.0"
   inkscape:pagecheckerboard="0"
   inkscape:deskcolor="#d1d1d1"
   inkscape:zoom="0.228"
   inkscape:cx="997.80702"
   inkscape:cy="298.24561"
   inkscape:window-width="1280"
   inkscape:window-height="656"
   inkscape:window-x="0"
   inkscape:window-y="27"
   inkscape:window-maximized="1"
   inkscape:current-layer="Слой" />&#10;&#10;&#10;&#10;&#10;&#10;&#10;&#10;&#10;&#10;&#10;&#10;&#10;<rect
   style="fill:#ffffff;stroke:#f37946;stroke-width:15.1181"
   id="rect164"
   width="690.69586"
   height="546.36078"
   x="-93.96981"
   y="-84.689087" /><g
   id="g164"
   transform="matrix(0.17274767,0,0,0.17274767,-22.747584,-22.747584)"><g
     id="g4">&#10;	&#10;		<rect
   x="473.29901"
   y="1063.099"
   transform="matrix(0.9757,-0.2192,0.2192,0.9757,-249.8624,149.0483)"
   style="fill:#f9e8f2"
   width="146.718"
   height="274.534"
   id="rect2" />&#10;	<path
   style="fill:#0e2549"
   d="m 453.081,1125.369 -9.883,-43.983 43.253,-9.718 0.329,1.463 c 2.517,11.201 0.56,22.796 -5.508,32.649 -6.11,9.921 -15.602,16.761 -26.728,19.261 z m -6.298,-41.714 8.561,38.102 c 9.701,-2.573 17.96,-8.761 23.373,-17.55 5.391,-8.753 7.3,-18.977 5.438,-28.949 z"
   id="path2" />&#10;	<path
   style="fill:#0e2549"
   d="m 495.149,1092.095 c -0.686,0 -1.305,-0.474 -1.462,-1.171 -0.182,-0.809 0.326,-1.611 1.135,-1.793 l 48.302,-10.854 c 0.807,-0.178 1.611,0.327 1.792,1.135 0.182,0.809 -0.326,1.611 -1.135,1.793 l -48.302,10.854 c -0.11,0.024 -0.221,0.036 -0.33,0.036 z"
   id="path3" />&#10;	<path
   style="fill:#0e2549"
   d="m 508.756,1293.613 c -0.686,0 -1.305,-0.474 -1.462,-1.171 l -35.816,-159.396 c -0.182,-0.809 0.326,-1.611 1.135,-1.793 0.805,-0.176 1.61,0.327 1.792,1.135 l 35.816,159.396 c 0.182,0.809 -0.326,1.611 -1.135,1.793 -0.11,0.025 -0.221,0.036 -0.33,0.036 z"
   id="path4" />&#10;</g><g
     id="g11">&#10;	&#10;		<rect
   x="456.53601"
   y="1170.292"
   transform="matrix(0.7956,-0.6058,0.6058,0.7956,-683.814,588.2466)"
   style="fill:#f9e8f2"
   width="146.718"
   height="274.534"
   id="rect4" />&#10;	<path
   style="fill:#0e2549"
   d="m 504.608,1197.447 c -1.865,0 -3.737,-0.113 -5.605,-0.343 -11.903,-1.466 -22.262,-7.271 -29.17,-16.344 l -0.909,-1.193 36.464,-27.765 27.309,35.868 -1.193,0.908 c -7.557,5.756 -17.123,8.869 -26.896,8.869 z m -31.456,-17.328 c 6.398,7.751 15.65,12.706 26.218,14.008 10.365,1.273 20.886,-1.287 29.106,-7.05 l -23.657,-31.069 z"
   id="path5" />&#10;	<path
   style="fill:#0e2549"
   d="m 413.581,1278.369 -27.31,-35.867 35.271,-26.855 0.909,1.193 c 6.955,9.134 10.007,20.489 8.596,31.976 -1.421,11.564 -7.2,21.737 -16.272,28.645 z m -23.106,-35.297 23.658,31.069 c 7.747,-6.381 12.677,-15.446 13.936,-25.691 1.254,-10.203 -1.27,-20.293 -7.118,-28.583 z"
   id="path6" />&#10;	<path
   style="fill:#0e2549"
   d="m 437.337,1230.728 c -0.452,0 -0.899,-0.204 -1.194,-0.592 -0.502,-0.658 -0.374,-1.6 0.285,-2.102 l 39.388,-29.99 c 0.659,-0.503 1.6,-0.374 2.102,0.285 0.502,0.658 0.375,1.6 -0.285,2.102 l -39.388,29.99 c -0.272,0.207 -0.591,0.307 -0.908,0.307 z"
   id="path7" />&#10;	<path
   style="fill:#0e2549"
   d="m 624.088,1338.557 c -0.452,0 -0.899,-0.204 -1.194,-0.591 l -98.969,-129.979 c -0.502,-0.659 -0.375,-1.601 0.285,-2.103 0.659,-0.503 1.6,-0.373 2.102,0.284 l 98.969,129.979 c 0.502,0.659 0.375,1.601 -0.285,2.103 -0.271,0.207 -0.591,0.307 -0.908,0.307 z"
   id="path8" />&#10;	<path
   style="fill:#0e2549"
   d="m 533.667,1408.255 c -0.452,0 -0.899,-0.204 -1.194,-0.591 l -98.969,-129.98 c -0.502,-0.659 -0.375,-1.601 0.285,-2.103 0.659,-0.503 1.601,-0.373 2.102,0.284 l 98.969,129.98 c 0.502,0.659 0.375,1.601 -0.285,2.103 -0.272,0.207 -0.592,0.307 -0.908,0.307 z"
   id="path9" />&#10;	<path
   style="fill:#eab7c2"
   d="m 547.245,1336.926 c -16.48,12.548 -38.14,11.818 -48.379,-1.629 -10.239,-13.447 -5.18,-34.521 11.3,-47.069 16.48,-12.548 38.14,-11.818 48.379,1.629 10.239,13.447 5.18,34.521 -11.3,47.069 z"
   id="path10" />&#10;	<path
   style="fill:#0e2549"
   d="m 551.622,1295.127 c -0.502,-0.657 -1.443,-0.787 -2.102,-0.284 l -3.336,2.541 c -5.575,-6.316 -11.987,-6.184 -16.381,-2.838 -4.879,3.715 -5.082,8.521 -1.79,16.674 l -15.755,11.996 c -2.871,-4.729 -2.54,-9.072 0.26,-12.998 0.456,-0.638 0.447,-1.498 -0.028,-2.122 v 0 c -0.721,-0.946 -2.152,-0.947 -2.865,0 -3.047,4.068 -4.396,9.949 0.166,16.995 l -4.729,3.601 c -0.659,0.502 -0.787,1.443 -0.285,2.103 0.295,0.387 0.742,0.591 1.194,0.591 0.317,0 0.636,-0.1 0.908,-0.307 l 4.692,-3.572 c 6.135,7.464 13.245,7.702 18.308,3.847 4.236,-3.226 7.108,-7.722 2.143,-19.419 l 13.436,-10.23 c 2.926,4.538 2.456,8.383 0.17,11.615 -0.458,0.646 -0.458,1.512 0.023,2.143 0.721,0.946 2.165,0.964 2.869,0 2.749,-3.743 3.752,-9.397 -0.504,-15.71 l 3.322,-2.53 c 0.658,-0.504 0.785,-1.446 0.284,-2.105 z m -19.422,2.252 c 3.646,-2.777 7.759,-2.164 11.438,1.942 l -12.792,9.74 c -2.304,-6.02 -2.096,-9.055 1.354,-11.682 z m -4.771,31.184 c -3.723,2.834 -8.639,2.907 -13.424,-2.907 l 15.193,-11.569 c 3.238,8.161 2.014,11.595 -1.769,14.476 z"
   id="path11" />&#10;</g><g
     id="g15">&#10;	&#10;		<rect
   x="1361.269"
   y="867.44202"
   transform="matrix(0.6106,-0.792,0.792,0.6106,-161.4899,1553.198)"
   style="fill:#f9e8f2"
   width="274.534"
   height="146.718"
   id="rect11" />&#10;	<path
   style="fill:#0e2549"
   d="m 1523.296,830.514 c -9.328,0 -18.263,-2.999 -25.658,-8.7 l -1.188,-0.916 27.523,-35.702 35.109,27.067 -0.916,1.188 c -7.009,9.091 -17.179,14.994 -28.637,16.62 -2.088,0.296 -4.17,0.443 -6.233,0.443 z m -22.621,-10.183 c 8.177,5.82 18.213,8.221 28.435,6.769 10.178,-1.445 19.263,-6.507 25.745,-14.311 l -30.336,-23.386 z"
   id="path12" />&#10;	<path
   style="fill:#0e2549"
   d="m 1589.287,862.773 c -0.32,0 -0.642,-0.102 -0.915,-0.312 l -39.208,-30.227 c -0.656,-0.506 -0.777,-1.447 -0.271,-2.104 0.505,-0.656 1.446,-0.778 2.104,-0.272 l 39.208,30.226 c 0.656,0.506 0.777,1.448 0.271,2.104 -0.295,0.384 -0.74,0.585 -1.189,0.585 z"
   id="path13" />&#10;	<path
   style="fill:#0e2549"
   d="m 1494.566,1040.925 c -0.32,0 -0.642,-0.102 -0.915,-0.313 -0.656,-0.505 -0.777,-1.447 -0.271,-2.104 l 99.745,-129.386 c 0.506,-0.656 1.447,-0.777 2.104,-0.272 0.656,0.506 0.777,1.448 0.271,2.104 l -99.745,129.386 c -0.295,0.384 -0.739,0.585 -1.189,0.585 z"
   id="path14" />&#10;	<path
   style="fill:#0e2549"
   d="m 1403.738,971.756 c -0.32,0 -0.642,-0.102 -0.915,-0.313 -0.656,-0.505 -0.777,-1.447 -0.271,-2.104 l 99.746,-129.385 c 0.505,-0.657 1.447,-0.777 2.104,-0.272 0.656,0.506 0.777,1.448 0.271,2.104 l -99.746,129.385 c -0.295,0.384 -0.739,0.585 -1.189,0.585 z"
   id="path15" />&#10;</g><g
     id="g22">&#10;	&#10;		<rect
   x="1286.767"
   y="745.78101"
   transform="matrix(0.2251,-0.9743,0.9743,0.2251,305.4003,2022.2703)"
   style="fill:#f9e8f2"
   width="274.534"
   height="146.718"
   id="rect15" />&#10;	<path
   style="fill:#0e2549"
   d="m 1518.059,744.706 -1.462,-0.338 c -11.022,-2.546 -20.98,-9.675 -27.322,-19.558 -6.477,-10.094 -8.63,-21.771 -6.063,-32.881 l 0.338,-1.462 44.655,10.315 z m -32.234,-50.634 c -1.875,9.873 0.224,20.156 5.974,29.118 5.642,8.792 14.334,15.246 24.019,17.889 l 8.789,-38.049 z"
   id="path16" />&#10;	<path
   style="fill:#0e2549"
   d="m 1383.131,712.432 c -3.134,0 -6.311,-0.352 -9.487,-1.085 l -1.461,-0.337 10.146,-43.924 43.193,9.977 -0.337,1.462 c -4.663,20.18 -22.487,33.907 -42.054,33.907 z m -7.344,-3.699 c 20.424,3.906 40.604,-8.967 46.11,-29.429 l -37.321,-8.621 z"
   id="path17" />&#10;	<path
   style="fill:#0e2549"
   d="m 1473.401,710.533 c -0.111,0 -0.225,-0.013 -0.339,-0.039 l -48.236,-11.142 c -0.807,-0.187 -1.311,-0.991 -1.124,-1.798 0.187,-0.807 0.984,-1.311 1.8,-1.124 l 48.236,11.142 c 0.807,0.187 1.311,0.992 1.124,1.799 -0.16,0.694 -0.778,1.162 -1.461,1.162 z"
   id="path18" />&#10;	<path
   style="fill:#0e2549"
   d="m 1461.517,911.951 c -0.111,0 -0.225,-0.013 -0.339,-0.039 -0.807,-0.187 -1.311,-0.992 -1.124,-1.799 l 36.771,-159.179 c 0.187,-0.807 0.985,-1.31 1.8,-1.124 0.807,0.187 1.311,0.992 1.124,1.799 l -36.771,159.178 c -0.161,0.694 -0.779,1.164 -1.461,1.164 z"
   id="path19" />&#10;	<path
   style="fill:#0e2549"
   d="m 1350.13,886.914 c -0.111,0 -0.225,-0.013 -0.339,-0.039 -0.807,-0.187 -1.311,-0.992 -1.124,-1.799 l 36.771,-159.179 c 0.187,-0.806 0.986,-1.313 1.8,-1.124 0.807,0.186 1.311,0.991 1.124,1.799 l -36.771,159.178 c -0.16,0.694 -0.778,1.164 -1.461,1.164 z"
   id="path20" />&#10;	<path
   style="fill:#eab7c2"
   d="m 1412.525,851.25 c -20.182,-4.662 -33.458,-21.792 -29.654,-38.26 3.805,-16.468 23.249,-26.039 43.431,-21.377 20.182,4.662 33.458,21.792 29.654,38.26 -3.804,16.467 -23.249,26.039 -43.431,21.377 z"
   id="path21" />&#10;	<path
   style="fill:#0e2549"
   d="m 1446.354,826.115 -4.086,-0.944 c 1.297,-8.324 -2.901,-13.173 -8.282,-14.416 -5.976,-1.38 -9.803,1.535 -13.972,9.275 l -19.294,-4.457 c 1.805,-5.229 5.355,-7.75 10.165,-8.103 0.782,-0.058 1.438,-0.614 1.614,-1.378 0.269,-1.159 -0.646,-2.26 -1.833,-2.201 -5.076,0.254 -10.463,2.975 -12.968,10.985 l -5.791,-1.338 c -0.814,-0.188 -1.613,0.317 -1.8,1.125 -0.187,0.807 0.317,1.612 1.124,1.799 l 5.746,1.327 c -1.823,9.488 2.535,15.11 8.736,16.543 5.188,1.199 10.482,0.543 16.312,-10.756 l 16.451,3.8 c -1.622,5.15 -4.88,7.245 -8.827,7.551 -0.79,0.062 -1.455,0.614 -1.633,1.387 -0.269,1.159 0.641,2.281 1.828,2.21 4.636,-0.276 9.627,-3.117 11.765,-10.424 l 4.068,0.94 c 0.114,0.027 0.228,0.039 0.339,0.039 0.683,0 1.301,-0.47 1.461,-1.164 0.188,-0.809 -0.316,-1.614 -1.123,-1.8 z m -13.015,-11.705 c 4.466,1.032 6.622,4.587 5.813,10.041 l -15.666,-3.619 c 3.16,-5.619 5.627,-7.398 9.853,-6.422 z m -27.038,16.252 c -4.56,-1.053 -7.757,-4.788 -6.34,-12.185 l 18.606,4.298 c -4.21,7.705 -7.633,8.957 -12.266,7.887 z"
   id="path22" />&#10;</g><g
     id="g50">&#10;	<polygon
   style="fill:#e2d0da"
   points="874.882,827.356 1462.646,928 1462.646,1463.059 874.882,1463.059 "
   id="polygon22" />&#10;	<path
   style="fill:#1b2746"
   d="M 1464.146,1464.559 H 873.382 V 825.577 l 590.764,101.158 z m -587.764,-3 h 584.764 V 929.265 L 876.382,829.135 Z"
   id="path23" />&#10;	<polygon
   style="fill:#eab7c2"
   points="482.351,951.141 542.568,951.141 530.351,906.319 "
   id="polygon23" />&#10;	<path
   style="fill:#1b2746"
   d="m 544.531,952.641 h -65.985 l 52.598,-49.114 z m -58.376,-3 h 54.45 l -11.047,-40.528 z"
   id="path24" />&#10;	<polygon
   style="fill:#f9e5ef"
   points="751.823,717.647 527.352,917.765 527.352,1463.059 976.293,1463.059 976.293,917.765 "
   id="polygon24" />&#10;	<path
   style="fill:#1b2746"
   d="M 977.793,1464.559 H 525.852 V 917.092 l 0.502,-0.447 225.469,-201.008 0.998,0.89 224.972,200.565 z m -448.941,-3 H 974.793 V 918.438 l -222.97,-198.78 -222.971,198.78 z"
   id="path25" />&#10;	<path
   style="fill:#e2474b"
   d="M 488.529,955.174 H 448.368 L 752.05,681.785 c 0.106,-0.095 0.275,-0.019 0.273,0.124 l -0.456,37.831 z"
   id="path26" />&#10;	<path
   style="fill:#0e2549"
   d="M 489.102,956.674 H 444.46 L 751.047,680.671 c 0.489,-0.443 1.195,-0.554 1.799,-0.279 0.602,0.273 0.986,0.876 0.977,1.538 l -0.464,38.489 -0.493,0.44 z m -36.826,-3 h 35.68 l 262.419,-234.612 0.411,-34.121 z"
   id="path27" />&#10;	<path
   style="fill:#eab7c2"
   d="m 754.602,684.559 468.75,-3.024 306.907,273.639 H 1047.435 L 754.205,685.587 c -0.396,-0.363 -0.141,-1.025 0.397,-1.028 z"
   id="path28" />&#10;	<path
   style="fill:#1b2746"
   d="M 1534.196,956.674 H 1046.85 l -0.431,-0.396 L 753.19,686.692 c -0.637,-0.584 -0.848,-1.485 -0.537,-2.294 0.311,-0.809 1.073,-1.334 1.939,-1.34 l 469.327,-3.027 0.431,0.384 z m -486.175,-3 h 478.303 l -303.538,-270.636 -465.867,3.006 z"
   id="path29" />&#10;	<path
   style="fill:#e2474b"
   d="m 1013.977,955.105 40.315,0.139 -301.736,-273.502 c -0.088,-0.08 -0.23,-0.019 -0.232,0.101 l -0.457,37.896 z"
   id="path30" />&#10;	<path
   style="fill:#0e2549"
   d="m 1058.197,956.757 -44.797,-0.154 -0.425,-0.382 -262.616,-235.82 0.465,-38.576 c 0.008,-0.645 0.395,-1.227 0.986,-1.483 0.591,-0.257 1.28,-0.142 1.756,0.292 z m -43.642,-3.151 35.836,0.123 -296.603,-268.846 -0.412,34.195 z M 751.548,682.854 c 0.002,10e-4 0.003,0.004 0.005,0.005 z"
   id="path31" />&#10;	<rect
   x="528.85199"
   y="1400.235"
   style="fill:#eab7c2"
   width="445.897"
   height="62.823002"
   id="rect31" />&#10;	<rect
   x="977.79303"
   y="1400.235"
   style="fill:#ceb6c5"
   width="483.26501"
   height="62.823002"
   id="rect32" />&#10;	<rect
   x="1016.31"
   y="1079.248"
   style="fill:#e2474b"
   width="73.059998"
   height="108.563"
   id="rect33" />&#10;	<rect
   x="1105.252"
   y="1079.248"
   style="fill:#e2474b"
   width="73.058998"
   height="108.563"
   id="rect34" />&#10;	<rect
   x="1016.31"
   y="1203.626"
   style="fill:#e2474b"
   width="73.059998"
   height="108.563"
   id="rect35" />&#10;	<rect
   x="1105.252"
   y="1203.626"
   style="fill:#e2474b"
   width="73.058998"
   height="108.563"
   id="rect36" />&#10;	<rect
   x="1245.6219"
   y="1079.248"
   style="fill:#e2474b"
   width="73.058998"
   height="108.563"
   id="rect37" />&#10;	<rect
   x="1334.563"
   y="1079.248"
   style="fill:#e2474b"
   width="73.058998"
   height="108.563"
   id="rect38" />&#10;	<rect
   x="1245.6219"
   y="1203.626"
   style="fill:#e2474b"
   width="73.058998"
   height="108.563"
   id="rect39" />&#10;	<rect
   x="1334.563"
   y="1203.626"
   style="fill:#e2474b"
   width="73.058998"
   height="108.563"
   id="rect40" />&#10;	<rect
   x="654.76398"
   y="1020.117"
   style="fill:#e2474b"
   width="193.765"
   height="445.76599"
   id="rect41" />&#10;	<path
   style="fill:#0e2549"
   d="M 850.029,1467.382 H 653.264 v -448.765 h 196.765 z m -193.765,-3 H 847.029 V 1021.617 H 656.264 Z"
   id="path41" />&#10;	<rect
   x="680.55798"
   y="1043.175"
   style="fill:#eab7c2"
   width="61"
   height="116.764"
   id="rect42" />&#10;	<rect
   x="761.73499"
   y="1043.175"
   style="fill:#eab7c2"
   width="61"
   height="116.764"
   id="rect43" />&#10;	<rect
   x="680.55798"
   y="1180.13"
   style="fill:#eab7c2"
   width="61"
   height="116.764"
   id="rect44" />&#10;	<rect
   x="761.73499"
   y="1180.13"
   style="fill:#eab7c2"
   width="61"
   height="116.764"
   id="rect45" />&#10;	<rect
   x="680.55798"
   y="1317.085"
   style="fill:#eab7c2"
   width="61"
   height="116.763"
   id="rect46" />&#10;	<rect
   x="761.73499"
   y="1317.085"
   style="fill:#eab7c2"
   width="61"
   height="116.763"
   id="rect47" />&#10;	<path
   style="fill:#e2474b"
   d="m 850.649,953.057 h -202.59 c 0,-25.4 9.35,-48.62 24.81,-66.4 2.44,-2.82 5.04,-5.5 7.79,-8.02 16.78,-15.51 38.8,-25.4 63.11,-26.72 1.84,-0.1 3.71,-0.15 5.58,-0.15 1.88,0 3.74,0.05 5.59,0.15 23.7,1.29 45.21,10.72 61.82,25.54 2.79,2.48 5.43,5.11 7.91,7.89 16.16,17.94 25.98,41.679 25.98,67.71 z"
   id="path47" />&#10;	<path
   style="fill:#eab7c2"
   d="m 824.669,885.347 -67.71,67.71 h -17.69 l -66.4,-66.4 c 2.44,-2.82 5.04,-5.5 7.79,-8.02 l 63.11,63.11 v -89.83 h 11.17 v 87.36 l 61.82,-61.82 c 2.79,2.48 5.43,5.109 7.91,7.89 z"
   id="path48" />&#10;	<path
   style="fill:#f9e5ef"
   d="m 837.705,1241.588 c 0,7.147 -5.794,12.941 -12.941,12.941 -7.147,0 -12.941,-5.794 -12.941,-12.941 0,-7.146 5.794,-12.94 12.941,-12.94 7.147,-10e-4 12.941,5.793 12.941,12.94 z"
   id="path49" />&#10;	<path
   style="fill:#1b2746"
   d="m 824.764,1256.029 c -7.963,0 -14.441,-6.479 -14.441,-14.441 0,-7.962 6.478,-14.441 14.441,-14.441 7.963,0 14.441,6.479 14.441,14.441 0,7.962 -6.478,14.441 -14.441,14.441 z m 0,-25.883 c -6.309,0 -11.441,5.133 -11.441,11.441 0,6.308 5.132,11.441 11.441,11.441 6.309,0 11.441,-5.133 11.441,-11.441 0,-6.308 -5.132,-11.441 -11.441,-11.441 z"
   id="path50" />&#10;</g><g
     id="g88">&#10;	<polygon
   style="fill:#ffffff"
   points="391.777,1445.752 389.688,1426.088 416.852,1425.026 416.819,1445.752 "
   id="polygon50" />&#10;	<path
   style="fill:#0e2549"
   d="m 418.316,1447.252 h -27.889 l -2.4,-22.601 30.327,-1.185 z m -25.19,-3 h 22.195 l 0.028,-17.666 -24,0.938 z"
   id="path51" />&#10;	<path
   style="fill:#e2474b"
   d="m 418.244,1442.651 c 0,0 37.559,11.921 38.854,21.745 h -67.346 v -21.745 z"
   id="path52" />&#10;	<polygon
   style="fill:#ffffff"
   points="306.119,1445.587 304.914,1424.861 332.227,1425.299 331.533,1445.587 "
   id="polygon52" />&#10;	<path
   style="fill:#0e2549"
   d="m 332.983,1447.087 h -28.28 l -1.38,-23.751 30.455,0.486 z m -25.449,-3 h 22.549 l 0.592,-17.313 -24.17,-0.387 z"
   id="path53" />&#10;	<path
   style="fill:#e2474b"
   d="m 332.943,1443.113 c 0,0 37.558,11.921 38.854,21.744 h -67.346 v -21.744 z"
   id="path54" />&#10;	<polygon
   style="fill:#0e2549"
   points="302.693,1466.773 302.693,1460.316 374.248,1461.125 374.248,1466.773 "
   id="polygon54" />&#10;	<polygon
   style="fill:#0e2549"
   points="459.202,1466.313 459.202,1459.854 387.646,1460.291 387.646,1466.313 "
   id="polygon55" />&#10;	<polygon
   style="fill:#0e2549"
   points="415.18,1117.795 359.309,1108.146 337.679,1104.407 295.96,1097.205 296.999,1194.801 297.614,1252.96 299.483,1428.72 340.844,1428.72 359.344,1249.442 362.293,1220.858 382.995,1428.72 422.809,1428.72 419.587,1166.059 "
   id="polygon56" />&#10;	<path
   style="fill:#ffffff"
   d="m 366.674,914.843 c 0,0 -2.926,30.726 -0.468,34.124 2.459,3.398 16.647,9.659 16.647,9.659 l -23.788,69.941 -50.798,-4.91 -3.293,-52.001 c 0,0 23.186,-18.888 24.585,-22.768 1.936,-5.368 1.941,-34.046 1.941,-34.046 h 35.174 z"
   id="path56" />&#10;	<path
   style="fill:#0e2549"
   d="m 360.103,1030.174 -53.251,-5.146 -3.423,-54.047 0.599,-0.487 c 11.239,-9.156 23.334,-19.931 24.121,-22.113 1.515,-4.201 1.851,-25.634 1.852,-33.538 0,-0.828 0.672,-1.5 1.5,-1.5 0,0 0,0 0,0 0.828,0 1.5,0.672 1.5,1.5 -10e-4,2.962 -0.062,29.098 -2.03,34.555 -1.402,3.888 -19.449,18.842 -24.45,22.934 l 3.164,49.956 48.344,4.672 22.966,-67.524 c -3.717,-1.697 -13.749,-6.475 -16.003,-9.589 -2.588,-3.578 -0.509,-27.806 0.19,-35.146 0.079,-0.825 0.817,-1.438 1.635,-1.351 0.825,0.079 1.43,0.81 1.351,1.635 -1.399,14.695 -2.059,31.095 -0.743,33.107 1.614,2.229 10.692,6.804 16.034,9.162 l 1.257,0.555 z"
   id="path57" />&#10;	<path
   style="fill:#ffffff"
   d="m 498.147,984.041 c -7.771,4.389 -38.621,37.013 -38.621,37.013 l 22.14,10.572 c 0,0 17.959,-33.548 21.139,-33.976 5.972,-0.804 24.032,-0.263 29.861,-4.167 8.818,-5.906 13.376,-13.43 12.324,-15.773 -0.567,-1.263 -15.854,7.901 -19.209,7.989 -9.475,0.247 -22.096,-4.786 -27.634,-1.658 z"
   id="path58" />&#10;	<path
   style="fill:#0e2549"
   d="m 482.496,1034.157 -26.187,-12.505 1.817,-1.922 c 1.268,-1.341 31.141,-32.886 39.073,-37.366 v 0 c 3.891,-2.198 10.017,-1.116 16.503,0.027 4.117,0.727 8.374,1.48 12.027,1.382 1.261,-0.033 6.678,-2.727 9.914,-4.336 6.907,-3.434 8.517,-4.128 9.882,-3.635 0.552,0.197 0.985,0.594 1.221,1.119 1.737,3.87 -4.342,12.357 -13.009,18.162 -4.669,3.127 -15.2,3.617 -23.662,4.011 -2.763,0.129 -5.17,0.241 -6.746,0.43 -2.456,1.901 -11.992,18.115 -19.966,33.011 z m -19.749,-13.699 18.091,8.638 c 17.653,-32.81 20.697,-33.219 21.709,-33.356 1.73,-0.232 4.334,-0.353 7.35,-0.494 7.136,-0.332 17.92,-0.834 21.697,-3.364 6.178,-4.137 9.814,-8.877 11.098,-11.572 -1.559,0.7 -3.639,1.734 -5.333,2.578 -5.859,2.913 -9.559,4.686 -11.529,4.738 -4.036,0.098 -8.492,-0.681 -12.797,-1.44 -5.532,-0.975 -11.252,-1.985 -13.939,-0.468 -5.623,3.176 -25.263,23.102 -36.347,34.74 z"
   id="path59" />&#10;	<path
   style="fill:#e2474b"
   d="m 390.595,955.883 c 15.354,5.603 11.645,87.6 11.645,87.6 2.505,9.644 8.409,61.269 8.409,61.269 l -107.611,21.45 -12.689,-64.437 c 0,0 -7.944,-108.486 34.219,-114.84 4.046,-0.61 16.409,5.17 29.623,3.893 5.731,-0.554 8.652,6.285 11.501,-3.752 -0.002,10e-4 21.562,7.598 24.903,8.817 z"
   id="path60" />&#10;	<path
   style="fill:#0e2549"
   d="m 365.597,1054.154 10.218,-105.288 c 7.038,0 37.118,18.928 37.118,18.928 0.476,-0.974 25.665,45.031 32.612,62.16 0.801,1.977 32.7,-40.848 32.493,-38.486 0,0 28.918,9.899 28.764,13.647 -0.155,3.748 -36.311,67.166 -60.77,78.712 -4.534,2.14 -30.331,-14.351 -31.678,-38.876 l 3.324,60.48 5.719,59.565 -53.96,0.086 -2.52,-50.404 z"
   id="path61" />&#10;	<path
   style="fill:#0e2549"
   d="m 327.195,944.888 39.156,111.51 c 0.103,8.889 1.667,44.566 0.004,82.352 -0.759,17.249 -1.751,30.364 -1.751,27.3 0,-1.243 -74.851,-0.965 -74.851,-0.965 l -2.311,-25.36 c 0,0 -24.945,-17.26 -24.945,-66.132 0,-54.763 2.99,-73.368 10.276,-100.846 1.052,-3.969 40.09,-27.859 54.422,-27.859 z"
   id="path62" />&#10;	<path
   style="fill:#0e2549"
   d="m 349.175,855.406 c 6.395,-0.138 21.925,-0.672 23.373,10.614 1.652,12.873 1.602,29.703 1.426,38.584 -0.069,3.505 -2.691,6.425 -6.161,6.871 l -38.867,4.987 c -3.561,0.457 -6.898,-1.833 -7.758,-5.327 -2.895,-11.758 -8.8,-36.683 -7.874,-40.674 3.152,-13.58 25.737,-14.837 35.861,-15.055 z"
   id="path63" />&#10;	<path
   style="fill:#ffffff"
   d="m 333.034,924.484 c -2.378,-1.912 -4.326,-10.43 -5.828,-20.24 -0.043,-0.284 -0.229,-0.521 -0.485,-0.632 -2.747,-1.192 -6.856,-3.972 -7.376,-8.867 -0.45,-4.241 2.721,-3.747 5.297,-2.693 0.46,0.188 0.94,-0.198 0.883,-0.706 -1.333,-11.891 -2.015,-22.378 -2.015,-22.378 l 46.186,-5.925 c 0,0 1.267,10.594 2.347,22.517 0.048,0.535 1.74,29.089 0.96,31.793 -0.425,1.473 -1.434,2.78 -2.868,3.922 0,0 -2.653,2.804 -19.439,4.958 z"
   id="path64" />&#10;	<path
   style="fill:#0e2549"
   d="m 350.692,927.732 c -0.743,0 -1.389,-0.553 -1.486,-1.31 -0.105,-0.822 0.475,-1.573 1.297,-1.679 15.475,-1.985 18.477,-4.453 18.598,-4.557 l 0.098,-0.086 c 1.248,-0.994 2.042,-2.059 2.362,-3.165 0.643,-2.436 -0.848,-29.2 -1.013,-31.249 -0.83,-9.165 -1.781,-17.627 -2.166,-20.965 l -43.278,5.553 c 0.233,3.247 0.879,11.696 1.912,20.904 0.086,0.765 -0.239,1.527 -0.847,1.988 -0.607,0.458 -1.389,0.56 -2.093,0.274 -1.883,-0.771 -2.784,-0.676 -3.02,-0.499 -0.136,0.102 -0.334,0.563 -0.219,1.645 0.486,4.575 4.695,6.873 6.482,7.649 0.737,0.32 1.249,0.986 1.371,1.781 2.37,15.488 4.486,18.656 5.285,19.298 0.646,0.519 0.748,1.464 0.229,2.109 -0.518,0.646 -1.461,0.749 -2.109,0.229 -1.52,-1.222 -3.824,-4.714 -6.315,-20.82 -2.422,-1.119 -7.304,-4.078 -7.926,-9.93 -0.215,-2.033 0.256,-3.499 1.401,-4.359 1.093,-0.822 2.647,-0.938 4.634,-0.35 -1.227,-11.247 -1.869,-21.028 -1.876,-21.13 l -0.091,-1.406 49.084,-6.297 0.18,1.502 c 0.013,0.106 1.282,10.752 2.351,22.561 0.025,0.27 1.795,29.269 0.907,32.344 -0.49,1.7 -1.608,3.26 -3.323,4.639 -0.786,0.718 -4.611,3.309 -20.234,5.313 -0.067,0.01 -0.131,0.013 -0.195,0.013 z"
   id="path65" />&#10;	<path
   style="fill:#0e2549"
   d="m 343.948,894.999 c -1.292,0 -2.387,-0.995 -2.489,-2.305 l -0.075,-0.959 c -0.108,-1.377 0.92,-2.58 2.297,-2.688 1.364,-0.107 2.58,0.919 2.688,2.297 l 0.075,0.959 c 0.108,1.376 -0.921,2.579 -2.297,2.687 -0.067,0.007 -0.133,0.009 -0.199,0.009 z"
   id="path66" />&#10;	<path
   style="fill:#0e2549"
   d="m 364.239,893.025 c -1.25,0 -2.329,-0.934 -2.48,-2.205 l -0.134,-1.127 c -0.163,-1.371 0.816,-2.614 2.188,-2.777 1.375,-0.169 2.615,0.816 2.777,2.188 l 0.134,1.127 c 0.163,1.371 -0.816,2.615 -2.188,2.777 -0.1,0.013 -0.199,0.017 -0.297,0.017 z"
   id="path67" />&#10;	<path
   style="fill:#0e2549"
   d="m 338.239,887.44 c -0.527,0 -1.038,-0.278 -1.313,-0.771 -0.402,-0.724 -0.142,-1.637 0.582,-2.04 4.426,-2.462 8.998,-1.092 9.189,-1.032 0.792,0.246 1.234,1.085 0.99,1.877 -0.244,0.79 -1.08,1.233 -1.871,0.992 -0.04,-0.014 -3.574,-1.039 -6.851,0.785 -0.229,0.128 -0.48,0.189 -0.726,0.189 z"
   id="path68" />&#10;	<path
   style="fill:#0e2549"
   d="m 357.095,905.08 c -0.618,0 -1.197,-0.385 -1.415,-1.001 -0.275,-0.781 0.134,-1.638 0.916,-1.913 1.113,-0.396 2.326,-1.116 2.55,-1.509 0.038,-0.732 -0.028,-0.902 -2.324,-5.112 -0.54,-0.99 -1.192,-2.186 -1.98,-3.646 l -0.051,-0.104 c -0.158,-0.355 -1.532,-3.535 -1.362,-5.893 0.073,-1.009 0.744,-1.905 1.994,-2.661 2.827,-1.711 8.182,-2.531 11.65,-1.023 0.76,0.33 1.108,1.213 0.777,1.973 -0.33,0.76 -1.213,1.109 -1.974,0.778 -3.21,-1.394 -8.688,0.205 -9.461,1.266 -0.043,1.352 0.769,3.54 1.096,4.294 0.772,1.432 1.413,2.606 1.944,3.581 2.512,4.607 2.774,5.088 2.682,6.782 -0.13,2.367 -3.511,3.74 -4.543,4.104 -0.165,0.056 -0.334,0.084 -0.499,0.084 z"
   id="path69" />&#10;	<path
   style="fill:#a1c5e2"
   d="m 310.384,1146.657 c -0.491,0 -0.976,-0.222 -1.296,-0.643 -0.544,-0.716 -0.404,-1.736 0.311,-2.279 l 29.707,-22.566 c 0.713,-0.544 1.734,-0.405 2.279,0.311 0.543,0.716 0.404,1.736 -0.312,2.279 l -29.707,22.566 c -0.293,0.224 -0.639,0.332 -0.982,0.332 z"
   id="path70" />&#10;	<path
   style="fill:#a1c5e2"
   d="m 414.955,1141.351 c -0.248,0 -0.499,-0.057 -0.735,-0.177 l -31.961,-16.224 c -0.801,-0.406 -1.121,-1.386 -0.714,-2.187 0.406,-0.802 1.386,-1.122 2.186,-0.714 l 31.962,16.224 c 0.801,0.406 1.121,1.386 0.714,2.187 -0.287,0.565 -0.859,0.891 -1.452,0.891 z"
   id="path71" />&#10;	<path
   style="fill:#ffffff"
   d="m 374.953,945.742 21.464,23.712 -17.397,6.99 10.002,26.25 -22.995,48.292 c -0.085,0.179 -0.355,0.104 -0.336,-0.094 z"
   id="path72" />&#10;	<path
   style="fill:#0e2549"
   d="m 365.87,1052.587 c -0.148,0 -0.298,-0.02 -0.447,-0.061 -0.786,-0.217 -1.301,-0.963 -1.224,-1.774 l 9.562,-108.563 25.214,27.854 -18.027,7.244 9.706,25.474 -23.271,48.87 c -0.284,0.596 -0.88,0.956 -1.513,0.956 z m 1.317,-1.578 -0.002,0.016 c 10e-4,-0.01 10e-4,-0.011 0.002,-0.016 z m 8.959,-101.715 -8.316,94.419 19.563,-41.084 -10.298,-27.028 16.766,-6.736 z"
   id="path73" />&#10;	<path
   style="fill:#ffffff"
   d="m 327.195,944.888 -20.744,31.448 23.402,2.036 -5.255,27.841 39.708,44.24 c 0.264,0.295 0.74,0 0.599,-0.365 z"
   id="path74" />&#10;	<path
   style="fill:#0e2549"
   d="m 364.573,1052.072 c -0.514,0 -1.021,-0.213 -1.384,-0.618 l -40.203,-44.791 5.085,-26.941 -24.259,-2.109 23.783,-36.055 38.722,108.023 c 0.309,0.807 -0.014,1.752 -0.778,2.219 -0.3,0.183 -0.634,0.272 -0.966,0.272 z m -1.084,-1.493 c 0.005,0.015 0.01,0.029 0.016,0.044 z m -37.279,-44.816 35.32,39.351 -34.734,-96.896 -17.706,26.842 22.544,1.961 z"
   id="path75" />&#10;	<path
   style="fill:#a1c5e2"
   d="m 301.487,1169.561 c -0.864,0 -1.584,-0.681 -1.624,-1.552 -0.041,-0.897 0.653,-1.659 1.55,-1.7 l 61.704,-2.838 c 0.905,-15.433 2.177,-38.909 2.25,-40.254 l -1.303,-72.295 c -0.016,-0.898 0.699,-1.64 1.597,-1.655 0.01,-10e-4 0.02,-10e-4 0.03,-10e-4 0.885,0 1.61,0.709 1.626,1.598 l 1.305,72.412 -0.003,0.059 c -0.014,0.259 -1.41,26.057 -2.34,41.79 l -0.086,1.462 -64.629,2.973 c -0.026,0 -0.051,10e-4 -0.077,10e-4 z"
   id="path76" />&#10;	<path
   style="fill:#a1c5e2"
   d="m 356.992,1098.384 c -2.35,0 -4.261,-1.912 -4.261,-4.263 0,-2.35 1.912,-4.262 4.261,-4.262 2.35,0 4.262,1.912 4.262,4.262 -0.001,2.351 -1.912,4.263 -4.262,4.263 z"
   id="path77" />&#10;	<path
   style="fill:#a1c5e2"
   d="m 369.438,1166.711 c -0.897,0 -1.625,-0.727 -1.626,-1.624 -0.001,-0.898 0.726,-1.628 1.624,-1.63 l 52.207,-0.083 -10.673,-139.538 c -0.069,-0.895 0.602,-1.678 1.498,-1.746 0.881,-0.067 1.677,0.602 1.746,1.498 l 10.94,143.034 -55.713,0.089 c -10e-4,0 -0.003,0 -0.003,0 z"
   id="path78" />&#10;	<polygon
   style="fill:#e2474b"
   points="354.189,950.819 345.918,960.69 315.923,950.055 328.395,940.333 "
   id="polygon78" />&#10;	<path
   style="fill:#0e2549"
   d="m 346.398,962.451 -33.556,-11.897 15.314,-11.937 28.504,11.588 z m -27.394,-12.895 26.434,9.372 6.28,-7.495 -23.085,-9.385 z"
   id="path79" />&#10;	<polygon
   style="fill:#e2474b"
   points="354.189,950.819 361.649,959.92 382.676,951.164 373.976,941.946 "
   id="polygon79" />&#10;	<path
   style="fill:#0e2549"
   d="m 361.196,961.733 -9.41,-11.48 22.549,-10.112 10.923,11.573 z m -4.603,-10.347 5.509,6.72 17.993,-7.492 -6.478,-6.864 z"
   id="path80" />&#10;	<polygon
   style="fill:#0e2549"
   points="362.413,960.69 358.818,964.926 368.433,1017.552 364.905,1050.088 351.575,1012.901 351.919,965.734 345.918,960.69 354.189,950.819 "
   id="polygon80" />&#10;	<path
   style="fill:#0e2549"
   d="m 322.244,872.379 c 0,0 36.528,3.764 48.435,-8.351 6.794,-6.913 -1.704,-22.839 -7.958,-23.867 -4.707,-0.773 -9.598,8.201 -14.543,8.912 -3.805,0.547 -12.75,2.838 -17.656,4.08 -9.949,2.518 -13.447,13.535 -8.278,19.226 z"
   id="path81" />&#10;	<polygon
   style="fill:#ffffff"
   points="325.344,1182.349 270.356,1157.421 288.476,1118.662 344.393,1143.419 "
   id="polygon81" />&#10;	<path
   style="fill:#0e2549"
   d="m 326.051,1184.316 -57.696,-26.156 19.385,-41.465 58.685,25.983 z m -53.694,-27.634 52.279,23.699 17.724,-36.222 -53.148,-23.53 z"
   id="path82" />&#10;	<path
   style="fill:#ffffff"
   d="m 295.339,1126.202 c 1.069,9.281 7.787,25.704 12.714,32.721 2.418,3.442 10.497,15.974 11.365,19.164 0.526,1.935 -9.199,-2.814 -9.647,-2.927 l -0.598,3.645 c 0,0 -1.93,1.864 -3.635,1.138 -1.461,-0.622 -2.187,-2.927 -3.594,-3.276 -0.129,-0.031 -2.824,0.405 -3.766,0.172 -1.193,-0.296 -2.105,-2.7 -2.975,-3.43 -0.639,-0.537 -2.942,0.404 -3.969,-0.271 -1.646,-1.08 -1.016,-3.378 -2.168,-4.171 -1.086,-0.747 -2.739,0.821 -4.578,-0.573 -1.797,-1.363 5.714,-12.077 5.572,-14.505 -0.498,-8.513 -34.932,-55.965 -17.884,-88.57 7.645,-14.619 19.548,29.492 23.163,60.883 z"
   id="path83" />&#10;	<path
   style="fill:#0e2549"
   d="m 306.382,1182.041 c -0.516,0 -1.054,-0.095 -1.599,-0.327 -1.165,-0.496 -1.919,-1.472 -2.525,-2.256 -0.202,-0.261 -0.485,-0.627 -0.686,-0.822 -1.793,0.206 -3.001,0.283 -3.857,0.071 -1.475,-0.365 -2.37,-1.759 -3.089,-2.878 -0.126,-0.196 -0.291,-0.452 -0.433,-0.654 -0.155,0.014 -0.33,0.032 -0.467,0.048 -1.08,0.117 -2.423,0.264 -3.549,-0.475 -1.542,-1.013 -1.901,-2.563 -2.139,-3.588 -0.03,-0.129 -0.067,-0.29 -0.105,-0.434 -0.065,0.011 -0.131,0.022 -0.19,0.033 -1.005,0.18 -2.689,0.48 -4.418,-0.831 -2.326,-1.765 -0.475,-5.292 2.329,-10.631 0.961,-1.831 2.414,-4.599 2.484,-5.369 -0.102,-1.671 -2.474,-6.487 -5.221,-12.064 -8.974,-18.219 -25.678,-52.131 -12.446,-77.438 1.939,-3.709 4.224,-4.136 5.801,-3.847 9.712,1.803 18.458,43.486 20.981,65.401 v 0 c 1.054,9.155 7.687,25.157 12.376,31.835 1.736,2.473 10.619,15.987 11.647,19.766 0.237,0.871 -0.022,1.761 -0.678,2.321 -1.281,1.098 -3.188,0.724 -9.329,-1.98 l -0.299,1.824 -0.459,0.444 c -0.234,0.227 -1.991,1.851 -4.129,1.851 z m -4.441,-7.303 c 0.158,0 0.295,0.017 0.456,0.056 1.39,0.345 2.232,1.434 2.908,2.308 0.315,0.408 0.747,0.966 0.988,1.069 0.186,0.08 0.679,-0.13 1.097,-0.405 l 0.818,-4.988 2.034,0.515 c 0.239,0.061 0.409,0.136 1.394,0.577 2.069,0.929 3.574,1.558 4.665,1.977 -2.411,-4.528 -7.513,-12.521 -9.826,-15.815 -4.974,-7.083 -11.905,-23.653 -13.051,-33.608 v 0 c -3.658,-31.763 -13.033,-61.159 -17.857,-62.055 -0.332,-0.06 -0.974,0.485 -1.684,1.844 -12.326,23.574 3.816,56.346 12.488,73.951 3.59,7.289 5.47,11.205 5.611,13.613 0.088,1.502 -0.996,3.648 -2.92,7.313 -0.936,1.781 -2.408,4.586 -2.818,5.98 0.196,0 0.451,-0.036 0.82,-0.102 0.788,-0.142 1.979,-0.353 3.092,0.412 1.14,0.784 1.424,2.013 1.632,2.91 0.148,0.639 0.247,0.994 0.422,1.172 0.254,0.025 0.771,-0.033 1.095,-0.069 1.033,-0.112 2.206,-0.241 3.135,0.54 0.56,0.471 0.979,1.123 1.423,1.813 0.246,0.384 0.643,1.001 0.886,1.234 0.363,0.027 1.17,-0.033 2.395,-0.174 0.363,-0.041 0.597,-0.068 0.797,-0.068 z m -9.808,-3.288 z"
   id="path84" />&#10;	<path
   style="fill:#0e2549"
   d="m 285.691,1151.092 c 0,0 -26.184,-16.941 -30.561,-53.168 -4.378,-36.227 11.376,-96.791 11.376,-96.791 l 31.615,31.131 c 0,0 -7.159,49.146 -4.77,60.391 2.389,11.245 19.366,58.438 19.366,58.438 h -27.026 z"
   id="path85" />&#10;	<path
   style="fill:#a1c5e2"
   d="m 314.831,1152.719 h -29.14 c -0.898,0 -1.626,-0.729 -1.626,-1.627 0,-0.898 0.728,-1.627 1.626,-1.627 h 24.897 c -2.687,-9.599 -6.054,-18.058 -9.317,-26.257 -4.682,-11.765 -9.105,-22.877 -9.97,-34.395 -2.584,-34.398 8.892,-62.855 9.008,-63.139 0.341,-0.831 1.29,-1.228 2.121,-0.888 0.831,0.341 1.229,1.29 0.888,2.121 -0.113,0.277 -11.298,28.06 -8.774,61.661 0.828,11.021 4.961,21.408 9.748,33.436 3.528,8.865 7.176,18.031 9.996,28.67 z"
   id="path86" />&#10;	<path
   style="fill:#0e2549"
   d="m 351.816,908.983 c -0.311,1.414 3.864,5.68 7.45,5.038 5.853,-1.048 6.33,-7.302 4.99,-6.714 -0.525,0.231 -2.27,2.289 -5.798,2.815 -3.805,0.566 -6.433,-2.088 -6.642,-1.139 z"
   id="path87" />&#10;	<path
   style="fill:#a1c5e2"
   d="m 362.295,1222.485 c -0.043,0 -0.086,0 -0.129,-0.01 -0.896,-0.07 -1.564,-0.853 -1.494,-1.748 l 3.397,-43.271 c 0.07,-0.896 0.853,-1.572 1.749,-1.494 0.895,0.07 1.564,0.853 1.494,1.748 l -3.397,43.271 c -0.067,0.853 -0.78,1.5 -1.62,1.5 z"
   id="path88" />&#10;</g><g
     id="g111">&#10;	<polygon
   style="fill:#ffffff"
   points="1591.779,1442.53 1593.995,1423.836 1565.175,1422.827 1565.21,1442.53 "
   id="polygon88" />&#10;	<path
   style="fill:#0e2549"
   d="m 1593.225,1444.157 h -29.639 l -0.041,-23.015 32.273,1.13 z m -26.391,-3.254 h 23.5 l 1.838,-15.504 -25.367,-0.888 z"
   id="path89" />&#10;	<path
   style="fill:#e2474b"
   d="m 1564.065,1440.37 c 0,0 -39.452,12.522 -40.812,22.841 h 70.741 v -22.841 z"
   id="path90" />&#10;	<polygon
   style="fill:#ffffff"
   points="1669.574,1443.294 1670.818,1421.856 1642.587,1422.309 1643.304,1443.294 "
   id="polygon90" />&#10;	<path
   style="fill:#0e2549"
   d="m 1671.109,1444.921 h -29.378 l -0.827,-24.212 31.64,-0.507 z m -26.233,-3.254 h 23.163 l 1.054,-18.156 -24.823,0.397 z"
   id="path91" />&#10;	<path
   style="fill:#e2474b"
   d="m 1641.834,1441.028 c 0,0 -39.452,12.522 -40.813,22.842 h 70.742 v -22.842 z"
   id="path92" />&#10;	<polygon
   style="fill:#0e2549"
   points="1673.609,1465.883 1673.609,1459.099 1598.447,1459.949 1598.447,1465.883 "
   id="polygon92" />&#10;	<polygon
   style="fill:#0e2549"
   points="1521.043,1465.224 1521.043,1458.44 1596.205,1458.899 1596.205,1465.224 "
   id="polygon93" />&#10;	<polygon
   style="fill:#0e2549"
   points="1680.685,1077.682 1555.45,1099.309 1556.071,1425.647 1597.893,1425.647 1611.25,1208.918 1606.238,1161.338 1633.533,1425.911 1676.98,1425.911 "
   id="polygon94" />&#10;	<path
   style="fill:#ffffff"
   d="m 1601.251,894.058 c 0,0 2.944,30.924 0.471,34.344 -2.475,3.421 -17.249,10.525 -17.249,10.525 l 24.436,69.59 51.127,-4.941 3.314,-52.337 c 0,0 -23.336,-19.01 -24.744,-22.915 -1.947,-5.402 -1.953,-34.266 -1.953,-34.266 z"
   id="path94" />&#10;	<path
   style="fill:#0e2549"
   d="m 1607.914,1010.06 -25.235,-74.615 1.529,-0.372 c 6.085,-1.481 14.856,-5.453 16.348,-7.514 1.338,-1.979 0.676,-18.519 -0.737,-33.364 -0.075,-0.791 0.505,-1.494 1.296,-1.569 0.795,-0.07 1.493,0.505 1.569,1.296 0.703,7.382 2.794,31.744 0.204,35.325 -2.305,3.184 -12.576,6.142 -16.944,7.279 l 23.961,70.45 48.772,-4.715 3.19,-50.374 c -4.992,-4.082 -23.207,-19.17 -24.615,-23.074 -2.01,-5.575 -2.038,-33.566 -2.039,-34.754 0,-0.795 0.645,-1.439 1.439,-1.439 0.794,0 1.438,0.644 1.439,1.439 0,7.959 0.34,29.541 1.867,33.779 0.878,2.433 14.738,14.497 24.3,22.286 l 0.573,0.467 -0.046,0.739 -3.393,53.56 z"
   id="path95" />&#10;	<path
   style="fill:#0e2549"
   d="m 1610.481,832.903 c -6.394,0.759 -21.946,2.404 -21.808,13.854 0.158,13.061 2.567,29.828 3.987,38.655 0.561,3.484 3.582,6.027 7.104,5.984 l 39.436,-0.478 c 3.613,-0.043 6.618,-2.794 6.985,-6.396 1.236,-12.124 3.629,-37.793 2.146,-41.641 -5.043,-13.092 -27.728,-11.179 -37.85,-9.978 z"
   id="path96" />&#10;	<path
   style="fill:#ffffff"
   d="m 1636.251,899.488 c 2.103,-2.239 2.851,-11.001 2.972,-20.989 0,-0.289 0.155,-0.552 0.395,-0.698 2.57,-1.573 6.276,-4.919 6.108,-9.872 -0.146,-4.29 -3.236,-3.352 -5.656,-1.942 -0.433,0.252 -0.965,-0.065 -0.979,-0.58 -0.338,-12.038 -1.128,-22.586 -1.128,-22.586 l -46.862,0.568 c 0,0 0.223,10.736 0.818,22.771 0.026,0.54 2.342,29.236 3.499,31.822 0.631,1.408 1.819,2.569 3.408,3.507 0,0 3.037,2.423 20.069,2.216 z"
   id="path97" />&#10;	<path
   style="fill:#0e2549"
   d="m 1616.86,905.163 c -14.182,0 -17.998,-1.892 -18.825,-2.462 -1.89,-1.127 -3.215,-2.515 -3.937,-4.128 -1.328,-2.969 -3.61,-32.069 -3.624,-32.342 -0.59,-11.917 -0.816,-22.704 -0.818,-22.812 l -0.03,-1.457 49.676,-0.602 0.102,1.353 c 0.01,0.102 0.742,9.996 1.096,21.417 1.919,-0.893 3.496,-1.009 4.697,-0.344 1.24,0.685 1.904,2.063 1.974,4.094 0.2,5.912 -4.268,9.533 -6.507,10.97 -0.224,16.409 -2.021,20.203 -3.358,21.627 -0.548,0.581 -1.461,0.61 -2.043,0.064 -0.582,-0.546 -0.61,-1.461 -0.064,-2.042 0.712,-0.758 2.388,-4.225 2.58,-20.018 0.01,-0.786 0.414,-1.502 1.085,-1.913 1.683,-1.03 5.577,-3.928 5.419,-8.59 -0.035,-1.05 -0.281,-1.552 -0.481,-1.662 -0.271,-0.15 -1.209,-0.126 -3.003,0.92 -0.641,0.372 -1.412,0.381 -2.061,0.02 -0.652,-0.363 -1.07,-1.057 -1.09,-1.81 -0.265,-9.38 -0.81,-17.941 -1.03,-21.163 l -44.037,0.533 c 0.083,3.336 0.321,11.957 0.782,21.273 0.118,2.008 2.406,29.031 3.375,31.304 0.479,1.069 1.43,2.029 2.824,2.851 l 0.167,0.115 c 0.074,0.042 3.407,2.079 19.149,1.901 0.821,0.007 1.453,0.629 1.463,1.427 0.01,0.799 -0.63,1.453 -1.428,1.462 -0.707,0.01 -1.392,0.014 -2.053,0.014 z m 23.808,-26.65 c 0,10e-4 0,10e-4 0,0.002 0,10e-4 0,0 0,-0.002 z m -0.133,-13.148 c 0,10e-4 0,10e-4 0,0.002 0,-10e-4 0,-10e-4 0,-0.002 z"
   id="path98" />&#10;	<path
   style="fill:#0e2549"
   d="m 1622.09,872.263 c -1.287,0 -2.368,-1.002 -2.448,-2.305 l -0.06,-0.967 c -0.084,-1.354 0.945,-2.518 2.299,-2.602 1.346,-0.082 2.518,0.945 2.602,2.299 l 0.061,0.967 c 0.083,1.354 -0.946,2.518 -2.3,2.602 -0.053,0.004 -0.103,0.006 -0.154,0.006 z"
   id="path99" />&#10;	<path
   style="fill:#0e2549"
   d="m 1600.504,872.583 c -1.331,0 -2.424,-1.064 -2.454,-2.4 l -0.025,-1.143 c -0.029,-1.356 1.045,-2.479 2.4,-2.509 1.37,-0.039 2.479,1.044 2.51,2.399 l 0.025,1.142 c 0.029,1.356 -1.045,2.479 -2.4,2.509 -0.019,0.002 -0.038,0.002 -0.056,0.002 z"
   id="path100" />&#10;	<path
   style="fill:#0e2549"
   d="m 1618.461,864.564 c -0.742,0 -1.454,-0.421 -1.786,-1.137 -0.454,-0.98 -0.036,-2.141 0.941,-2.601 0.19,-0.09 4.726,-2.174 9.66,-0.272 1.012,0.39 1.516,1.527 1.126,2.54 -0.391,1.013 -1.529,1.516 -2.54,1.126 -3.333,-1.286 -6.552,0.151 -6.584,0.167 -0.264,0.12 -0.543,0.177 -0.817,0.177 z"
   id="path101" />&#10;	<path
   style="fill:#0e2549"
   d="m 1617.362,886.107 c 0.755,1.084 -2.979,4.876 -7.373,4.736 -7.17,-0.229 -9.45,-5.113 -7.714,-4.787 0.682,0.128 3.299,1.574 7.591,1.628 4.63,0.058 6.99,-2.304 7.496,-1.577 z"
   id="path102" />&#10;	<path
   style="fill:#0e2549"
   d="m 1609.584,883.179 c -0.109,0 -0.219,-0.011 -0.33,-0.033 -1.413,-0.286 -4.752,-1.205 -5.218,-3.567 -0.338,-1.718 -0.142,-2.238 1.73,-7.22 0.392,-1.043 0.865,-2.301 1.433,-3.831 0.303,-1.096 0.677,-3.129 0.494,-4.314 -1.021,-0.911 -6.487,-1.668 -9.396,0.114 -0.782,0.478 -1.799,0.232 -2.276,-0.547 -0.477,-0.779 -0.233,-1.798 0.546,-2.276 3.282,-2.011 8.798,-1.946 11.888,-0.623 1.398,0.599 2.222,1.432 2.446,2.477 0.507,2.361 -0.426,5.755 -0.534,6.134 l -0.04,0.122 c -0.58,1.564 -1.063,2.847 -1.461,3.908 -1.649,4.388 -1.725,4.65 -1.602,5.306 0.314,0.341 1.56,0.849 2.648,1.071 0.895,0.184 1.473,1.058 1.291,1.952 -0.16,0.785 -0.849,1.326 -1.619,1.327 z"
   id="path103" />&#10;	<path
   style="fill:#a1c5e2"
   d="m 1662.154,1135.62 c 0.282,0.196 0.604,0.29 0.925,0.29 0.515,0 1.022,-0.245 1.338,-0.701 0.512,-0.738 0.328,-1.751 -0.411,-2.263 l -6.443,-4.464 v 0 l -19.856,-13.755 c -0.736,-0.512 -1.751,-0.329 -2.263,0.411 -0.512,0.738 -0.328,1.751 0.411,2.263 l 19.204,13.303 6.396,287.583 c 0.02,0.886 0.744,1.591 1.625,1.591 0.013,0 0.024,-10e-4 0.037,-10e-4 0.898,-0.02 1.61,-0.764 1.59,-1.662 l -6.345,-285.222 z"
   id="path104" />&#10;	<path
   style="fill:#a1c5e2"
   d="m 1612.854,1208.646 -7.892,-46.573 0.013,-0.234 c 0.018,-0.313 -0.06,-0.606 -0.199,-0.862 l -1.921,-11.34 v -28.318 c 0,-0.898 -0.729,-1.627 -1.627,-1.627 -0.898,0 -1.627,0.729 -1.627,1.627 v 28.592 l 2.093,12.351 -14.058,255.901 c -0.05,0.896 0.638,1.664 1.535,1.713 0.03,0 0.061,0 0.091,0 0.857,0 1.574,-0.671 1.622,-1.538 l 13.271,-241.561 5.492,32.41 c 0.135,0.794 0.822,1.355 1.602,1.355 0.09,0 0.182,-0.01 0.273,-0.023 0.885,-0.151 1.482,-0.99 1.332,-1.876 z"
   id="path105" />&#10;	<path
   style="fill:#0e2549"
   d="m 1551.192,1195.246 c -0.029,0 -0.06,0 -0.09,0 -1.141,-0.041 -2.112,-0.44 -3.916,-4.464 -1.203,-1.943 -11.144,-18.104 -12.813,-24.211 -1.079,-3.944 1.055,-19.09 1.535,-22.362 l 6.872,-125.345 30.648,10.243 -0.32,1.855 c -7.54,43.646 -18.77,109.888 -18.806,113.487 0.01,1.749 3.386,6.837 5.62,10.204 3.81,5.739 5.777,8.843 5.358,11.173 -0.194,1.079 -0.906,1.917 -1.905,2.242 -0.848,0.273 -2.961,0.962 -11.044,-6.225 -0.429,3.13 -0.761,6.508 -0.547,7.892 0.712,4.605 2.94,19.927 1.73,23.729 -0.345,1.092 -1.251,1.783 -2.322,1.783 z m -8.529,-37.081 c 1.171,0 2.143,0.927 2.188,2.107 0.041,1.052 -0.04,2.063 -0.125,3.135 -0.161,2.013 -0.327,4.094 0.313,6.76 1.191,4.957 2.724,9.829 4.106,13.659 -0.35,-3.797 -0.935,-8.51 -1.693,-13.421 -0.527,-3.415 1.009,-12.339 1.186,-13.346 l 0.711,-4.039 2.964,2.835 c 2.273,2.176 4.979,4.507 7.085,6.088 -0.952,-1.588 -2.169,-3.42 -3.128,-4.865 -3.828,-5.768 -6.338,-9.761 -6.353,-12.61 -0.023,-4.532 15.544,-94.974 18.55,-112.396 l -21.625,-7.228 -6.567,119.805 -0.015,0.1 c -1.064,7.211 -2.282,18.39 -1.659,20.666 0.313,1.146 1.019,2.802 1.951,4.724 -0.534,-2.854 -0.349,-5.175 -0.196,-7.079 0.077,-0.979 0.145,-1.824 0.114,-2.616 -0.047,-1.21 0.896,-2.229 2.105,-2.275 0.03,0 0.059,0 0.088,0 z"
   id="path106" />&#10;	<path
   style="fill:#ffffff"
   d="m 1687.748,1192.456 c 0,0 10.989,-17.671 12.665,-23.8 1.024,-3.745 -1.604,-21.564 -1.604,-21.564 l -6.721,-122.574 -26.136,8.735 c 0,0 18.862,109.194 18.838,113.868 -0.023,4.675 -11.597,17.741 -11.014,20.98 0.583,3.239 12.326,-7.998 12.326,-7.998 0,0 1.666,9.476 1.179,12.631 -0.893,5.769 -2.764,19.725 -1.809,22.729 0.725,2.277 5.879,-11.133 8.519,-22.119 1.072,-4.46 0.139,-7.496 0.247,-10.322 z"
   id="path107" />&#10;	<path
   style="fill:#0e2549"
   d="m 1685.708,1197.91 c -1.07,0 -1.977,-0.691 -2.323,-1.783 -1.21,-3.801 1.019,-19.122 1.73,-23.728 0.214,-1.385 -0.117,-4.763 -0.546,-7.893 -8.088,7.19 -10.198,6.498 -11.045,6.226 -0.999,-0.325 -1.711,-1.163 -1.905,-2.242 -0.419,-2.33 1.549,-5.434 5.358,-11.174 2.235,-3.366 5.612,-8.455 5.621,-10.207 -0.036,-3.594 -11.267,-69.836 -18.807,-113.483 l -0.32,-1.855 30.648,-10.244 6.872,125.346 c 0.48,3.272 2.614,18.418 1.535,22.362 -1.671,6.113 -11.63,22.301 -12.816,24.217 -1.802,4.018 -2.773,4.417 -3.913,4.458 -0.029,0 -0.06,0 -0.089,0 z m 1.845,-42.228 0.71,4.042 c 0.177,1.006 1.712,9.931 1.185,13.346 -0.759,4.911 -1.344,9.624 -1.693,13.421 1.383,-3.83 2.916,-8.703 4.107,-13.66 0.64,-2.664 0.474,-4.745 0.313,-6.758 -0.086,-1.071 -0.167,-2.084 -0.126,-3.136 0.047,-1.211 1.065,-2.152 2.275,-2.105 1.21,0.047 2.152,1.065 2.105,2.275 -0.03,0.792 0.037,1.638 0.115,2.617 0.151,1.903 0.337,4.224 -0.196,7.076 0.932,-1.92 1.637,-3.576 1.95,-4.722 0.623,-2.277 -0.595,-13.456 -1.659,-20.666 l -0.02,-0.2 -6.563,-119.705 -21.625,7.229 c 3.006,17.422 18.573,107.863 18.551,112.396 -0.016,2.85 -2.525,6.843 -6.353,12.609 -0.96,1.446 -2.177,3.279 -3.13,4.867 2.107,-1.581 4.813,-3.913 7.087,-6.09 z"
   id="path108" />&#10;	<polygon
   style="fill:#e2474b"
   points="1706.479,1144.628 1702.007,1013.405 1649.93,986.295 1672.252,1144.628 "
   id="polygon108" />&#10;	<path
   style="fill:#0e2549"
   d="m 1706.479,1146.448 h -35.834 L 1651.559,993 c -0.124,-0.997 0.584,-1.906 1.581,-2.03 1.01,-0.13 1.906,0.585 2.03,1.581 l 18.69,150.257 h 32.619 c 1.005,0 1.82,0.815 1.82,1.82 0,1.005 -0.815,1.82 -1.82,1.82 z"
   id="path109" />&#10;	<path
   style="fill:#e2474b"
   d="m 1701.717,1016.717 c 2.309,-5.476 -9.699,-57.563 -16.176,-63.208 -8.422,-7.34 -32.177,-24.158 -39.933,-25.263 -1.881,-0.268 -0.888,-13.949 -5.516,-14.136 -9,-0.365 -33.373,0.563 -40.314,0.004 -3.379,-0.272 -2.756,12.863 -2.756,12.863 0,0 -4.888,2.9 -8.631,4.771 -6.403,3.202 -11.921,7.361 -16.676,11.901 0,0 -14.28,12.498 -21.665,29.766 -0.063,0.11 -0.127,0.226 -0.188,0.335 l 0.014,0.088 c -4.531,10.735 -8.324,25.108 -9.792,44.566 l -8.59,123.153 h 26.098 l 1.377,-16.384 h 120.604 l -10.528,-87.641 2.204,-13.9 z"
   id="path110" />&#10;	<path
   style="fill:#0e2549"
   d="m 1649.873,839.778 c -2.588,-3.273 -7.804,-4.346 -9.16,-4.576 -0.023,-3.716 -0.842,-11.059 -7.023,-10.287 -8.239,1.03 -9.012,-7.981 -16.735,-6.952 -7.724,1.03 -3.604,3.605 -11.586,5.664 -7.981,2.06 -11.844,-2.914 -14.161,3.95 -2.317,6.864 -8.496,5.061 -11.328,9.696 -2.832,4.635 -2.034,10.061 1.827,11.863 3.862,1.802 -2.159,5.459 0.931,9.321 3.09,3.862 16.295,3.533 18.611,-2.131 2.317,-5.664 3.56,-9.526 8.474,-9.784 4.915,-0.257 10.837,2.575 14.184,1.545 3.03,-0.933 7.064,-4.218 9.14,-4.07 0.294,1.955 1.164,6.983 2.677,9.681 1.902,3.395 4.938,5.953 3.851,10.706 -1.088,4.752 11.252,-0.254 9.332,-5.814 -3.957,-11.455 5.974,-12.481 0.966,-18.812 z"
   id="path111" />&#10;</g><g
     id="g144">&#10;	<path
   style="fill:#0e2549"
   d="m 1456.653,919.234 c 0,0 -8.39,-14.008 2.697,-21.31 2.992,-1.97 3.796,-11.162 5.616,-17.303 1.36,-4.586 20.839,-27.469 47.767,-20.527 13.051,3.364 21.821,7.334 26.645,19.767 2.784,7.179 1.006,11.146 7.476,19.726 4.735,6.28 7.597,4.29 9.834,7.764 5.291,8.219 2.44,21.872 -3.474,25.756 -5.914,3.884 4.344,9.845 10e-4,17.45 -4.344,7.604 -25.605,8.824 -30.235,-1.38 -4.63,-10.204 -7.771,-4.415 -15.706,-4.212 -7.935,0.203 -16.549,5.349 -22.09,3.899 -5.541,-1.45 -6.476,-6.747 -13.427,-8.396 -3.298,-0.782 -10.234,3.946 -13.17,3.717 -2.937,-0.229 -10.742,-15.997 -1.934,-24.951 z"
   id="path112" />&#10;	<polygon
   style="fill:#ffffff"
   points="1475.188,1451.478 1487.771,1200.941 1444.355,1198.352 1453.837,1451.478 "
   id="polygon112" />&#10;	<path
   style="fill:#0e2549"
   d="m 1476.615,1452.978 h -24.224 l -0.054,-1.444 -9.543,-254.778 46.549,2.776 -0.074,1.484 z m -21.333,-3 h 18.479 l 12.438,-247.628 -40.283,-2.403 z"
   id="path113" />&#10;	<path
   style="fill:#eab7c2"
   d="m 1451.627,1442.322 c 0,0 -34.287,9.155 -34.287,16.588 l 0.403,6.549 h 56.917 l 0.869,-17.222 c 0,0 -20.824,3.65 -23.902,-5.915 z"
   id="path114" />&#10;	<path
   style="fill:#1b2746"
   d="m 1476.086,1466.958 h -59.753 l -0.49,-7.956 c 0,-8.058 27.093,-15.912 35.397,-18.13 l 1.378,-0.368 0.437,1.357 c 2.197,6.827 16.78,5.848 22.216,4.897 l 1.852,-0.324 z m -56.933,-3 h 54.081 l 0.705,-13.976 c -5.13,0.64 -19.261,1.656 -23.186,-5.87 -15.588,4.285 -31.914,11.021 -31.914,14.798 z"
   id="path115" />&#10;	<rect
   x="1488.153"
   y="1462.2111"
   style="fill:#0e2549"
   width="60.915001"
   height="3.3789999"
   id="rect115" />&#10;	<polygon
   style="fill:#ffffff"
   points="1537.883,1452.847 1552.016,1196.124 1508.959,1201.065 1515.031,1452.421 "
   id="polygon115" />&#10;	<path
   style="fill:#0e2549"
   d="m 1539.302,1454.373 -25.735,-0.479 -0.035,-1.437 -6.104,-252.726 46.185,-5.301 z m -22.806,-3.425 19.97,0.372 13.954,-253.503 -39.929,4.582 z"
   id="path116" />&#10;	<path
   style="fill:#eab7c2"
   d="m 1515.47,1440.029 c 0,0 -32.236,9.155 -32.236,16.588 l 0.38,6.549 h 53.511 l 0.817,-17.222 c -10e-4,0 -19.579,3.65 -22.472,-5.915 z"
   id="path117" />&#10;	<path
   style="fill:#1b2746"
   d="m 1538.556,1464.665 h -56.357 l -0.462,-7.961 c 0,-8.24 27.759,-16.538 33.323,-18.119 l 1.419,-0.402 0.427,1.411 c 2.051,6.778 15.682,5.818 20.762,4.875 l 1.861,-0.346 z m -53.528,-3 h 50.666 l 0.662,-13.962 c -4.93,0.641 -18.066,1.59 -21.775,-5.857 -14.6,4.282 -29.848,10.994 -29.848,14.771 z"
   id="path118" />&#10;	<polygon
   style="fill:#ffffff"
   points="1488.7,967.313 1479.982,999.239 1519.932,994.73 1518.429,967.313 "
   id="polygon118" />&#10;	<path
   style="fill:#ffffff"
   d="m 1519.119,920.609 c 0,0 -1.416,34.78 -0.088,36.61 4.545,6.263 18.011,11.774 21.084,12.602 3.073,0.828 -50.257,21.168 -50.257,21.168 l -25.604,-12.546 9.869,-8.905 c 0,0 8.296,-4.172 11.941,-7.939 3.646,-3.766 5.419,-39.151 5.419,-39.151 z"
   id="path119" />&#10;	<path
   style="fill:#0e2549"
   d="m 1489.784,992.624 -28.18,-13.809 11.665,-10.525 0.181,-0.091 c 0.08,-0.041 8.113,-4.104 11.538,-7.642 2.037,-2.104 4.141,-21.065 4.998,-38.183 l 0.066,-1.333 30.633,-2.042 -0.067,1.669 c -0.641,15.726 -0.953,33.465 -0.289,35.783 4.234,5.676 16.746,10.996 20.176,11.92 0.716,0.192 1.2,0.775 1.236,1.483 0.071,1.418 0.111,2.2 -26.1,12.676 -12.475,4.985 -25.122,9.813 -25.249,9.86 z m -22.879,-14.551 23.027,11.283 c 15.739,-6.011 39.565,-15.419 46.979,-19.06 -5.276,-2.05 -15.168,-6.785 -19.094,-12.195 -1.059,-1.458 -1.146,-13.527 -0.264,-35.884 l -24.641,1.642 c -0.442,8.199 -2.157,35.055 -5.769,38.785 -3.517,3.633 -10.875,7.482 -12.163,8.142 z"
   id="path120" />&#10;	<path
   style="fill:#ffffff"
   d="m 1518.686,926.29 c 4.087,-2.711 11.259,-8.197 11.451,-13.55 0.192,-5.354 -5.913,-4.728 -7.777,-3.881 -1.241,0.563 0.025,-26.212 0.025,-26.212 l -41.431,-2.218 c 0,0 -6.139,23.02 -4.657,37.802 1.488,14.844 8.294,18.684 19.095,19.167 5.351,0.239 9.553,-0.92 12.88,-2.618 z"
   id="path121" />&#10;	<path
   style="fill:#0e2549"
   d="m 1496.753,938.927 c -0.473,0 -0.948,-0.011 -1.428,-0.033 -13.174,-0.589 -19.119,-6.533 -20.52,-20.516 -1.493,-14.884 4.445,-37.388 4.699,-38.339 l 0.313,-1.176 44.135,2.363 -0.07,1.488 c -0.463,9.799 -0.723,20.578 -0.468,24.272 1.726,-0.338 4.123,-0.355 5.961,0.877 1.086,0.727 2.358,2.172 2.26,4.928 -0.204,5.678 -6.704,11.153 -12.121,14.747 -0.689,0.456 -1.621,0.271 -2.079,-0.421 -0.458,-0.69 -0.27,-1.621 0.421,-2.079 6.729,-4.465 10.659,-8.968 10.781,-12.354 0.054,-1.491 -0.506,-2.043 -0.931,-2.328 -1.333,-0.892 -3.786,-0.561 -4.728,-0.134 l -0.767,0.348 -0.783,-0.479 c -0.781,-0.53 -1.75,-1.187 -0.612,-26.028 l -38.713,-2.072 c -1.203,4.854 -5.563,23.629 -4.314,36.088 1.428,14.243 7.818,17.378 17.669,17.819 4.461,0.191 8.547,-0.628 12.131,-2.456 0.736,-0.377 1.642,-0.084 2.018,0.654 0.377,0.737 0.084,1.642 -0.654,2.018 -3.662,1.869 -7.761,2.813 -12.2,2.813 z"
   id="path122" />&#10;	<path
   style="fill:#0e2549"
   d="m 1461.452,1066.925 -45.041,129.454 c 0,0 13.213,13.927 20.531,14.636 12.167,1.18 31.631,-1.008 42.22,-3.149 6.982,-1.412 39.774,5.068 52.078,4.316 32.055,-1.958 42.936,-15.803 42.936,-15.803 l -29.736,-108.85 -5.409,-18.742 z"
   id="path123" />&#10;	<path
   style="fill:#a1c5e2"
   d="m 1533.036,1213.809 c -0.853,0 -1.569,-0.665 -1.621,-1.527 -0.056,-0.897 0.627,-1.668 1.523,-1.723 27.209,-1.662 38.759,-12.022 41.233,-14.604 l -29.503,-107.997 -5.402,-18.721 c -0.249,-0.863 0.248,-1.765 1.111,-2.014 0.861,-0.251 1.766,0.249 2.014,1.111 l 5.409,18.743 29.958,109.662 -0.506,0.644 c -0.463,0.589 -11.705,14.441 -44.115,16.421 -0.033,0 -0.067,0 -0.101,0 z"
   id="path124" />&#10;	<path
   style="fill:#a1c5e2"
   d="m 1455.109,1100.134 c -0.439,0 -0.877,-0.178 -1.198,-0.526 -0.607,-0.662 -0.563,-1.69 0.098,-2.299 l 17.42,-16 c 0.661,-0.605 1.69,-0.563 2.299,0.098 0.607,0.662 0.563,1.69 -0.098,2.299 l -17.42,16 c -0.313,0.285 -0.707,0.428 -1.101,0.428 z"
   id="path125" />&#10;	<path
   style="fill:#eab7c2"
   d="m 1442.176,974.732 c -18.142,18.044 -10.551,161.96 -10.551,161.96 l 23.484,0.676 5.771,-69.038 78.149,0.458 0.182,75.821 h 22.571 c 0,0 21.056,-147.544 -0.397,-169.589 -7.264,-7.464 -17.601,-8.425 -21.143,-8.431 -10.661,-0.016 -30.413,3.706 -69.312,-1.948 -6.356,-0.925 -25.071,6.427 -28.754,10.091 z"
   id="path126" />&#10;	<path
   style="fill:#1b2746"
   d="m 1563.084,1146.108 h -25.368 l -0.181,-75.831 -75.275,-0.44 -5.774,69.069 -26.285,-0.756 -0.073,-1.381 c -0.312,-5.903 -7.414,-144.795 10.991,-163.102 v 0 c 3.887,-3.865 23.104,-11.524 30.029,-10.513 29.87,4.341 48.1,3.145 60.165,2.354 3.462,-0.229 6.486,-0.431 8.933,-0.42 2.27,0.003 14.006,0.446 22.216,8.884 21.718,22.317 1.671,164.793 0.808,170.848 z m -22.376,-3 h 19.769 c 1.996,-14.56 19.487,-146.847 -0.166,-167.044 -7.371,-7.575 -18.012,-7.973 -20.069,-7.976 -2.396,-0.034 -5.324,0.188 -8.732,0.413 -12.188,0.801 -30.61,2.011 -60.793,-2.378 -5.885,-0.863 -24.251,6.458 -27.482,9.671 -16.535,16.446 -10.89,144.637 -10.179,159.436 l 20.679,0.596 5.769,-69.005 81.025,0.474 z"
   id="path127" />&#10;	<path
   style="fill:#ffffff"
   d="m 1557.791,1167.155 c 0.809,-2.956 -2.444,-17.361 -2.444,-17.361 l 0.765,-5.186 h -10.94 c 0,0 0.31,1.862 0.291,5.552 -0.019,3.69 -9.152,14.001 -8.692,16.558 0.46,2.556 9.729,-6.313 9.729,-6.313 0,0 1.314,7.479 0.93,9.969 -0.521,3.362 -1.064,11.067 -1.01,15.819 0.013,1.099 1.476,1.461 1.993,0.492 2.846,-5.331 8.402,-15.961 9.378,-19.53 z"
   id="path128" />&#10;	<path
   style="fill:#0e2549"
   d="m 1547.499,1188.749 c -0.206,0 -0.416,-0.025 -0.626,-0.076 -1.155,-0.282 -1.94,-1.271 -1.954,-2.462 -0.058,-4.94 0.504,-12.693 1.026,-16.067 0.182,-1.177 -0.122,-4.121 -0.49,-6.722 -6.555,5.893 -8.229,5.344 -8.813,5.152 -0.706,-0.229 -1.21,-0.825 -1.349,-1.592 -0.314,-1.751 1.222,-4.17 4.194,-8.648 1.886,-2.841 4.468,-6.73 4.475,-8.182 0.018,-3.482 -0.269,-5.283 -0.271,-5.301 l -0.282,-1.74 h 14.441 l -0.979,6.629 c 0.671,2.998 3.202,14.76 2.367,17.813 -1,3.656 -6.384,14 -9.504,19.841 -0.457,0.857 -1.309,1.358 -2.235,1.358 z m -0.01,-31.368 0.486,2.765 c 0.139,0.791 1.346,7.8 0.935,10.457 -0.437,2.819 -0.918,9.119 -0.986,13.806 4.733,-8.931 7.783,-15.318 8.42,-17.648 v 0 c 0.49,-1.79 -1.144,-10.806 -2.46,-16.636 l -0.062,-0.272 0.553,-3.743 h -7.539 c 0.072,0.961 0.135,2.315 0.126,4.06 -0.011,2.184 -1.977,5.309 -4.975,9.825 -0.956,1.439 -2.227,3.354 -3.012,4.779 1.747,-1.203 4.346,-3.404 6.485,-5.451 z"
   id="path129" />&#10;	<path
   style="fill:#ffffff"
   d="m 1435.048,1159.189 c -0.808,-2.955 2.444,-17.361 2.444,-17.361 l -0.522,-5.005 10.737,0.331 c 0,0 -0.349,1.352 -0.33,5.04 0.02,3.689 9.152,14.001 8.692,16.558 -0.46,2.557 -9.728,-6.313 -9.728,-6.313 0,0 -1.314,7.479 -0.93,9.969 0.52,3.362 1.063,11.066 1.009,15.819 -0.013,1.099 -1.476,1.461 -1.993,0.492 -2.847,-5.33 -8.404,-15.961 -9.379,-19.53 z"
   id="path130" />&#10;	<path
   style="fill:#0e2549"
   d="m 1445.341,1180.783 c -0.926,0 -1.779,-0.501 -2.236,-1.358 -3.12,-5.84 -8.504,-16.184 -9.504,-19.84 v 0 c -0.837,-3.064 1.715,-14.9 2.374,-17.846 l -0.675,-6.468 14.33,0.44 -0.47,1.817 v 0 c 0,0 -0.3,1.301 -0.283,4.657 0.01,1.451 2.589,5.341 4.475,8.181 2.889,4.354 4.509,6.902 4.194,8.65 -0.139,0.767 -0.643,1.362 -1.349,1.592 -0.586,0.188 -2.265,0.733 -8.813,-5.153 -0.368,2.602 -0.672,5.546 -0.49,6.722 0.521,3.375 1.083,11.128 1.026,16.067 -0.014,1.19 -0.8,2.18 -1.955,2.462 -0.208,0.052 -0.418,0.077 -0.624,0.077 z m -8.846,-21.989 c 0.637,2.33 3.688,8.72 8.421,17.649 -0.069,-4.686 -0.551,-10.987 -0.986,-13.808 -0.411,-2.656 0.796,-9.665 0.935,-10.456 l 0.486,-2.765 2.028,1.94 c 2.147,2.054 4.756,4.263 6.503,5.464 -0.786,-1.411 -2.068,-3.343 -3.03,-4.793 -2.997,-4.516 -4.963,-7.64 -4.975,-9.824 -0.01,-1.574 0.05,-2.752 0.122,-3.601 l -7.359,-0.227 0.37,3.543 -0.055,0.24 c -1.315,5.833 -2.949,14.849 -2.46,16.638 z"
   id="path131" />&#10;	<path
   style="fill:#0e2549"
   d="m 1485.254,908.738 c -0.108,0 -0.218,-0.007 -0.328,-0.021 -1.369,-0.18 -2.333,-1.435 -2.153,-2.805 l 0.177,-1.346 c 0.18,-1.369 1.434,-2.332 2.804,-2.153 1.369,0.18 2.333,1.435 2.153,2.804 l -0.177,1.346 c -0.166,1.259 -1.24,2.175 -2.476,2.175 z"
   id="path132" />&#10;	<path
   style="fill:#0e2549"
   d="m 1503.671,909.544 c -0.109,0 -0.219,-0.007 -0.33,-0.022 -1.369,-0.18 -2.332,-1.437 -2.151,-2.805 l 0.178,-1.347 c 0.181,-1.369 1.438,-2.329 2.806,-2.151 1.369,0.18 2.332,1.437 2.151,2.805 l -0.178,1.346 c -0.167,1.259 -1.241,2.174 -2.476,2.174 z"
   id="path133" />&#10;	<path
   style="fill:#0e2549"
   d="m 1509.829,903.064 c -0.271,0 -0.544,-0.073 -0.79,-0.226 -3.051,-1.894 -6.398,-1.063 -6.435,-1.054 -0.798,0.204 -1.62,-0.276 -1.826,-1.078 -0.207,-0.802 0.275,-1.62 1.078,-1.827 0.186,-0.048 4.634,-1.153 8.765,1.411 0.704,0.436 0.92,1.361 0.483,2.065 -0.284,0.458 -0.774,0.709 -1.275,0.709 z"
   id="path134" />&#10;	<path
   style="fill:#0e2549"
   d="m 1491.308,917.317 c -0.125,0 -0.251,-0.016 -0.377,-0.047 -0.941,-0.24 -5.242,-2.44 -4.976,-5.504 0.102,-1.181 0.723,-2.004 1.322,-2.801 0.516,-0.685 1.1,-1.46 1.557,-2.69 1.205,-3.246 0.966,-4.204 0.863,-4.42 -0.073,-0.157 -0.336,-0.262 -0.876,-0.449 l -0.371,-0.132 c -1.438,-0.533 -4.736,-0.11 -6.477,0.282 -0.809,0.186 -1.611,-0.324 -1.794,-1.132 -0.183,-0.808 0.324,-1.611 1.132,-1.794 0.549,-0.125 5.446,-1.185 8.184,-0.169 l 0.308,0.109 c 0.792,0.274 1.987,0.688 2.607,2.004 0.674,1.426 0.438,3.507 -0.764,6.744 -0.609,1.642 -1.397,2.688 -1.973,3.451 -0.462,0.612 -0.703,0.947 -0.73,1.255 -0.056,0.648 1.911,2.055 2.773,2.351 0.802,0.205 1.265,1.016 1.061,1.818 -0.173,0.677 -0.797,1.124 -1.469,1.124 z"
   id="path135" />&#10;	<polygon
   style="fill:#eab7c2"
   points="1497.222,966.991 1505.884,978.102 1539.089,967.635 1525.829,956.524 "
   id="polygon135" />&#10;	<path
   style="fill:#1b2746"
   d="m 1505.341,979.846 -10.568,-13.556 31.355,-11.473 16.021,13.425 z m -5.67,-12.154 6.756,8.665 29.602,-9.33 -10.498,-8.796 z"
   id="path136" />&#10;	<polygon
   style="fill:#eab7c2"
   points="1497.222,966.991 1488.715,976.653 1466.063,966.267 1475.932,956.524 "
   id="polygon136" />&#10;	<path
   style="fill:#1b2746"
   d="m 1489.104,978.481 -25.64,-11.756 12.173,-12.017 24.007,11.803 z m -20.441,-12.672 19.663,9.016 6.474,-7.353 -18.573,-9.131 z"
   id="path137" />&#10;	<path
   style="fill:#0e2549"
   d="m 1539.202,1091.354 c -0.016,0 -0.032,0 -0.048,0 -0.872,-0.026 -1.558,-0.754 -1.532,-1.626 l 2.084,-69.816 c 0.027,-0.872 0.752,-1.543 1.626,-1.532 0.872,0.026 1.558,0.754 1.532,1.626 l -2.084,69.816 c -0.026,0.857 -0.727,1.532 -1.578,1.532 z"
   id="path138" />&#10;	<path
   style="fill:#0e2549"
   d="m 1484.869,919.666 c -0.676,0.747 2.556,6.786 5.406,6.788 7.167,0.006 9.641,-8.104 8.027,-7.302 -0.608,0.303 -4.225,1.923 -7.771,1.663 -4.547,-0.334 -4.895,-1.997 -5.662,-1.149 z"
   id="path139" />&#10;	<path
   style="fill:#0e2549"
   d="m 1495.687,1069.246 c -0.01,0 -0.015,0 -0.022,0 -0.829,-0.013 -1.49,-0.694 -1.478,-1.522 l 1.503,-98.955 c 0.013,-0.821 0.682,-1.478 1.5,-1.478 0.01,0 0.015,0 0.022,0 0.829,0.013 1.49,0.694 1.478,1.522 l -1.503,98.955 c -0.013,0.822 -0.682,1.478 -1.5,1.478 z"
   id="path140" />&#10;	<path
   style="fill:#0e2549"
   d="m 1477.426,880.427 c 0,0 37.74,10.797 44.381,29.322 0,0 2.391,-0.957 4.07,-0.754 2.166,0.261 2.905,1.023 2.905,1.023 l -1.155,-30.745 z"
   id="path141" />&#10;	<path
   style="fill:#0e2549"
   d="m 1561.783,1146.108 h -24.071 l -0.011,-56.333 c 0,-0.828 0.671,-1.5 1.5,-1.5 0.828,0 1.5,0.671 1.5,1.5 l 0.011,53.333 h 21.071 c 0.828,0 1.5,0.672 1.5,1.5 0,0.828 -0.672,1.5 -1.5,1.5 z"
   id="path142" />&#10;	<path
   style="fill:#a1c5e2"
   d="m 1534.035,1100.134 c -0.333,0 -0.669,-0.103 -0.958,-0.313 l -21.908,-16 c -0.726,-0.529 -0.885,-1.547 -0.354,-2.272 0.53,-0.728 1.548,-0.882 2.272,-0.354 l 21.908,16 c 0.726,0.529 0.885,1.547 0.354,2.272 -0.318,0.435 -0.813,0.667 -1.314,0.667 z"
   id="path143" />&#10;	<path
   style="fill:#1b2746"
   d="m 1460.882,1069.829 c -0.03,0 -0.062,-10e-4 -0.093,0 -0.826,-0.051 -1.456,-0.762 -1.405,-1.589 l 3.177,-52.01 c 0.051,-0.825 0.742,-1.448 1.589,-1.405 0.826,0.051 1.456,0.762 1.405,1.589 l -3.177,52.01 c -0.049,0.795 -0.709,1.408 -1.496,1.408 z"
   id="path144" />&#10;</g><g
     id="g160">&#10;	<path
   style="fill:#0e2549"
   d="M 1324.999,851.765 H 995.705 c -10.526,0 -19.059,-8.533 -19.059,-19.058 v 0 c 0,-10.526 8.533,-19.059 19.059,-19.059 h 329.294 c 10.526,0 19.06,8.533 19.06,19.059 v 0 c 0,10.525 -8.534,19.058 -19.06,19.058 z"
   id="path145" />&#10;	<path
   style="fill:#f9e5ef"
   d="m 1383.588,603.294 c 0,-34.604 -25.41,-63.273 -58.589,-68.37 v -0.807 h -10.588 -230.118 -23.646 c -37.23,0 -67.412,30.181 -67.412,67.412 V 832.706 H 1325 V 654.824 h 58.589 v -51.53 z"
   id="path146" />&#10;	<path
   style="fill:#1b2746"
   d="M 1326.499,834.206 H 991.734 V 601.529 c 0,-37.998 30.914,-68.912 68.912,-68.912 h 265.853 v 1.031 c 16.014,2.764 30.664,11.045 41.371,23.413 11.103,12.827 17.218,29.246 17.218,46.232 v 53.029 h -58.589 z m -331.765,-3 h 328.765 V 653.323 h 58.589 v -50.029 c 0,-33.112 -24.641,-61.868 -57.316,-66.888 l -1.272,-0.195 v -0.593 h -262.853 c -36.344,0 -65.912,29.568 -65.912,65.912 v 229.676 z"
   id="path147" />&#10;	<path
   style="fill:#1b2746"
   d="m 1301.94,656.323 h -197.97 v -67.301 c 0,-25.815 -22.199,-46.816 -49.486,-46.816 -0.828,0 -1.5,-0.672 -1.5,-1.5 0,-0.829 0.672,-1.5 1.5,-1.5 28.941,0 52.486,22.348 52.486,49.816 v 64.301 h 194.971 c 0.828,0 1.5,0.672 1.5,1.5 -10e-4,0.829 -0.672,1.5 -1.501,1.5 z"
   id="path148" />&#10;	<path
   style="fill:#0e2549"
   d="m 1050.365,779.116 c 0,-11.895 -20.606,-10.53 -20.606,-17.681 0,-3.25 2.73,-5.33 7.087,-5.33 4.289,0 6.631,1.366 9.555,3.705 l 2.861,-3.185 c -2.623,-2.564 -5.625,-4.54 -10.336,-4.925 v -8.531 h -3.9 v 8.579 c -6.291,0.688 -10.596,4.331 -10.596,9.817 0,11.311 20.605,9.881 20.605,17.941 0,3.315 -2.729,5.59 -7.8,5.59 -4.876,0 -8.841,-2.015 -12.091,-4.419 l -2.535,3.769 c 2.992,2.523 7.624,4.656 12.416,5.053 v 9.443 h 3.9 v -9.493 c 6.891,-0.733 11.44,-4.709 11.44,-10.333 z"
   id="path149" />&#10;	<path
   style="fill:#0e2549"
   d="m 1089.543,779.116 c 0,-11.895 -20.607,-10.53 -20.607,-17.681 0,-3.25 2.73,-5.33 7.086,-5.33 4.291,0 6.63,1.366 9.555,3.705 l 2.861,-3.185 c -2.622,-2.563 -5.624,-4.54 -10.336,-4.925 v -8.531 h -3.9 v 8.579 c -6.29,0.688 -10.596,4.331 -10.596,9.817 0,11.311 20.607,9.881 20.607,17.941 0,3.315 -2.73,5.59 -7.801,5.59 -4.875,0 -8.841,-2.015 -12.092,-4.419 l -2.533,3.769 c 2.99,2.523 7.623,4.657 12.414,5.053 v 9.443 h 3.9 v -9.493 c 6.893,-0.733 11.442,-4.709 11.442,-10.333 z"
   id="path150" />&#10;	<path
   style="fill:#0e2549"
   d="m 1128.365,779.116 c 0,-11.896 -20.606,-10.53 -20.606,-17.681 0,-3.25 2.73,-5.331 7.087,-5.331 4.289,0 6.631,1.366 9.555,3.706 l 2.861,-3.185 c -2.623,-2.564 -5.625,-4.54 -10.336,-4.925 v -8.531 h -3.9 v 8.578 c -6.291,0.688 -10.596,4.331 -10.596,9.817 0,11.31 20.605,9.881 20.605,17.941 0,3.315 -2.729,5.589 -7.8,5.589 -4.876,0 -8.841,-2.014 -12.091,-4.42 l -2.535,3.77 c 2.992,2.523 7.624,4.656 12.416,5.053 v 9.443 h 3.9 v -9.493 c 6.891,-0.731 11.44,-4.707 11.44,-10.331 z"
   id="path151" />&#10;	<path
   style="fill:#1b2746"
   d="m 1310.176,724.088 h -297.529 c -0.828,0 -1.5,-0.671 -1.5,-1.5 0,-0.829 0.672,-1.5 1.5,-1.5 h 297.529 c 0.828,0 1.5,0.671 1.5,1.5 0,0.829 -0.672,1.5 -1.5,1.5 z"
   id="path152" />&#10;	<path
   style="fill:#0e2549"
   d="m 1021.477,674.099 h 6.223 l 5.613,17.081 1.951,6.466 h 0.244 l 1.891,-6.466 5.674,-17.081 h 6.223 v 40.019 h -4.881 v -20.009 c 0,-3.904 0.611,-10.737 0.855,-14.154 h -0.185 l -2.257,7.809 -5.734,15.74 h -3.66 l -5.612,-15.74 -2.317,-7.809 h -0.123 c 0.366,3.417 0.854,10.25 0.854,14.154 v 20.009 h -4.758 v -40.019 z"
   id="path153" />&#10;	<path
   style="fill:#0e2549"
   d="m 1056.613,693.925 c 0,-12.933 6.343,-20.559 15.372,-20.559 9.028,0 15.374,7.626 15.374,20.559 0,13.116 -6.346,20.924 -15.374,20.924 -9.029,10e-4 -15.372,-7.808 -15.372,-20.924 z m 25.438,0 c 0,-10.066 -4.025,-16.045 -10.065,-16.045 -6.04,0 -10.065,5.979 -10.065,16.045 0,10.249 4.025,16.41 10.065,16.41 6.04,0 10.065,-6.161 10.065,-16.41 z"
   id="path154" />&#10;	<path
   style="fill:#0e2549"
   d="m 1124.02,714.117 -10.164,-17.48 c 5.413,-1.338 9.004,-5.034 9.004,-11.253 0,-8.357 -5.917,-11.285 -14.029,-11.285 h -12.508 v 40.019 h 5.186 V 697.22 h 7.084 l 9.633,16.898 h 5.794 z m -22.512,-35.87 h 6.589 c 6.224,0 9.639,1.891 9.639,7.137 0,5.125 -3.415,7.688 -9.639,7.688 h -6.589 z"
   id="path155" />&#10;	<path
   style="fill:#0e2549"
   d="m 1142.621,678.43 h -13.238 v -4.331 h 31.602 v 4.331 h -13.238 v 35.688 h -5.125 V 678.43 Z"
   id="path156" />&#10;	<path
   style="fill:#0e2549"
   d="m 1166.715,694.108 c 0,-12.933 7.382,-20.742 17.752,-20.742 5.309,0 8.785,2.501 11.042,4.88 l -2.928,3.233 c -1.892,-2.013 -4.271,-3.599 -8.114,-3.599 -7.503,0 -12.383,6.162 -12.383,16.106 0,10.065 4.453,16.349 12.262,16.349 2.806,0 5.43,-0.854 6.893,-2.318 v -10.432 h -7.93 v -4.21 h 12.688 v 16.837 c -2.501,2.563 -6.771,4.637 -11.956,4.637 -10.066,10e-4 -17.326,-7.686 -17.326,-20.741 z"
   id="path157" />&#10;	<path
   style="fill:#0e2549"
   d="m 1229.303,714.117 h 5.49 l -13.482,-40.019 h -5.855 l -13.482,40.019 h 5.246 l 3.815,-12.14 h 14.521 z m -16.966,-16.287 1.897,-6.04 c 1.404,-4.454 2.684,-8.846 3.965,-13.482 h 0.244 c 1.22,4.637 2.563,9.028 3.966,13.482 l 1.865,6.04 z"
   id="path158" />&#10;	<path
   style="fill:#0e2549"
   d="m 1239.914,694.108 c 0,-12.933 7.383,-20.742 17.752,-20.742 5.309,0 8.785,2.501 11.043,4.88 l -2.929,3.233 c -1.892,-2.013 -4.271,-3.599 -8.114,-3.599 -7.503,0 -12.383,6.162 -12.383,16.106 0,10.065 4.452,16.349 12.261,16.349 2.808,0 5.431,-0.854 6.895,-2.318 v -10.432 h -7.931 v -4.21 h 12.688 v 16.837 c -2.501,2.563 -6.771,4.637 -11.957,4.637 -10.065,10e-4 -17.325,-7.686 -17.325,-20.741 z"
   id="path159" />&#10;	<path
   style="fill:#0e2549"
   d="m 1280.234,674.099 h 24.77 v 4.331 h -19.645 v 12.506 h 16.593 v 4.332 h -16.593 v 14.519 h 20.254 v 4.331 h -25.379 z"
   id="path160" />&#10;</g><g
     id="g162">&#10;	<path
   style="fill:#f9e8f2"
   d="m 1753.08,1318.732 c 0,18.323 -14.854,33.177 -33.177,33.177 -18.322,0 -33.176,-14.854 -33.176,-33.177 0,-18.322 14.854,-33.176 33.176,-33.176 18.324,10e-4 33.177,14.854 33.177,33.176 z"
   id="path161" />&#10;	<path
   style="fill:#f9e8f2"
   d="m 1860.283,1432.471 c 0,18.322 -14.854,33.177 -33.176,33.177 -18.323,0 -33.177,-14.854 -33.177,-33.177 0,-18.323 14.854,-33.177 33.177,-33.177 18.323,0 33.176,14.853 33.176,33.177 z"
   id="path162" />&#10;	&#10;		<rect
   x="1658.46"
   y="1364.368"
   transform="matrix(0.7071,-0.7071,0.7071,0.7071,-452.0254,1658.6272)"
   style="fill:#f9e8f2"
   width="235.33501"
   height="21.177"
   id="rect162" />&#10;</g><path
     style="fill:#f9e8f2"
     d="m 287.539,1353.013 c 0,-66.796 -115.707,-59.131 -115.707,-99.282 0,-18.25 15.33,-29.93 39.785,-29.93 24.091,0 37.231,7.665 53.656,20.805 l 16.06,-17.885 c -14.737,-14.41 -31.539,-25.58 -58.036,-27.726 v -47.831 h -21.9 v 48.122 c -35.337,3.854 -59.496,24.354 -59.496,55.175 0,63.511 115.706,55.48 115.706,100.741 0,18.615 -15.33,31.391 -43.8,31.391 -27.375,0 -49.641,-11.315 -67.891,-24.82 l -14.235,21.17 c 16.797,14.162 42.807,26.241 69.716,28.466 v 52.931 h 21.9 v -53.247 c 38.724,-4.106 64.242,-26.491 64.242,-58.08 z"
     id="path163" /><path
     style="fill:#1b2746"
     d="M 1866.818,1467.382 H 151.823 c -0.829,0 -1.5,-0.672 -1.5,-1.5 0,-0.828 0.671,-1.5 1.5,-1.5 h 1714.995 c 0.828,0 1.5,0.672 1.5,1.5 0,0.828 -0.672,1.5 -1.5,1.5 z"
     id="path164" /></g>&#10;</svg>
