<svg class="border shadow-md" viewBox="0 0 343.2 193.05" xmlns="http://www.w3.org/2000/svg" preserveAspectRatio="none" style="width: 343.2px; height: 193.05px;"><rect class="bg" id="bg" x="0" y="0" width="343.2" height="193.05" fill="#f1f5f9"></rect><g><path d="M 0 -55.61V -44.488 H 17.16 V -22.244 H 34.32 V -55.61 H 51.480000000000004 V -88.976 H 68.64 V -55.61 H 85.8 V -77.854 H 102.96000000000001 V -44.488 H 120.12 V -77.854 H 137.28 V -33.366 H 154.44 V -22.244 H 171.6 V -22.244 H 188.76 V -33.366 H 205.92000000000002 V -44.488 H 223.08 V -22.244 H 240.24 V -66.732 H 257.4 V -22.244 H 274.56 V -33.366 H 291.72 V -33.366 H 308.88 V -55.61 H 326.04 V -44.488 H 343.2 V 194.05 H 0 V -55.61 Z" fill="#FFFFFF"></path></g><g><path d="M 0 0V 11.122 H 17.16 V 22.244 H 34.32 V 0 H 51.480000000000004 V 0 H 68.64 V 22.244 H 85.8 V 0 H 102.96000000000001 V 0 H 120.12 V 22.244 H 137.28 V -11.122 H 154.44 V -11.122 H 171.6 V 33.366 H 188.76 V 0 H 205.92000000000002 V 11.122 H 223.08 V 0 H 240.24 V 11.122 H 257.4 V 33.366 H 274.56 V 11.122 H 291.72 V 33.366 H 308.88 V 11.122 H 326.04 V -22.244 H 343.2 V 194.05 H 0 V 0 Z" fill="#f7f9fa"></path></g><g><path d="M 0 55.61V 55.61 H 17.16 V 55.61 H 34.32 V 55.61 H 51.480000000000004 V 66.732 H 68.64 V 88.976 H 85.8 V 77.854 H 102.96000000000001 V 88.976 H 120.12 V 33.366 H 137.28 V 22.244 H 154.44 V 55.61 H 171.6 V 22.244 H 188.76 V 77.854 H 205.92000000000002 V 66.732 H 223.08 V 55.61 H 240.24 V 88.976 H 257.4 V 77.854 H 274.56 V 66.732 H 291.72 V 88.976 H 308.88 V 33.366 H 326.04 V 22.244 H 343.2 V 194.05 H 0 V 55.61 Z" fill="#eff3f5"></path></g><g><path d="M 0 111.22V 122.342 H 17.16 V 77.854 H 34.32 V 100.098 H 51.480000000000004 V 111.22 H 68.64 V 88.976 H 85.8 V 133.464 H 102.96000000000001 V 88.976 H 120.12 V 122.342 H 137.28 V 111.22 H 154.44 V 100.098 H 171.6 V 133.464 H 188.76 V 100.098 H 205.92000000000002 V 111.22 H 223.08 V 144.586 H 240.24 V 122.342 H 257.4 V 144.586 H 274.56 V 122.342 H 291.72 V 144.586 H 308.88 V 100.098 H 326.04 V 133.464 H 343.2 V 194.05 H 0 V 111.22 Z" fill="#e7edf0"></path></g><g><path d="M 0 166.82999999999998V 144.58599999999998 H 17.16 V 155.70799999999997 H 34.32 V 189.07399999999998 H 51.480000000000004 V 177.952 H 68.64 V 189.07399999999998 H 85.8 V 133.464 H 102.96000000000001 V 166.82999999999998 H 120.12 V 200.19599999999997 H 137.28 V 177.952 H 154.44 V 166.82999999999998 H 171.6 V 177.952 H 188.76 V 177.952 H 205.92000000000002 V 166.82999999999998 H 223.08 V 200.19599999999997 H 240.24 V 189.07399999999998 H 257.4 V 177.952 H 274.56 V 155.70799999999997 H 291.72 V 189.07399999999998 H 308.88 V 189.07399999999998 H 326.04 V 177.952 H 343.2 V 194.05 H 0 V 166.82999999999998 Z" fill="#dfe7eb"></path></g><g><path d="M 0 222.44V 222.44 H 17.16 V 233.562 H 34.32 V 211.31799999999998 H 51.480000000000004 V 222.44 H 68.64 V 255.80599999999998 H 85.8 V 200.196 H 102.96000000000001 V 244.684 H 120.12 V 211.31799999999998 H 137.28 V 255.80599999999998 H 154.44 V 222.44 H 171.6 V 222.44 H 188.76 V 200.196 H 205.92000000000002 V 244.684 H 223.08 V 222.44 H 240.24 V 189.074 H 257.4 V 244.684 H 274.56 V 244.684 H 291.72 V 244.684 H 308.88 V 233.562 H 326.04 V 200.196 H 343.2 V 194.05 H 0 V 222.44 Z" fill="#d7e1e6"></path></g></svg>