<?xml version="1.0" encoding="UTF-8" standalone="no"?>
<!-- Uploaded to: SVG Repo, www.svgrepo.com, Generator: SVG Repo Mixer Tools -->

<svg
   height="32"

   version="1.1"
   id="_x32_"
   viewBox="0 0 1417.8742 370.56703"
   xml:space="preserve"
   sodipodi:docname="logo.svg"
   inkscape:export-filename="../literaturereview/logo.svg"
   inkscape:export-xdpi="150.78299"
   inkscape:export-ydpi="150.78299"
   xmlns:inkscape="http://www.inkscape.org/namespaces/inkscape"
   xmlns:sodipodi="http://sodipodi.sourceforge.net/DTD/sodipodi-0.dtd"
   xmlns:xlink="http://www.w3.org/1999/xlink"
   xmlns="http://www.w3.org/2000/svg"
   xmlns:svg="http://www.w3.org/2000/svg"><defs
   id="defs1"><linearGradient
     id="linearGradient4"
     inkscape:collect="always"><stop
       style="stop-color:#20c4ff;stop-opacity:1;"
       offset="0"
       id="stop4" /><stop
       style="stop-color:#005d95;stop-opacity:1;"
       offset="1"
       id="stop5" /></linearGradient><linearGradient
     inkscape:collect="always"
     xlink:href="#linearGradient4"
     id="linearGradient5"
     x1="19.341852"
     y1="187.04572"
     x2="418.61908"
     y2="187.04572"
     gradientUnits="userSpaceOnUse"
     gradientTransform="translate(-11.52)" /></defs><sodipodi:namedview
   id="namedview1"
   pagecolor="#ffffff"
   bordercolor="#cccccc"
   borderopacity="1"
   inkscape:showpageshadow="0"
   inkscape:pageopacity="1"
   inkscape:pagecheckerboard="0"
   inkscape:deskcolor="#d1d1d1" />&#10;<style
   type="text/css"
   id="style1">&#10;	.st0{fill:#000000;}&#10;</style>&#10;&#10;<g
   id="g6"><path
     d="M 9.81737,313.13417 A 35.458421,35.458421 0 0 1 28.082471,292.63618 L 95.06942,259.76794 A 58.055351,58.055351 0 0 1 83.904924,230.24901 C 81.627375,203.09697 100.2944,175.94493 135.26158,155.93816 l 14.06727,-7.36856 V 74.169437 a 8.9315924,8.9315924 0 0 1 4.46579,-7.859805 l 16.47879,-8.931586 V 22.366201 a 8.9315924,8.9315924 0 0 1 17.86318,0 v 25.499693 l 50.10624,-26.794776 a 8.9315924,8.9315924 0 0 1 8.44035,0 l 84.85013,45.238514 a 8.9315924,8.9315924 0 0 1 4.4658,7.859805 v 62.253193 l 8.93158,3.34936 c 37.28941,14.37986 60.06497,38.18254 62.02992,65.24527 1.78632,25.45504 -13.75466,50.32952 -44.25604,69.97901 -28.84904,18.57773 -68.01408,30.63538 -110.26051,33.94006 -7.68117,0.58056 -15.31768,0.89316 -22.82022,0.89316 A 234.32031,234.32031 0 0 1 143.47865,294.55648 L 64.880631,353.54963 A 36.217607,36.217607 0 0 1 43.578768,360.65025 35.72637,35.72637 0 0 1 8.790245,316.66214 c 0.312598,-1.11645 0.625204,-2.27755 1.027125,-3.34934 z M 317.95731,201.80189 V 79.528388 L 242.48536,38.978965 166.96873,79.528388 V 201.80189 a 8.9315924,8.9315924 0 0 1 -17.86318,0 V 168.755 c -19.29224,10.67325 -29.96549,23.40077 -28.84905,34.92252 2.67948,24.29393 57.34083,48.18595 132.18758,43.22891 50.91008,-3.21538 97.04176,-19.56019 114.94959,-40.50477 a 25.455038,25.455038 0 0 0 7.14527,-18.30977 c -0.8485,-8.93159 -8.57432,-17.86318 -21.3465,-25.05312 -3.26003,-1.697 -14.82644,-6.52005 -17.14865,-7.18992 v 45.95304 a 8.9315953,8.9315953 0 0 1 -17.86319,0 z m -66.98694,89.31592 c 39.34366,-3.08141 75.56126,-14.11192 101.95412,-31.26056 24.74052,-15.9429 37.60201,-34.9672 36.12829,-53.58956 v -1.25043 a 52.741053,52.741053 0 0 1 -8.03843,12.6382 c -21.39116,25.36572 -70.24697,43.27357 -127.18588,46.89088 -6.87732,0.44659 -13.66533,0.66987 -20.27471,0.66987 -66.98695,0 -119.90663,-21.61447 -129.5081,-53.05367 a 39.254348,39.254348 0 0 0 -2.50084,16.52344 c 1.47372,18.57771 17.05934,35.36911 43.9881,47.29277 28.71506,12.90616 66.22775,18.35443 105.52676,15.13906 z M 27.457248,332.78368 a 17.863185,17.863185 0 0 0 24.025996,8.21709 19.649503,19.649503 0 0 0 2.947436,-1.74168 l 71.00615,-53.58955 a 108.34022,108.34022 0 0 1 -17.86318,-12.45957 l -71.452728,35.27977 a 17.863185,17.863185 0 0 0 -9.244231,10.13736 17.416605,17.416605 0 0 0 0.848507,13.9333 z"
     id="path1-6"
     style="fill:url(#linearGradient5);stroke-width:4.46579"
     inkscape:label="path1-6" /><g
     id="g5"
     transform="matrix(1.0630737,0,0,1.0630737,-63.825721,-23.356441)"><text
       xml:space="preserve"
       style="font-style:normal;font-variant:normal;font-weight:500;font-stretch:normal;font-size:130.703px;font-family:Inter;-inkscape-font-specification:'Inter, Medium';font-variant-ligatures:normal;font-variant-caps:normal;font-variant-numeric:normal;font-variant-east-asian:normal;fill:#005d95;fill-opacity:1;stroke:#383838;stroke-width:0;stroke-opacity:0.0202329;paint-order:stroke fill markers"
       x="478.70422"
       y="168.33774"
       id="text2"><tspan
         sodipodi:role="line"
         id="tspan2"
         style="font-style:normal;font-variant:normal;font-weight:500;font-stretch:normal;font-size:130.703px;font-family:Inter;-inkscape-font-specification:'Inter, Medium';font-variant-ligatures:normal;font-variant-caps:normal;font-variant-numeric:normal;font-variant-east-asian:normal;fill:#005d95;fill-opacity:1;stroke-width:0"
         x="478.70422"
         y="168.33774">H A B I G A N J</tspan></text><text
       xml:space="preserve"
       style="font-style:normal;font-variant:normal;font-weight:600;font-stretch:normal;font-size:149.39px;font-family:Inter;-inkscape-font-specification:'Inter, Semi-Bold';font-variant-ligatures:normal;font-variant-caps:normal;font-variant-numeric:normal;font-variant-east-asian:normal;fill:#20c4ff;fill-opacity:1;stroke:#383838;stroke-width:0;stroke-opacity:0.0202329;paint-order:stroke fill markers"
       x="475.21524"
       y="308.32858"
       id="text2-1"><tspan
         sodipodi:role="line"
         id="tspan1"
         x="475.21524"
         y="308.32858"
         style="font-style:normal;font-variant:normal;font-weight:600;font-stretch:normal;font-size:149.39px;font-family:Inter;-inkscape-font-specification:'Inter, Semi-Bold';font-variant-ligatures:normal;font-variant-caps:normal;font-variant-numeric:normal;font-variant-east-asian:normal;fill:#20c4ff;fill-opacity:1;stroke-width:0">PROPERTIES</tspan></text></g></g></svg>
