<?xml version="1.0" encoding="UTF-8" standalone="no"?>
<!-- Uploaded to: SVG Repo, www.svgrepo.com, Generator: SVG Repo Mixer Tools -->

<svg
   height="32"
 
   version="1.1"
   id="_x32_"
   viewBox="0 0 1417.8742 370.56703"
   xml:space="preserve"
   sodipodi:docname="home-svgrepo-com.svg"
   inkscape:export-filename="logo.svg"
   inkscape:export-xdpi="150.78299"
   inkscape:export-ydpi="150.78299"
   xmlns:inkscape="http://www.inkscape.org/namespaces/inkscape"
   xmlns:sodipodi="http://sodipodi.sourceforge.net/DTD/sodipodi-0.dtd"
   xmlns="http://www.w3.org/2000/svg"
   xmlns:svg="http://www.w3.org/2000/svg"><defs
   id="defs1" /><sodipodi:namedview
   id="namedview1"
   pagecolor="#ffffff"
   bordercolor="#cccccc"
   borderopacity="1"
   inkscape:showpageshadow="0"
   inkscape:pageopacity="1"
   inkscape:pagecheckerboard="0"
   inkscape:deskcolor="#d1d1d1" />&#10;<style
   type="text/css"
   id="style1">&#10;	.st0{fill:#000000;}&#10;</style>&#10;&#10;<g
   id="g4"
   transform="translate(-66.01977,-56.713957)"><g
     id="g2"
     transform="matrix(2.0662623,0,0,2.0662623,192.9954,105.40619)"><path
       d="m 143.75213,131.23334 a 18.314987,18.314987 0 0 0 -9.43429,-10.58762 L 99.717732,103.66861 A 29.986756,29.986756 0 0 0 105.48442,88.42149 C 106.66082,74.396916 97.018929,60.372341 78.957675,50.038443 L 71.691653,46.232432 V 7.8032512 A 4.613347,4.613347 0 0 0 69.38498,3.7435054 L 60.873354,-0.86984097 V -18.954161 a 4.613347,4.613347 0 0 0 -9.226693,0 V -5.7830554 L 25.765784,-19.623096 a 4.613347,4.613347 0 0 0 -4.359613,0 L -22.420624,3.7435054 a 4.613347,4.613347 0 0 0 -2.306674,4.0597458 V 39.95828 l -4.613347,1.730006 c -19.260724,7.427488 -31.024759,19.722058 -32.039696,33.700498 -0.922669,13.148039 7.104556,25.996206 22.859135,36.145566 14.901111,9.59577 35.1306371,15.82379 56.951769,17.53072 3.967479,0.29987 7.91189,0.46134 11.787102,0.46134 a 121.03115,121.03115 0 0 0 44.495731,-7.88882 l 40.597454,30.47115 a 18.707122,18.707122 0 0 0 11.00284,3.66761 18.453388,18.453388 0 0 0 17.96897,-22.72074 c -0.16146,-0.57667 -0.32293,-1.1764 -0.53053,-1.73 z M -15.408338,73.72798 V 10.57126 L 23.574444,-10.373336 62.580293,10.57126 v 63.15672 a 4.613347,4.613347 0 0 0 9.226694,0 V 56.658596 c 9.964829,5.51295 15.477779,12.086969 14.90111,18.038187 C 85.324093,87.245087 57.09041,99.585791 18.430563,97.025383 -7.8655157,95.364577 -31.693453,86.922152 -40.943213,76.103854 a 13.148039,13.148039 0 0 1 -3.690677,-9.457362 c 0.438268,-4.613346 4.428813,-9.226693 11.025898,-12.940438 1.683872,-0.876536 7.658156,-3.367743 8.857627,-3.713744 v 23.73567 a 4.613347,4.613347 0 0 0 9.226694,0 z m 34.600103,46.13347 C -1.1300287,118.26984 -19.83715,112.57236 -33.469591,103.71474 -46.248562,95.479912 -52.891782,85.653482 -52.130579,76.034654 v -0.64587 a 27.241814,27.241814 0 0 0 4.152012,6.527887 c 11.048966,13.101906 36.283974,22.351669 65.694061,24.220079 3.552277,0.23067 7.058422,0.346 10.472298,0.346 34.600101,0 61.934182,-11.164305 66.893531,-27.403287 a 20.27566,20.27566 0 0 1 1.291737,8.534692 c -0.761203,9.595758 -8.811493,18.268855 -22.720734,24.427665 -14.831911,6.66629 -34.207968,9.48043 -54.506694,7.81963 z m 115.449015,21.52126 a 9.226694,9.226694 0 0 1 -12.40991,4.24429 10.149363,10.149363 0 0 1 -1.52241,-0.89961 L 84.032357,117.04731 a 55.959899,55.959899 0 0 0 9.226694,-6.43562 l 36.906769,18.22271 a 9.226694,9.226694 0 0 1 4.77483,5.23615 8.9960267,8.9960267 0 0 1 -0.43827,7.19683 z"
       id="path1-6"
       style="stroke-width:2.30667" /></g><g
     id="g3"
     transform="translate(-34.290169,-27.710648)"><text
       xml:space="preserve"
       style="font-style:normal;font-variant:normal;font-weight:bold;font-stretch:normal;font-size:170.667px;font-family:Inter;-inkscape-font-specification:'Inter, Bold';font-variant-ligatures:normal;font-variant-caps:normal;font-variant-numeric:normal;font-variant-east-asian:normal;fill:currentColor;fill-opacity:1;stroke:currentColor;stroke-width:0;stroke-opacity:0.0202329;paint-order:stroke fill markers"
       x="510.7467"
       y="221.98018"
       id="text2"><tspan
         sodipodi:role="line"
         id="tspan2"
         style="font-style:normal;font-variant:normal;font-weight:bold;font-stretch:normal;font-size:170.667px;font-family:Inter;-inkscape-font-specification:'Inter, Bold';font-variant-ligatures:normal;font-variant-caps:normal;font-variant-numeric:normal;font-variant-east-asian:normal;fill:currentColor;fill-opacity:1;stroke-width:0"
         x="510.7467"
         y="221.98018">HABIGANJ</tspan></text><text
       xml:space="preserve"
       style="font-style:normal;font-variant:normal;font-weight:300;font-stretch:normal;font-size:170.667px;font-family:Inter;-inkscape-font-specification:'Inter, Light';font-variant-ligatures:normal;font-variant-caps:normal;font-variant-numeric:normal;font-variant-east-asian:normal;fill:currentColor;fill-opacity:1;stroke:currentColor;stroke-width:0;stroke-opacity:0.0202329;paint-order:stroke fill markers"
       x="508.85016"
       y="372.57925"
       id="text2-1"><tspan
         sodipodi:role="line"
         id="tspan2-8"
         style="font-style:normal;font-variant:normal;font-weight:300;font-stretch:normal;font-size:170.667px;font-family:Inter;-inkscape-font-specification:'Inter, Light';font-variant-ligatures:normal;font-variant-caps:normal;font-variant-numeric:normal;font-variant-east-asian:normal;fill:currentColor;fill-opacity:1;stroke-width:0"
         x="508.85016"
         y="372.57925">PROPERTIES</tspan></text></g></g></svg>
