<?xml version="1.0" encoding="UTF-8" standalone="no"?>
<!-- Created with Inkscape (http://www.inkscape.org/) -->

<svg
   width="165.78683"
   height="48.718105"
   viewBox="0 0 43.864431 12.889999"
   version="1.1"
   id="svg1"
   xml:space="preserve"
   inkscape:export-filename="hplogo.svg"
   inkscape:export-xdpi="96"
   inkscape:export-ydpi="96"
   xmlns:inkscape="http://www.inkscape.org/namespaces/inkscape"
   xmlns:sodipodi="http://sodipodi.sourceforge.net/DTD/sodipodi-0.dtd"
   xmlns="http://www.w3.org/2000/svg"
   xmlns:svg="http://www.w3.org/2000/svg"><sodipodi:namedview
     id="namedview1"
     pagecolor="#ffffff"
     bordercolor="#cccccc"
     borderopacity="1"
     inkscape:showpageshadow="0"
     inkscape:pageopacity="1"
     inkscape:pagecheckerboard="0"
     inkscape:deskcolor="#d1d1d1"
     inkscape:document-units="px" /><defs
     id="defs1"><pattern
       patternUnits="userSpaceOnUse"
       width="65.124887"
       height="9.2383352"
       patternTransform="translate(3.5549099,15.750712)"
       preserveAspectRatio="xMidYMid"
       id="pattern4"><path
         d="M 1.8897638e-6,9.1153898 V 0.12294539 H 2.4413103 V 3.6356191 H 5.67297 V 0.12294539 H 8.114278 V 9.1153898 H 5.67297 V 5.6027162 H 2.4413103 v 3.5126736 z m 11.6093631102362,0 H 8.9748598 L 11.943069,0.12294539 h 3.33704 L 18.248318,9.1153898 H 15.613813 L 13.646716,2.5993803 h -0.07025 z M 11.117591,5.5675896 h 4.95287 v 1.8265901 h -4.95287 z m 7.991327,3.5478002 V 0.12294539 h 3.899067 q 1.027457,0 1.725602,0.27662362 0.702534,0.27662363 1.058192,0.78156999 0.36005,0.5049468 0.36005,1.1899182 0,0.496165 -0.219542,0.9045135 -0.215152,0.4083473 -0.605937,0.6849706 -0.390785,0.2722322 -0.913295,0.3776122 v 0.087817 q 0.579591,0.021959 1.053802,0.2941871 0.474211,0.26784 0.755225,0.7420524 0.281016,0.4698203 0.281016,1.1064923 0,0.7376613 -0.386395,1.312862 -0.382005,0.5751991 -1.08893,0.904512 -0.706926,0.3293132 -1.686084,0.3293132 z m 2.441308,-1.949534 h 1.141619 q 0.614718,0 0.922077,-0.228325 0.307358,-0.2327131 0.307358,-0.6849714 0,-0.3161423 -0.144895,-0.5356826 Q 23.631485,5.4973361 23.363644,5.383174 23.100193,5.2690122 22.726971,5.2690122 h -1.176745 z m 0,-3.4072932 h 1.001112 q 0.32053,0 0.566419,-0.100989 0.245888,-0.100989 0.382003,-0.2897953 0.140508,-0.1931981 0.140508,-0.4698202 0,-0.4171298 -0.298579,-0.636672 Q 23.043113,2.0373528 22.586464,2.0373528 H 21.550226 Z M 29.804988,0.12294539 V 9.1153898 H 27.36368 V 0.12294539 Z M 36.80399,3.0911547 Q 36.746919,2.8584416 36.623971,2.6828062 36.501023,2.5027835 36.316619,2.3798393 36.136601,2.2525032 35.8951,2.191033 35.65801,2.125171 35.372588,2.125171 q -0.614718,0 -1.049412,0.2941871 -0.430301,0.2941871 -0.658625,0.8474325 -0.223933,0.5532461 -0.223933,1.3348161 0,0.7903514 0.215149,1.3523792 0.21515,0.5620279 0.641063,0.8606053 0.425912,0.2985751 1.058193,0.2985751 0.557639,0 0.926468,-0.162463 Q 36.654719,6.7882441 36.83913,6.4896648 37.023533,6.1910897 37.023533,5.78713 l 0.421519,0.043907 H 35.390136 V 4.0922665 h 3.986884 v 1.2469992 q 0,1.2294357 -0.522508,2.1032134 -0.518121,0.8693866 -1.431417,1.3348161 -0.908901,0.4610381 -2.085649,0.4610381 -1.312861,0 -2.305191,-0.5576367 Q 32.039924,8.1230598 31.482287,7.0912117 30.929041,6.059364 30.929041,4.6367309 q 0,-1.115274 0.338094,-1.9758788 0.342486,-0.8606053 0.948422,-1.453369 Q 32.821493,0.6103287 33.616235,0.30736063 34.410977,1.8897638e-6 35.319881,1.8897638e-6 q 0.799136,0 1.484107,0.2283250402362 0.68936,0.22393323 1.216264,0.64106307 0.531292,0.4127392 0.856214,0.9791577 0.324926,0.5664185 0.395176,1.2426085 z m 5.769543,6.0242351 h -2.634505 l 2.968211,-8.99244441 h 3.337039 L 49.212489,9.1153898 H 46.57798 L 44.610883,2.5993803 h -0.07026 z M 42.08176,5.5675896 h 4.95287 V 7.3941797 H 42.08176 Z M 57.853657,0.12294539 V 9.1153898 H 55.816306 L 52.567084,4.3908439 h -0.05269 v 4.7245459 h -2.44131 V 0.12294539 h 2.072477 l 3.196532,4.70698251 h 0.07026 V 0.12294539 Z m 4.865049,0 h 2.40618 V 6.2876875 q -0.0045,0.8781683 -0.443475,1.5455766 -0.434695,0.6630172 -1.203092,1.0362388 -0.764005,0.3688289 -1.760727,0.3688289 -0.864997,0 -1.580704,-0.2985751 Q 59.421182,8.6367883 58.99527,7.9913345 58.569359,7.3414897 58.573751,6.305251 h 2.441307 q 0.01323,0.3380938 0.114179,0.5708096 0.105373,0.232713 0.289776,0.3512655 0.188826,0.1141606 0.456651,0.1141606 0.272239,0 0.456646,-0.1185524 0.188825,-0.1185525 0.285392,-0.3512693 0.0966,-0.2371049 0.100989,-0.583982 z"
         id="text1"
         style="font-weight:900;font-size:3.27147px;font-family:Inter;-inkscape-font-specification:'Inter, Heavy';opacity:1;fill:#64748b;stroke:#383838;stroke-width:0;stroke-opacity:0;paint-order:stroke fill markers"
         aria-label="HABIGANJ" /></pattern></defs><g
     inkscape:label="Layer 1"
     inkscape:groupmode="layer"
     id="layer1"
     transform="translate(-0.37127621,-0.72984407)"><g
       id="g4"
       transform="matrix(1.815226,0,0,1.815226,10.93762,-4.7121827)"><g
         id="g2"
         transform="matrix(0.25871578,0,0,0.25871578,-5.8796199,3.0058116)"
         style="fill:#383838;fill-opacity:0;stroke:#2563eb;stroke-width:2.54647;stroke-dasharray:none;stroke-opacity:1"><polygon
           class="cls-1"
           points="12.96,5.32 12.96,22.5 1.5,22.5 1.5,5.32 7.23,1.5 "
           id="polygon1"
           style="fill:#383838;fill-opacity:0;stroke:#2563eb;stroke-width:2.54647;stroke-miterlimit:10;stroke-dasharray:none;stroke-opacity:1" /><path
           class="cls-1"
           d="M 6.27,8.18 Z"
           id="path1"
           style="fill:#383838;fill-opacity:0;stroke:#2563eb;stroke-width:2.54647;stroke-miterlimit:10;stroke-dasharray:none;stroke-opacity:1" /><path
           class="cls-1"
           d="M 10.09,8.18 Z"
           id="path2"
           style="fill:#383838;fill-opacity:0;stroke:#2563eb;stroke-width:2.54647;stroke-miterlimit:10;stroke-dasharray:none;stroke-opacity:1" /><path
           class="cls-1"
           d="M 6.27,12 Z"
           id="path3"
           style="fill:#383838;fill-opacity:0;stroke:#2563eb;stroke-width:2.54647;stroke-miterlimit:10;stroke-dasharray:none;stroke-opacity:1" /><path
           class="cls-1"
           d="M 10.09,12 Z"
           id="path4"
           style="fill:#383838;fill-opacity:0;stroke:#2563eb;stroke-width:2.54647;stroke-miterlimit:10;stroke-dasharray:none;stroke-opacity:1" /><path
           class="cls-1"
           d="M 6.27,15.82 Z"
           id="path5"
           style="fill:#383838;fill-opacity:0;stroke:#2563eb;stroke-width:2.54647;stroke-miterlimit:10;stroke-dasharray:none;stroke-opacity:1" /><path
           class="cls-1"
           d="M 10.09,15.82 Z"
           id="path6"
           style="fill:#383838;fill-opacity:0;stroke:#2563eb;stroke-width:2.54647;stroke-miterlimit:10;stroke-dasharray:none;stroke-opacity:1" /><polygon
           class="cls-1"
           points="22.5,9.14 22.5,22.5 12.96,22.5 12.96,9.14 17.73,6.27 "
           id="polygon6"
           style="fill:#383838;fill-opacity:0;stroke:#2563eb;stroke-width:2.54647;stroke-miterlimit:10;stroke-dasharray:none;stroke-opacity:1" /><path
           class="cls-1"
           d="M 19.64,11.05 Z"
           id="path7"
           style="fill:#383838;fill-opacity:0;stroke:#2563eb;stroke-width:2.54647;stroke-miterlimit:10;stroke-dasharray:none;stroke-opacity:1" /><path
           class="cls-1"
           d="M 19.64,14.86 Z"
           id="path8"
           style="fill:#383838;fill-opacity:0;stroke:#2563eb;stroke-width:2.54647;stroke-miterlimit:10;stroke-dasharray:none;stroke-opacity:1" /><path
           class="cls-1"
           d="M 19.64,18.68 Z"
           id="path9"
           style="fill:#383838;fill-opacity:0;stroke:#2563eb;stroke-width:2.54647;stroke-miterlimit:10;stroke-dasharray:none;stroke-opacity:1" /></g><rect
         style="fill:url(#pattern4);stroke:none"
         transform="scale(0.26458333)"
         width="65.124886"
         height="9.2383356"
         x="3.5549099"
         y="15.750712"
         id="rect4" /><text
         xml:space="preserve"
         style="font-style:normal;font-variant:normal;font-weight:600;font-stretch:normal;font-size:2.89278px;font-family:Inter;-inkscape-font-specification:'Inter, Semi-Bold';font-variant-ligatures:normal;font-variant-caps:normal;font-variant-numeric:normal;font-variant-east-asian:normal;opacity:1;fill:#64748b;fill-opacity:1;stroke:#383838;stroke-width:0;stroke-opacity:0;paint-order:stroke fill markers"
         x="0.73748249"
         y="9.1333809"
         id="text1-7"><tspan
           sodipodi:role="line"
           id="tspan4"
           x="0.73748249"
           y="9.1333809">PR   PERTIES</tspan></text><path
         class="cls-1"
         d="m 4.7565145,9.798181 0.345596,-0.8890887 a 0.91525189,0.91525189 0 1 1 0.237828,0.092444 L 4.9943445,9.890635 Z m 1.051523,-1.0802367 a 0.652055,0.652055 0 1 0 -0.859541,-0.3341823 0.65291238,0.65291238 0 0 0 0.859544,0.33418 z"
         id="path1-7-2"
         style="fill:#2563eb;fill-opacity:0;stroke:#2563eb;stroke-width:0.322;stroke-dasharray:none;stroke-opacity:1" /></g></g></svg>
