<?xml version="1.0" encoding="UTF-8" standalone="no"?>
<!-- Uploaded to: SVG Repo, www.svgrepo.com, Generator: SVG Repo Mixer Tools -->

<svg
   fill="#000000"
   height="30"
   width="62"
   version="1.1"
   id="Capa_1"
   viewBox="0 0 480.75583 234.01774"
   xml:space="preserve"
   sodipodi:docname="icon.svg"
   inkscape:export-filename="logo1.svg"
   inkscape:export-xdpi="96"
   inkscape:export-ydpi="96"
   xmlns:inkscape="http://www.inkscape.org/namespaces/inkscape"
   xmlns:sodipodi="http://sodipodi.sourceforge.net/DTD/sodipodi-0.dtd"
   xmlns:xlink="http://www.w3.org/1999/xlink"
   xmlns="http://www.w3.org/2000/svg"
   xmlns:svg="http://www.w3.org/2000/svg"><defs
   id="defs2"><linearGradient
     id="linearGradient94"
     inkscape:collect="always"><stop
       style="stop-color:#ea580c;stop-opacity:1;"
       offset="0"
       id="stop94" /><stop
       style="stop-color:#f59e0b;stop-opacity:1;"
       offset="1"
       id="stop95" /></linearGradient><linearGradient
     inkscape:collect="always"
     xlink:href="#linearGradient94"
     id="linearGradient95"
     x1="260.42108"
     y1="311.10236"
     x2="364.02222"
     y2="311.10236"
     gradientUnits="userSpaceOnUse"
     gradientTransform="translate(32.17768,-166.06275)" /></defs><sodipodi:namedview
   id="namedview2"
   pagecolor="#ffffff"
   bordercolor="#cccccc"
   borderopacity="1"
   inkscape:showpageshadow="0"
   inkscape:pageopacity="1"
   inkscape:pagecheckerboard="0"
   inkscape:deskcolor="#d1d1d1" />&#10;&#10;<g
   id="g95"
   transform="translate(2.5039468e-5)"><g
     id="g3"
     style="fill:#282c35;fill-opacity:1"
     transform="translate(-3.9119024,-113.92564)"><g
       id="g2"
       transform="matrix(1.3251663,0,0,1.3251663,3.911944,-9.4420481)"
       style="fill:#282c35;fill-opacity:1;stroke-width:0.999934;stroke-dasharray:none">&#10;	&#10;	<path
   d="m 355.287,254.69 h -175.62 l 81.278,-139.218 62.926,107.783 c 2.088,3.578 6.683,4.784 10.258,2.696 3.577,-2.088 4.784,-6.681 2.695,-10.258 L 267.422,96.815 c -0.021,-0.036 -0.048,-0.067 -0.069,-0.103 -0.126,-0.208 -0.262,-0.408 -0.407,-0.603 -0.044,-0.059 -0.086,-0.118 -0.131,-0.176 -0.183,-0.23 -0.376,-0.451 -0.584,-0.658 -0.024,-0.024 -0.051,-0.045 -0.076,-0.069 -0.186,-0.18 -0.383,-0.349 -0.587,-0.509 -0.065,-0.051 -0.132,-0.1 -0.199,-0.148 -0.187,-0.137 -0.379,-0.264 -0.578,-0.384 -0.055,-0.033 -0.108,-0.068 -0.164,-0.1 -0.261,-0.147 -0.53,-0.282 -0.809,-0.397 -0.011,-0.004 -0.022,-0.008 -0.033,-0.012 -0.26,-0.106 -0.528,-0.196 -0.802,-0.273 -0.073,-0.021 -0.146,-0.038 -0.22,-0.056 -0.222,-0.055 -0.447,-0.1 -0.677,-0.135 -0.079,-0.012 -0.157,-0.026 -0.236,-0.036 -0.297,-0.036 -0.598,-0.06 -0.906,-0.06 H 101.842 c -2.667,0 -5.133,1.416 -6.477,3.719 L 1.023,258.408 c -1.354,2.319 -1.365,5.186 -0.027,7.516 1.337,2.329 3.818,3.766 6.504,3.766 h 86.538 c 0.008,0 0.015,10e-4 0.023,10e-4 0.008,0 0.015,-10e-4 0.023,-10e-4 h 35.889 c 0.008,0 0.015,10e-4 0.023,10e-4 0.008,0 0.015,-10e-4 0.023,-10e-4 h 36.586 188.684 c 4.143,0 7.5,-3.358 7.5,-7.5 0,-4.142 -3.359,-7.5 -7.502,-7.5 z m -192.989,0 h -19.263 l 69.43,-119.47 c 2.081,-3.582 0.865,-8.172 -2.716,-10.253 -3.58,-2.083 -8.173,-0.866 -10.253,2.716 L 125.686,254.69 H 107.1 l 85.192,-146.594 h 55.59 z M 106.147,108.096 h 34.091 L 74.789,220.717 c -2.081,3.582 -0.865,8.172 2.716,10.253 1.186,0.689 2.482,1.017 3.762,1.017 2.584,0 5.1,-1.337 6.491,-3.733 l 69.83,-120.158 h 17.356 L 89.751,254.69 H 20.563 Z"
   id="path2"
   style="fill:#282c35;fill-opacity:1;stroke-width:0.999934;stroke-dasharray:none" />&#10;</g></g><path
     id="Combined-Shape-6"
     style="fill:url(#linearGradient95);fill-rule:evenodd;stroke:#383838;stroke-width:0;stroke-dasharray:none;stroke-opacity:0.0202329"
     d="m 343.63069,98.400864 c -3.71371,0.23481 -7.15119,2.582966 -8.79661,5.910186 -13.68361,23.96468 -27.39863,47.91225 -41.0626,71.88765 -2.09549,3.92868 -1.32089,9.12008 1.82967,12.26642 2.17427,2.28653 5.38449,3.4188 8.51295,3.22284 27.30977,-0.01 54.62024,0.0205 81.92956,-0.0153 4.48766,-0.12984 8.63532,-3.43639 9.76892,-7.77946 0.86155,-2.99568 0.2468,-6.29545 -1.45632,-8.88332 -13.66449,-23.89224 -27.29319,-47.80578 -40.98004,-71.6847 -2.02972,-3.27485 -5.90512,-5.230517 -9.74553,-4.924266 z" /></g></svg>
