<?xml version="1.0" encoding="UTF-8" standalone="no"?>
<!-- Uploaded to: SVG Repo, www.svgrepo.com, Transformed by: SVG Repo Mixer Tools -->

<svg
   width="28.150545"
   height="25.674252"
   viewBox="0 0 28.150545 25.674252"
   version="1.1"
   fill="#000000"
   id="svg1"
   sodipodi:docname="brackets-svgrepo-com.svg"
   inkscape:export-filename="../../GitHub/My Projects/tb/public/com.svg"
   inkscape:export-xdpi="96"
   inkscape:export-ydpi="96"
   xmlns:inkscape="http://www.inkscape.org/namespaces/inkscape"
   xmlns:sodipodi="http://sodipodi.sourceforge.net/DTD/sodipodi-0.dtd"
   xmlns="http://www.w3.org/2000/svg"
   xmlns:svg="http://www.w3.org/2000/svg">
  <defs
     id="defs1" />
  <sodipodi:namedview
     id="namedview1"
     pagecolor="#ffffff"
     bordercolor="#cccccc"
     borderopacity="1"
     inkscape:showpageshadow="0"
     inkscape:pageopacity="1"
     inkscape:pagecheckerboard="0"
     inkscape:deskcolor="#d1d1d1" />
  <path
     fill="#000000"
     d="M 25.273365,0.00248998 H 2.999189 C 1.490257,0.00248998 0.23779366,1.5251169 -3.9155579e-8,3.5208411 V 4.899049 C 0.00496996,4.945114 0.01120196,4.991179 0.01742896,5.037243 c -0.00748,0.03237 -0.01245,0.065984 -0.01742899915558,0.0996 v 17.41621 C 0.34735296,24.350823 1.5300968,25.674251 2.9381843,25.674251 H 25.21236 c 1.408087,0 2.592075,-1.323428 2.938184,-3.121198 V 2.8435648 C 27.740941,1.1902135 26.607998,-1.8518066e-8 25.27461,-1.8518066e-8 Z m 0.15189,20.67186902 c -0.27888,1.450418 -1.233788,2.517376 -2.369223,2.517376 H 5.0932677 c -1.135434,0 -2.0890987,-1.066958 -2.3692223,-2.517376 V 6.6283446 c 0.00497,-0.02739 0.00748,-0.05478 0.013696,-0.08093 -0.00497,-0.03735 -0.00997,-0.07345 -0.013696,-0.110804 V 5.3248366 C 2.9157744,3.7150601 3.9254639,2.4862516 5.1430675,2.4862516 H 23.105832 c 1.075673,0 1.988254,0.9586449 2.319423,2.2920329 V 20.673114 Z M 5.2215021,12.839615 v 7.615624 H 13.145884 V 16.987933 H 8.6875621 V 8.6912976 H 13.145884 V 5.2239921 H 5.2202571 V 12.839615 Z M 15.003414,6.9570226 v 1.73303 h 4.458321 v 8.2966354 h -4.458321 v 3.467306 h 7.925629 V 5.2227471 h -7.925629 v 1.7330305 z"
     id="path1"
     inkscape:label="path1"
     style="stroke-width:1.24499" />
</svg>
