<?xml version="1.0" standalone="no"?>
<!DOCTYPE svg PUBLIC "-//W3C//DTD SVG 20010904//EN"
 "http://www.w3.org/TR/2001/REC-SVG-20010904/DTD/svg10.dtd">
<svg version="1.0" xmlns="http://www.w3.org/2000/svg"
 width="1060.000000pt" height="1060.000000pt" viewBox="0 0 1060.000000 1060.000000"
 preserveAspectRatio="xMidYMid meet">
<metadata>
Created by potrace 1.14, written by Peter Selinger 2001-2017
</metadata>
<g transform="translate(0.000000,1060.000000) scale(0.100000,-0.100000)"
fill="#000000" stroke="none">
<path d="M2886 7860 c-22 -11 -48 -28 -59 -37 -15 -14 -152 -235 -203 -328 -6
-11 -43 -76 -84 -145 -40 -69 -80 -138 -89 -155 -9 -16 -18 -32 -21 -35 -3 -3
-10 -14 -16 -25 -6 -11 -246 -423 -534 -915 -287 -492 -534 -915 -548 -940
-14 -25 -33 -57 -43 -72 -11 -14 -19 -29 -19 -32 0 -4 -11 -25 -26 -47 -14
-22 -33 -55 -43 -72 -10 -18 -105 -180 -211 -362 -106 -181 -202 -346 -213
-365 -10 -19 -66 -114 -122 -210 -56 -96 -112 -191 -123 -210 -11 -19 -129
-222 -262 -450 -134 -228 -249 -429 -256 -445 -17 -40 -12 -132 9 -172 24 -45
64 -82 111 -104 40 -18 198 -19 5166 -19 4958 0 5126 1 5165 19 88 41 129 104
129 201 0 72 -14 109 -64 157 -67 65 150 60 -2684 60 -1417 0 -2580 3 -2583 7
-4 4 -2 15 3 24 11 17 943 1612 974 1667 10 17 95 163 190 325 95 162 181 309
190 326 10 17 89 152 175 300 87 148 167 285 178 304 29 52 225 387 263 450
18 30 110 188 204 350 95 162 175 299 180 303 4 5 21 -16 38 -45 16 -29 79
-137 139 -239 61 -102 113 -192 116 -200 4 -8 16 -27 26 -44 10 -16 73 -124
141 -240 108 -186 184 -316 215 -367 5 -9 28 -47 49 -85 21 -37 58 -99 81
-138 23 -38 53 -90 67 -115 14 -25 80 -137 146 -250 65 -113 278 -477 472
-810 194 -333 363 -617 374 -632 32 -41 111 -78 168 -78 61 0 130 32 167 77
49 59 65 151 37 216 -7 18 -106 192 -221 387 -229 392 -236 404 -266 458 -12
20 -67 114 -122 207 -55 94 -105 179 -111 190 -10 17 -618 1059 -670 1148 -11
17 -29 50 -42 72 -12 22 -73 128 -136 235 -108 185 -261 446 -409 700 -87 151
-116 183 -180 203 -48 16 -236 17 -2413 17 -2319 -1 -2362 -1 -2400 -20z
m1201 -423 c2 -3 -6 -25 -20 -49 -27 -47 -237 -408 -322 -553 -62 -106 -260
-446 -286 -492 -44 -78 -273 -471 -287 -493 -9 -14 -17 -27 -17 -30 0 -3 -8
-16 -17 -30 -9 -14 -65 -110 -126 -215 -60 -104 -230 -397 -377 -650 -250
-430 -349 -600 -398 -685 -72 -125 -79 -142 -79 -196 0 -74 33 -138 97 -183
44 -32 55 -35 116 -35 94 0 148 34 206 129 47 77 217 370 273 469 19 34 43 73
53 86 9 14 17 30 17 37 0 7 5 13 10 13 6 0 10 4 10 9 0 5 86 156 191 337 106
181 203 349 217 374 14 25 33 57 43 72 11 14 19 28 19 31 0 2 84 148 186 323
103 176 197 337 209 359 26 46 76 134 107 185 29 49 377 649 398 685 24 41
278 477 289 494 7 11 56 13 256 13 136 0 248 -2 250 -4 2 -2 -97 -175 -220
-386 -123 -211 -226 -388 -229 -395 -3 -7 -16 -28 -27 -47 -28 -46 -341 -585
-367 -630 -10 -19 -65 -113 -121 -209 -56 -96 -113 -193 -126 -215 -12 -23
-87 -151 -165 -286 -227 -389 -275 -472 -476 -818 -24 -42 -49 -84 -54 -92 -5
-8 -17 -28 -26 -45 -9 -16 -154 -266 -322 -555 -168 -289 -314 -542 -326 -562
-18 -34 -24 -38 -60 -39 -51 0 -1897 0 -1948 0 l-36 1 290 498 c160 273 346
592 413 707 67 116 166 284 219 374 53 90 96 168 96 172 0 5 5 9 10 9 6 0 10
5 10 11 0 6 17 39 38 73 49 80 54 89 73 123 8 15 73 127 144 248 70 121 136
234 145 250 10 17 80 136 155 265 76 129 153 260 170 290 18 30 72 123 120
205 48 83 95 164 104 180 16 29 137 236 244 415 27 47 58 99 67 115 9 17 43
75 75 130 32 55 63 109 70 120 31 56 56 90 69 95 19 6 966 3 973 -3z m3148 1
c3 -3 -556 -967 -712 -1228 -31 -52 -67 -113 -79 -135 -12 -22 -153 -265 -314
-540 -252 -431 -425 -727 -490 -840 -10 -16 -70 -120 -135 -230 -125 -213
-134 -227 -187 -320 -66 -114 -239 -410 -248 -425 -16 -26 -132 -223 -150
-255 -33 -59 -173 -300 -176 -304 -4 -4 -554 -4 -558 0 -2 2 67 126 153 274
87 149 296 509 466 800 169 292 331 571 360 620 29 50 62 106 73 125 64 112
614 1058 622 1070 5 8 17 29 26 45 10 17 86 149 171 294 178 306 191 338 173
418 -36 164 -246 226 -364 109 -13 -14 -55 -78 -93 -143 -182 -310 -213 -364
-213 -370 0 -4 -6 -14 -14 -22 -7 -9 -27 -41 -44 -72 -18 -32 -117 -204 -222
-383 -104 -180 -200 -346 -213 -369 -14 -23 -64 -109 -112 -192 -48 -82 -136
-233 -195 -335 -59 -102 -117 -201 -129 -220 -11 -19 -24 -42 -28 -50 -3 -8
-21 -37 -38 -65 -17 -27 -38 -63 -47 -80 -8 -16 -85 -149 -170 -295 -272 -465
-285 -487 -291 -501 -4 -8 -17 -30 -28 -49 -12 -19 -77 -132 -146 -250 -145
-249 -206 -354 -209 -359 -4 -4 -534 -4 -539 1 -2 1 30 59 71 127 41 69 74
126 74 127 0 2 36 64 80 140 44 75 80 139 80 142 0 3 6 13 14 21 7 9 27 41 43
71 17 30 61 107 98 170 37 63 102 174 143 245 41 72 107 184 145 250 39 66 93
158 119 205 27 47 53 92 58 100 13 21 144 245 306 525 76 132 144 249 151 260
7 11 15 27 19 35 4 8 18 32 31 53 13 21 33 55 45 75 67 120 393 681 409 704
11 15 19 30 19 33 0 3 12 24 26 46 14 23 36 60 49 82 12 23 110 191 215 372
247 423 248 424 267 462 11 22 25 33 42 35 35 4 1592 0 1596 -4z"/>
<path d="M7521 5546 c-18 -6 -46 -25 -62 -40 -15 -16 -98 -150 -183 -300 -85
-149 -214 -374 -286 -501 -73 -126 -146 -255 -162 -285 -17 -30 -41 -71 -53
-90 -12 -19 -35 -60 -52 -90 -16 -30 -54 -98 -84 -150 -49 -85 -54 -100 -54
-155 0 -51 5 -68 28 -102 15 -22 46 -50 70 -63 l42 -24 865 0 865 0 42 24 c64
36 97 91 97 165 1 58 -2 66 -105 245 -58 102 -118 208 -134 235 -15 28 -30 55
-35 60 -4 6 -21 35 -37 65 -17 30 -73 129 -125 220 -52 91 -106 185 -120 210
-14 25 -50 88 -80 140 -30 52 -68 118 -83 145 -73 132 -136 232 -162 257 -47
44 -126 58 -192 34z"/>
</g>
</svg>
